<svg width="966" height="200" viewBox="0 0 966 200" fill="none" xmlns="http://www.w3.org/2000/svg">
<g clip-path="url(#clip0_66145_8250)">
<path d="M615.112 70.7892C608.445 64.1223 600.328 58.9109 590.756 55.1491C581.356 51.2183 570.586 49.2529 558.453 49.2529C546.32 49.2529 535.977 51.2183 526.405 55.1491C516.833 58.9079 508.628 64.1223 501.792 70.7892C495.128 77.4562 490 85.2317 486.41 94.122C482.992 102.84 481.281 112.068 481.281 121.812V127.709C481.281 137.281 482.992 146.426 486.41 155.141C489.828 163.687 494.784 171.294 501.279 177.961C507.946 184.628 516.065 189.925 525.634 193.856C535.206 197.615 546.145 199.497 558.453 199.497C570.761 199.497 581.952 197.618 591.524 193.856C601.096 189.925 609.129 184.625 615.624 177.961C622.291 171.294 627.331 163.687 630.752 155.141C634.17 146.423 635.877 137.281 635.877 127.709V121.812C635.877 112.068 634.084 102.84 630.494 94.122C626.904 85.2348 621.778 77.4562 615.112 70.7892ZM590.498 145.397C587.765 151.551 583.748 156.336 578.448 159.757C573.151 163.174 566.484 164.885 558.453 164.885C550.423 164.885 544.18 163.174 538.71 159.757C533.241 156.339 529.138 151.551 526.405 145.397C523.669 139.243 522.302 132.407 522.302 124.886C522.302 116.853 523.669 109.845 526.405 103.863C529.31 97.7088 533.499 92.8384 538.968 89.2485C544.438 85.6586 550.933 83.8652 558.453 83.8652C565.974 83.8652 572.638 85.6586 577.935 89.2485C583.407 92.8384 587.593 97.7088 590.498 103.863C593.403 109.845 594.859 116.853 594.859 124.886C594.859 132.407 593.403 139.243 590.498 145.397Z" fill="#282622"/>
<path d="M429.954 16.1797H391.752V54.1269H370.474V84.1236H391.752V139.759C391.752 153.947 393.717 165.226 397.651 173.604C401.751 181.809 408.163 187.705 416.878 191.295C425.596 194.713 437.048 196.424 451.232 196.424H470.975V161.811H450.207C443.712 161.811 438.669 160.101 435.083 156.683C431.662 153.093 429.954 147.965 429.954 141.301V84.1266H470.975V54.13H429.954V16.1797Z" fill="#282622"/>
<path d="M315.861 16.1797H277.659V54.1239H256.38V84.1205H277.659V139.756C277.659 153.944 279.624 165.223 283.555 173.601C287.658 181.806 294.067 187.702 302.782 191.292C311.497 194.71 322.948 196.421 337.136 196.421H356.876V161.808H336.11C329.615 161.808 324.573 160.098 320.983 156.68C317.565 153.09 315.858 147.962 315.858 141.298V84.1236H356.876V54.1269H315.858V16.1797H315.861Z" fill="#282622"/>
<path d="M181.855 55.334V85.5886H200.57V195.834H241.591V85.5886V55.334H200.57H181.855Z" fill="#282622"/>
<path d="M216.465 43.3205C224.157 43.3205 229.796 41.3551 233.386 37.4243C237.144 33.3216 239.027 28.1932 239.027 22.0422C239.027 15.8911 237.147 10.5907 233.386 6.65996C229.796 2.55723 224.157 0.505859 216.465 0.505859C208.772 0.505859 203.048 2.55723 199.286 6.65996C195.696 10.5907 193.903 15.7191 193.903 22.0422C193.903 28.3652 195.696 33.3247 199.286 37.4243C203.045 41.3551 208.772 43.3205 216.465 43.3205Z" fill="#282622"/>
<path d="M145.932 33.6132C137.386 25.0669 126.788 18.314 114.142 13.3575C101.493 8.40108 86.7094 5.92285 69.7887 5.92285H0.309326V195.65H69.7887C86.7094 195.65 101.493 193 114.142 187.702C126.791 182.405 137.386 175.394 145.932 166.679C154.478 157.792 160.801 147.876 164.904 136.937C169.176 125.827 171.313 114.63 171.313 103.351V97.7093C171.313 85.5731 169.176 74.0356 164.904 63.0971C160.801 51.9865 154.478 42.1596 145.932 33.6132ZM124.908 123.606C122.344 130.442 118.585 136.341 113.629 141.298C108.673 146.085 102.69 149.844 95.6826 152.577C88.6748 155.141 80.8132 156.422 72.0949 156.422H42.3562V45.1507H72.0949C80.8132 45.1507 88.6748 46.4312 95.6826 48.9954C102.69 51.3877 108.673 54.9776 113.629 59.7651C118.585 64.5496 122.347 70.3628 124.908 77.1987C127.47 84.0345 128.753 91.8131 128.753 100.528C128.753 109.244 127.473 116.595 124.908 123.603V123.606Z" fill="#282622"/>
<path d="M850.97 182.85V142.037H837.369V87.6209H823.762V33.2044H812V5.99609H760.197V33.2044H742.14V60.4126H728.539V87.6209H714.935V114.832H701.331V142.037H687.726V169.249H674.122V182.85H660.518V196.457H728.539V182.85H701.331V169.246H714.935V142.04H728.539L796.556 142.037L810.157 142.04V182.85H782.949V196.457H864.574V182.85H850.97ZM796.556 128.433H728.539V114.829H742.146V87.6209H755.747V60.4126H769.348V33.2044H782.952V87.6209H796.556V114.829V128.433Z" fill="#282622"/>
<path d="M965.804 5.99609V19.6002H952.203V46.8085H946.371V101.228H938.598V155.642H932.773V182.85H946.371V196.457H878.347V182.85H891.957V155.645H897.786V101.228H905.559V46.8085H911.39V19.6002H897.786V5.99609H965.804Z" fill="#282622"/>
</g>
<defs>
<clipPath id="clip0_66145_8250">
<rect width="965.494" height="198.995" fill="white" transform="translate(0.309326 0.50293)"/>
</clipPath>
</defs>
</svg>
