<svg xmlns="http://www.w3.org/2000/svg" viewBox="0 0 50 50"><defs><style>.cls-1{fill:#ffffff;}</style></defs><g id="Layer_2" data-name="Layer 2"><g id="Layer_1-2" data-name="Layer 1"><path class="cls-1" d="M26.85,7.23a24.65,24.65,0,0,0-1.22,2.18,24.26,24.26,0,0,0-1.49,3.81c.29,0,.57,0,.86,0s.75,0,1.11.05a22.29,22.29,0,0,1,1.4-2.81c.39-.65.81-1.29,1.26-1.9s.94-1.18,1.44-1.74a22.19,22.19,0,0,1,3.36-3c.52-.38,1.06-.73,1.61-1.06l.57-.32a25.62,25.62,0,0,0-3.41-1.33l-.5.41-.05,0a25.09,25.09,0,0,0-3.5,3.64A24.5,24.5,0,0,0,26.85,7.23Z"/><path class="cls-1" d="M21.6,9.74a24.49,24.49,0,0,0-.45,4.09,12.13,12.13,0,0,1,1.91-.48,20.78,20.78,0,0,1,.63-3.12,22.59,22.59,0,0,1,.72-2.15c.28-.71.6-1.39.94-2.06a22.67,22.67,0,0,1,2.47-3.77c.39-.48.81-.95,1.24-1.4l.47-.46A25.67,25.67,0,0,0,25.9,0l-.38.52h0A24.43,24.43,0,0,0,23.08,5a22.19,22.19,0,0,0-.86,2.36C22,8.11,21.77,8.92,21.6,9.74Z"/><path class="cls-1" d="M18.43,15.18a11.45,11.45,0,0,1,1.72-.95,21.41,21.41,0,0,1-.21-3.2c0-.76.06-1.52.14-2.27s.22-1.5.38-2.23a21.9,21.9,0,0,1,1.41-4.28q.38-.83.81-1.62L23,.06a25,25,0,0,0-3.6.55l-.21.58s0,0,0,0A24.33,24.33,0,0,0,18,6.09a23.22,23.22,0,0,0-.23,2.5c0,.84,0,1.67,0,2.51A24.23,24.23,0,0,0,18.43,15.18Z"/><path class="cls-1" d="M13.79,11c.19.81.42,1.62.69,2.41a23.71,23.71,0,0,0,1.67,3.79,11.25,11.25,0,0,1,1.41-1.35,21.17,21.17,0,0,1-1-3.06,21.29,21.29,0,0,1-.45-2.22C16,9.8,15.9,9,15.86,8.29a21.68,21.68,0,0,1,.26-4.49,17,17,0,0,1,.36-1.75c.05-.21.1-.42.16-.63a25.3,25.3,0,0,0-3.32,1.46l-.06.58v.06a25.11,25.11,0,0,0,.1,5C13.47,9.34,13.61,10.16,13.79,11Z"/><path class="cls-1" d="M8.58,32a23.13,23.13,0,0,0,2.5,0A23.6,23.6,0,0,0,15,31.32a11.06,11.06,0,0,1-.91-1.74,19.91,19.91,0,0,1-3.08.19c-.76,0-1.52-.06-2.27-.14a20.76,20.76,0,0,1-2.23-.38,22.56,22.56,0,0,1-4.28-1.4Q1.4,27.46.59,27L0,26.69a24.69,24.69,0,0,0,.5,3.58l.59.23.06,0a25.15,25.15,0,0,0,4.89,1.21C6.91,31.84,7.74,31.92,8.58,32Z"/><path class="cls-1" d="M8.49,36.35A23.38,23.38,0,0,0,11,35.92c.81-.19,1.62-.41,2.41-.68A23.78,23.78,0,0,0,17,33.68a12.08,12.08,0,0,1-1.32-1.45,21.1,21.1,0,0,1-2.88,1c-.73.19-1.48.34-2.23.46a21.38,21.38,0,0,1-2.25.21,22.39,22.39,0,0,1-4.49-.25c-.63-.11-1.26-.24-1.87-.39L1.29,33A25.91,25.91,0,0,0,2.7,36.38l.64.06h.1A24.34,24.34,0,0,0,8.49,36.35Z"/><path class="cls-1" d="M14.3,39.14a24.45,24.45,0,0,0,2.15-1.29,23.32,23.32,0,0,0,3-2.39,12,12,0,0,1-1.66-1.07A20.07,20.07,0,0,1,15.33,36a22.73,22.73,0,0,1-2,1,20,20,0,0,1-2.12.79,21.62,21.62,0,0,1-4.41.92c-.65.07-1.3.1-1.95.11H4.16a24.66,24.66,0,0,0,2.23,2.86l.62-.1.16,0A24.53,24.53,0,0,0,12,40.19,23.51,23.51,0,0,0,14.3,39.14Z"/><path class="cls-1" d="M18.36,41.38a24.64,24.64,0,0,0,1.74-1.8,23.11,23.11,0,0,0,2.27-3,11.77,11.77,0,0,1-1.88-.6,20.12,20.12,0,0,1-1.95,2.17,22.09,22.09,0,0,1-1.7,1.51A19.93,19.93,0,0,1,15,40.93a21.35,21.35,0,0,1-4,2q-.95.36-1.92.63l-.62.16A25.86,25.86,0,0,0,11.31,46l.58-.26.22-.1A24,24,0,0,0,16.43,43,24.56,24.56,0,0,0,18.36,41.38Z"/><path class="cls-1" d="M22.85,42.5a23.46,23.46,0,0,0,1.22-2.19,23.71,23.71,0,0,0,1.39-3.49H25a11,11,0,0,1-1.52-.1,19.78,19.78,0,0,1-1.29,2.56,22.33,22.33,0,0,1-1.26,1.9,21.94,21.94,0,0,1-1.44,1.75,22.12,22.12,0,0,1-3.36,3,19.66,19.66,0,0,1-1.76,1.15l-.56.32a25.64,25.64,0,0,0,3.37,1.39l.49-.4.24-.2a25,25,0,0,0,3.5-3.63C21.92,43.89,22.41,43.21,22.85,42.5Z"/><path class="cls-1" d="M27.49,42.41c.24-.79.44-1.61.61-2.42a24.25,24.25,0,0,0,.43-3.7,11.25,11.25,0,0,1-1.93.43A21.29,21.29,0,0,1,26,39.49a21,21,0,0,1-.72,2.16c-.28.7-.6,1.39-.94,2.06a22,22,0,0,1-2.47,3.76c-.46.56-.94,1.1-1.45,1.61l-.46.45A25.36,25.36,0,0,0,23.6,50l.38-.52.2-.28a24.49,24.49,0,0,0,2.44-4.42A24.88,24.88,0,0,0,27.49,42.41Z"/><path class="cls-1" d="M31.37,35a11.42,11.42,0,0,1-1.76.94,21.74,21.74,0,0,1,.15,2.79c0,.76-.06,1.52-.14,2.27s-.22,1.5-.38,2.24a21.81,21.81,0,0,1-1.41,4.27c-.3.68-.64,1.33-1,2L26.5,50a24.36,24.36,0,0,0,3.63-.48c.08-.2.16-.39.23-.6s.1-.24.14-.37a24.55,24.55,0,0,0,1.21-4.9,23.46,23.46,0,0,0,.23-2.5c0-.84,0-1.68,0-2.51A23.87,23.87,0,0,0,31.37,35Z"/><path class="cls-1" d="M35.91,38.75a24.61,24.61,0,0,0-.69-2.41,22.71,22.71,0,0,0-1.45-3.4,12.51,12.51,0,0,1-1.46,1.36A22.74,22.74,0,0,1,33.17,37a21.47,21.47,0,0,1,.45,2.23c.11.75.18,1.5.22,2.26a21.76,21.76,0,0,1-.26,4.49c-.12.74-.28,1.47-.47,2.2l-.18.62a25.39,25.39,0,0,0,3.4-1.42c0-.22.05-.43.07-.64s0-.28,0-.42a24.34,24.34,0,0,0-.1-5.05C36.24,40.39,36.09,39.56,35.91,38.75Z"/><path class="cls-1" d="M41.58,42.54a24.5,24.5,0,0,0-1.4-4.85,23.51,23.51,0,0,0-1-2.28c-.4-.74-.83-1.46-1.29-2.15a24.84,24.84,0,0,0-2.29-2.91,12.71,12.71,0,0,1-1,1.7A24,24,0,0,1,36,34.39a22.55,22.55,0,0,1,1,2c.3.7.56,1.41.79,2.13a22.07,22.07,0,0,1,.92,4.4c.07.75.11,1.5.11,2.25,0,.22,0,.44,0,.66a25.53,25.53,0,0,0,2.91-2.27c0-.21-.06-.42-.1-.63S41.61,42.68,41.58,42.54Z"/><path class="cls-1" d="M45.59,37.61A25.19,25.19,0,0,0,43,33.29a24.11,24.11,0,0,0-3.41-3.68,23.94,23.94,0,0,0-3-2.23A11.47,11.47,0,0,1,36,29.3a20.65,20.65,0,0,1,2.09,1.87c.53.55,1,1.11,1.51,1.71s.9,1.21,1.31,1.84a21.92,21.92,0,0,1,2,4,22.48,22.48,0,0,1,.7,2.15l.15.63A25.53,25.53,0,0,0,46,38.58c-.08-.2-.17-.39-.26-.59S45.65,37.73,45.59,37.61Z"/><path class="cls-1" d="M48.18,31.81a24.07,24.07,0,0,0-3.64-3.5,24.45,24.45,0,0,0-2-1.45c-.71-.44-1.44-.85-2.19-1.22a23.51,23.51,0,0,0-3.51-1.39c0,.25,0,.5,0,.76q0,.63-.06,1.23a21.35,21.35,0,0,1,2.52,1.29,20.07,20.07,0,0,1,1.9,1.25,21.91,21.91,0,0,1,1.74,1.45,21.65,21.65,0,0,1,3,3.35,21.12,21.12,0,0,1,1.22,1.9c.11.19.22.38.32.57a25.06,25.06,0,0,0,1.38-3.43l-.4-.5Z"/><path class="cls-1" d="M43.63,18a23.64,23.64,0,0,0-2.51-.23c-.83,0-1.67,0-2.5,0a23.56,23.56,0,0,0-3.84.57,11.43,11.43,0,0,1,1,1.74A22,22,0,0,1,38.68,20c.76,0,1.52.06,2.27.14s1.5.22,2.23.38a21.9,21.9,0,0,1,4.28,1.41c.66.3,1.31.63,1.94,1,.19.11.38.22.56.34a25.46,25.46,0,0,0-.53-3.65l-.6-.24a2.09,2.09,0,0,1-.3-.11A24.71,24.71,0,0,0,43.63,18Z"/><path class="cls-1" d="M41.21,13.37c-.83.11-1.66.25-2.48.43s-1.62.42-2.41.69a23.07,23.07,0,0,0-3.6,1.57,11.66,11.66,0,0,1,1.39,1.42,21.82,21.82,0,0,1,2.83-.94,21.47,21.47,0,0,1,2.23-.45c.75-.11,1.5-.18,2.25-.22a21.82,21.82,0,0,1,4.5.26c.7.11,1.39.26,2.08.44l.62.18a24.83,24.83,0,0,0-1.47-3.38l-.64-.07-.25,0A25.81,25.81,0,0,0,41.21,13.37Z"/><path class="cls-1" d="M35.4,10.59a23.8,23.8,0,0,0-5.27,3.77,12.19,12.19,0,0,1,1.71,1,20.11,20.11,0,0,1,2.53-1.67c.67-.38,1.35-.71,2-1a22.44,22.44,0,0,1,2.12-.79A21.6,21.6,0,0,1,42.94,11q1-.11,2-.12h.66A26.52,26.52,0,0,0,43.34,8l-.64.1-.17,0a24.5,24.5,0,0,0-4.85,1.4C36.9,9.85,36.14,10.2,35.4,10.59Z"/><path class="cls-1" d="M31.34,8.34A24.5,24.5,0,0,0,27.2,13.4a11,11,0,0,1,1.91.53,21.52,21.52,0,0,1,2.05-2.32,22,22,0,0,1,1.7-1.5c.6-.47,1.21-.91,1.85-1.32a21.92,21.92,0,0,1,4-2c.62-.24,1.24-.44,1.88-.62L41.24,6a26,26,0,0,0-3-2.17l-.59.26-.11,0a25.19,25.19,0,0,0-4.32,2.61C32.6,7.24,32,7.78,31.34,8.34Z"/><path class="cls-1" d="M8.13,7.26A25.12,25.12,0,0,0,9.52,12c.32.78.67,1.54,1.06,2.28s.82,1.46,1.28,2.16a24.34,24.34,0,0,0,2.59,3.22,10.5,10.5,0,0,1,1-1.67,21.93,21.93,0,0,1-1.79-2.68,21.48,21.48,0,0,1-1-2A22.43,22.43,0,0,1,11,6.77c-.06-.58-.09-1.16-.1-1.75,0-.21,0-.43,0-.64A24.49,24.49,0,0,0,8,6.64l.09.55Z"/><path class="cls-1" d="M4.14,12.18a24.53,24.53,0,0,0,2.58,4.26,24.93,24.93,0,0,0,1.61,1.93,24.64,24.64,0,0,0,1.8,1.74,23.07,23.07,0,0,0,3.31,2.43A11.89,11.89,0,0,1,14,20.67a20.31,20.31,0,0,1-2.41-2.12c-.53-.54-1-1.11-1.51-1.7A22,22,0,0,1,8.78,15a22.16,22.16,0,0,1-2-4c-.21-.55-.4-1.1-.56-1.66-.06-.21-.12-.42-.17-.63a24.44,24.44,0,0,0-2.15,2.9c.07.17.15.35.23.52Z"/><path class="cls-1" d="M1.55,18a24.18,24.18,0,0,0,3.61,3.47c.66.51,1.35,1,2.05,1.45s1.45.85,2.19,1.22a24,24,0,0,0,3.79,1.47c0-.18,0-.36,0-.55a13,13,0,0,1,.08-1.4,21.44,21.44,0,0,1-2.84-1.41c-.65-.39-1.29-.81-1.9-1.26A20.14,20.14,0,0,1,6.78,19.5a22.19,22.19,0,0,1-3-3.36c-.35-.48-.67-1-1-1.48-.11-.18-.22-.37-.32-.56a23.29,23.29,0,0,0-1.34,3.36l.38.46Z"/><path class="cls-1" d="M.52,24.2a24.38,24.38,0,0,0,4.42,2.43,24.7,24.7,0,0,0,2.36.87c.8.24,1.61.45,2.43.61a24.37,24.37,0,0,0,4,.45,13.55,13.55,0,0,1-.43-1.91A21.15,21.15,0,0,1,10.22,26a20.09,20.09,0,0,1-2.15-.72A20.26,20.26,0,0,1,6,24.36a21.48,21.48,0,0,1-3.77-2.47q-.71-.57-1.35-1.2l-.46-.45A24.8,24.8,0,0,0,0,23.83l.52.36Z"/><path class="cls-1" d="M49.48,25.74l-.3-.21a25.06,25.06,0,0,0-4.42-2.44,24.63,24.63,0,0,0-2.36-.86c-.8-.25-1.61-.45-2.43-.62a24.18,24.18,0,0,0-3.79-.44,12.52,12.52,0,0,1,.49,1.94,22.26,22.26,0,0,1,2.81.59q1.1.32,2.16.72a22.55,22.55,0,0,1,2.06.95,21.93,21.93,0,0,1,3.76,2.46,19.57,19.57,0,0,1,1.65,1.5c.16.15.31.31.46.47A26.26,26.26,0,0,0,50,26.13Z"/></g></g></svg>