<svg width="2480" height="1347" viewBox="0 0 2480 1347" fill="none" xmlns="http://www.w3.org/2000/svg">
<path d="M333.98 605V459.545H385.827C397.143 459.545 406.518 461.605 413.952 465.724C421.385 469.844 426.949 475.478 430.642 482.628C434.335 489.73 436.182 497.732 436.182 506.634C436.182 515.582 434.312 523.632 430.571 530.781C426.878 537.884 421.291 543.518 413.81 547.685C406.376 551.804 397.025 553.864 385.756 553.864H350.102V535.256H383.767C390.917 535.256 396.717 534.025 401.168 531.562C405.618 529.053 408.885 525.644 410.969 521.335C413.052 517.027 414.094 512.126 414.094 506.634C414.094 501.141 413.052 496.264 410.969 492.003C408.885 487.741 405.595 484.403 401.097 481.989C396.646 479.574 390.775 478.366 383.483 478.366H355.926V605H333.98ZM464.205 605V495.909H484.731V513.239H485.867C487.856 507.367 491.36 502.751 496.379 499.389C501.445 495.98 507.174 494.276 513.566 494.276C514.892 494.276 516.454 494.323 518.254 494.418C520.1 494.512 521.544 494.631 522.586 494.773V515.085C521.734 514.848 520.219 514.588 518.04 514.304C515.862 513.973 513.684 513.807 511.506 513.807C506.487 513.807 502.013 514.872 498.083 517.003C494.201 519.086 491.123 521.998 488.85 525.739C486.577 529.432 485.441 533.646 485.441 538.381V605H464.205ZM587.009 607.202C576.781 607.202 567.856 604.858 560.233 600.17C552.61 595.483 546.691 588.925 542.477 580.497C538.263 572.069 536.156 562.221 536.156 550.952C536.156 539.635 538.263 529.74 542.477 521.264C546.691 512.789 552.61 506.207 560.233 501.52C567.856 496.832 576.781 494.489 587.009 494.489C597.236 494.489 606.161 496.832 613.784 501.52C621.407 506.207 627.326 512.789 631.54 521.264C635.754 529.74 637.861 539.635 637.861 550.952C637.861 562.221 635.754 572.069 631.54 580.497C627.326 588.925 621.407 595.483 613.784 600.17C606.161 604.858 597.236 607.202 587.009 607.202ZM587.08 589.375C593.708 589.375 599.201 587.623 603.557 584.119C607.913 580.616 611.133 575.952 613.216 570.128C615.347 564.304 616.412 557.888 616.412 550.881C616.412 543.92 615.347 537.528 613.216 531.705C611.133 525.833 607.913 521.122 603.557 517.571C599.201 514.02 593.708 512.244 587.08 512.244C580.403 512.244 574.864 514.02 570.46 517.571C566.104 521.122 562.861 525.833 560.73 531.705C558.647 537.528 557.605 543.92 557.605 550.881C557.605 557.888 558.647 564.304 560.73 570.128C562.861 575.952 566.104 580.616 570.46 584.119C574.864 587.623 580.403 589.375 587.08 589.375ZM706.403 607.131C697.596 607.131 689.736 604.882 682.823 600.384C675.958 595.838 670.56 589.375 666.63 580.994C662.747 572.566 660.806 562.457 660.806 550.668C660.806 538.878 662.771 528.793 666.701 520.412C670.678 512.031 676.123 505.616 683.036 501.165C689.949 496.714 697.785 494.489 706.545 494.489C713.316 494.489 718.761 495.625 722.88 497.898C727.047 500.123 730.266 502.727 732.539 505.71C734.859 508.693 736.658 511.321 737.937 513.594H739.215V459.545H760.451V605H739.712V588.026H737.937C736.658 590.346 734.812 592.997 732.397 595.98C730.03 598.963 726.763 601.567 722.596 603.793C718.429 606.018 713.031 607.131 706.403 607.131ZM711.09 589.02C717.198 589.02 722.359 587.41 726.573 584.19C730.835 580.923 734.054 576.402 736.232 570.625C738.458 564.848 739.57 558.125 739.57 550.455C739.57 542.879 738.481 536.25 736.303 530.568C734.125 524.886 730.929 520.459 726.715 517.287C722.501 514.115 717.293 512.528 711.09 512.528C704.698 512.528 699.371 514.186 695.11 517.5C690.849 520.814 687.629 525.336 685.451 531.065C683.32 536.795 682.255 543.258 682.255 550.455C682.255 557.746 683.344 564.304 685.522 570.128C687.7 575.952 690.92 580.568 695.181 583.977C699.49 587.339 704.793 589.02 711.09 589.02ZM863.865 559.759V495.909H885.172V605H864.291V586.108H863.155C860.645 591.932 856.621 596.785 851.081 600.668C845.589 604.503 838.747 606.42 830.555 606.42C823.548 606.42 817.345 604.882 811.947 601.804C806.597 598.679 802.383 594.062 799.305 587.955C796.275 581.847 794.76 574.295 794.76 565.298V495.909H815.996V562.741C815.996 570.175 818.055 576.094 822.175 580.497C826.294 584.901 831.644 587.102 838.226 587.102C842.203 587.102 846.157 586.108 850.087 584.119C854.064 582.131 857.355 579.124 859.959 575.099C862.61 571.075 863.912 565.961 863.865 559.759ZM963.657 607.202C953.098 607.202 944.007 604.811 936.384 600.028C928.808 595.199 922.985 588.546 918.913 580.071C914.841 571.596 912.805 561.889 912.805 550.952C912.805 539.872 914.888 530.095 919.055 521.619C923.221 513.097 929.093 506.444 936.668 501.662C944.244 496.88 953.169 494.489 963.444 494.489C971.73 494.489 979.116 496.027 985.603 499.105C992.09 502.135 997.322 506.397 1001.3 511.889C1005.32 517.382 1007.71 523.797 1008.47 531.136H987.805C986.668 526.023 984.064 521.619 979.992 517.926C975.968 514.233 970.57 512.386 963.799 512.386C957.88 512.386 952.696 513.949 948.245 517.074C943.842 520.152 940.409 524.555 937.947 530.284C935.485 535.966 934.254 542.689 934.254 550.455C934.254 558.409 935.461 565.275 937.876 571.051C940.29 576.828 943.7 581.302 948.103 584.474C952.554 587.647 957.786 589.233 963.799 589.233C967.824 589.233 971.469 588.499 974.737 587.031C978.051 585.516 980.821 583.362 983.046 580.568C985.319 577.775 986.905 574.413 987.805 570.483H1008.47C1007.71 577.538 1005.42 583.835 1001.58 589.375C997.748 594.915 992.611 599.271 986.171 602.443C979.779 605.616 972.274 607.202 963.657 607.202ZM1086.11 495.909V512.955H1026.52V495.909H1086.11ZM1042.5 469.773H1063.73V572.969C1063.73 577.088 1064.35 580.189 1065.58 582.273C1066.81 584.309 1068.4 585.705 1070.34 586.463C1072.33 587.173 1074.48 587.528 1076.8 587.528C1078.51 587.528 1080 587.41 1081.28 587.173C1082.55 586.937 1083.55 586.747 1084.26 586.605L1088.09 604.148C1086.86 604.621 1085.11 605.095 1082.84 605.568C1080.57 606.089 1077.72 606.373 1074.32 606.42C1068.73 606.515 1063.52 605.521 1058.69 603.438C1053.86 601.354 1049.95 598.134 1046.97 593.778C1043.99 589.422 1042.5 583.954 1042.5 577.372V469.773ZM1216.48 607.202C1206.25 607.202 1197.32 604.858 1189.7 600.17C1182.08 595.483 1176.16 588.925 1171.95 580.497C1167.73 572.069 1165.62 562.221 1165.62 550.952C1165.62 539.635 1167.73 529.74 1171.95 521.264C1176.16 512.789 1182.08 506.207 1189.7 501.52C1197.32 496.832 1206.25 494.489 1216.48 494.489C1226.7 494.489 1235.63 496.832 1243.25 501.52C1250.88 506.207 1256.79 512.789 1261.01 521.264C1265.22 529.74 1267.33 539.635 1267.33 550.952C1267.33 562.221 1265.22 572.069 1261.01 580.497C1256.79 588.925 1250.88 595.483 1243.25 600.17C1235.63 604.858 1226.7 607.202 1216.48 607.202ZM1216.55 589.375C1223.18 589.375 1228.67 587.623 1233.03 584.119C1237.38 580.616 1240.6 575.952 1242.68 570.128C1244.82 564.304 1245.88 557.888 1245.88 550.881C1245.88 543.92 1244.82 537.528 1242.68 531.705C1240.6 525.833 1237.38 521.122 1233.03 517.571C1228.67 514.02 1223.18 512.244 1216.55 512.244C1209.87 512.244 1204.33 514.02 1199.93 517.571C1195.57 521.122 1192.33 525.833 1190.2 531.705C1188.12 537.528 1187.07 543.92 1187.07 550.881C1187.07 557.888 1188.12 564.304 1190.2 570.128C1192.33 575.952 1195.57 580.616 1199.93 584.119C1204.33 587.623 1209.87 589.375 1216.55 589.375ZM1346.95 495.909V512.955H1285.3V495.909H1346.95ZM1302.21 605V483.267C1302.21 476.449 1303.7 470.791 1306.68 466.293C1309.66 461.747 1313.62 458.362 1318.54 456.136C1323.47 453.864 1328.82 452.727 1334.59 452.727C1338.85 452.727 1342.5 453.082 1345.53 453.793C1348.56 454.455 1350.81 455.071 1352.28 455.639L1347.31 472.827C1346.31 472.543 1345.03 472.211 1343.47 471.832C1341.91 471.406 1340.01 471.193 1337.79 471.193C1332.63 471.193 1328.93 472.472 1326.71 475.028C1324.53 477.585 1323.44 481.278 1323.44 486.108V605H1302.21ZM1480.71 495.909V512.955H1421.13V495.909H1480.71ZM1437.11 469.773H1458.34V572.969C1458.34 577.088 1458.96 580.189 1460.19 582.273C1461.42 584.309 1463.01 585.705 1464.95 586.463C1466.94 587.173 1469.09 587.528 1471.41 587.528C1473.12 587.528 1474.61 587.41 1475.88 587.173C1477.16 586.937 1478.16 586.747 1478.87 586.605L1482.7 604.148C1481.47 604.621 1479.72 605.095 1477.45 605.568C1475.17 606.089 1472.33 606.373 1468.92 606.42C1463.34 606.515 1458.13 605.521 1453.3 603.438C1448.47 601.354 1444.56 598.134 1441.58 593.778C1438.6 589.422 1437.11 583.954 1437.11 577.372V469.773ZM1531.78 540.227V605H1510.55V459.545H1531.5V513.665H1532.85C1535.41 507.794 1539.31 503.13 1544.57 499.673C1549.82 496.217 1556.69 494.489 1565.17 494.489C1572.65 494.489 1579.18 496.027 1584.77 499.105C1590.4 502.183 1594.76 506.776 1597.84 512.884C1600.96 518.944 1602.52 526.52 1602.52 535.611V605H1581.29V538.168C1581.29 530.166 1579.23 523.963 1575.11 519.56C1570.99 515.109 1565.26 512.884 1557.92 512.884C1552.9 512.884 1548.4 513.949 1544.43 516.08C1540.5 518.21 1537.4 521.335 1535.12 525.455C1532.9 529.527 1531.78 534.451 1531.78 540.227ZM1681.88 607.202C1671.13 607.202 1661.87 604.905 1654.11 600.312C1646.39 595.672 1640.42 589.162 1636.21 580.781C1632.04 572.353 1629.96 562.481 1629.96 551.165C1629.96 539.991 1632.04 530.142 1636.21 521.619C1640.42 513.097 1646.3 506.444 1653.82 501.662C1661.4 496.88 1670.25 494.489 1680.39 494.489C1686.54 494.489 1692.51 495.507 1698.28 497.543C1704.06 499.579 1709.25 502.775 1713.84 507.131C1718.43 511.487 1722.05 517.145 1724.71 524.105C1727.36 531.018 1728.68 539.422 1728.68 549.318V556.847H1641.96V540.938H1707.87C1707.87 535.35 1706.74 530.402 1704.46 526.094C1702.19 521.738 1699 518.305 1694.88 515.795C1690.8 513.286 1686.02 512.031 1680.53 512.031C1674.56 512.031 1669.35 513.499 1664.9 516.435C1660.5 519.323 1657.09 523.111 1654.68 527.798C1652.31 532.438 1651.13 537.481 1651.13 542.926V555.355C1651.13 562.647 1652.4 568.849 1654.96 573.963C1657.57 579.077 1661.19 582.983 1665.83 585.682C1670.47 588.333 1675.89 589.659 1682.09 589.659C1686.12 589.659 1689.79 589.091 1693.1 587.955C1696.41 586.771 1699.28 585.019 1701.69 582.699C1704.11 580.379 1705.96 577.514 1707.23 574.105L1727.33 577.727C1725.72 583.646 1722.83 588.83 1718.67 593.281C1714.55 597.685 1709.36 601.117 1703.11 603.58C1696.91 605.994 1689.83 607.202 1681.88 607.202ZM1854.01 607.131C1845.21 607.131 1837.35 604.882 1830.43 600.384C1823.57 595.838 1818.17 589.375 1814.24 580.994C1810.36 572.566 1808.42 562.457 1808.42 550.668C1808.42 538.878 1810.38 528.793 1814.31 520.412C1818.29 512.031 1823.73 505.616 1830.65 501.165C1837.56 496.714 1845.39 494.489 1854.15 494.489C1860.92 494.489 1866.37 495.625 1870.49 497.898C1874.66 500.123 1877.88 502.727 1880.15 505.71C1882.47 508.693 1884.27 511.321 1885.55 513.594H1886.82V459.545H1908.06V605H1887.32V588.026H1885.55C1884.27 590.346 1882.42 592.997 1880.01 595.98C1877.64 598.963 1874.37 601.567 1870.21 603.793C1866.04 606.018 1860.64 607.131 1854.01 607.131ZM1858.7 589.02C1864.81 589.02 1869.97 587.41 1874.18 584.19C1878.44 580.923 1881.66 576.402 1883.84 570.625C1886.07 564.848 1887.18 558.125 1887.18 550.455C1887.18 542.879 1886.09 536.25 1883.91 530.568C1881.73 524.886 1878.54 520.459 1874.32 517.287C1870.11 514.115 1864.9 512.528 1858.7 512.528C1852.31 512.528 1846.98 514.186 1842.72 517.5C1838.46 520.814 1835.24 525.336 1833.06 531.065C1830.93 536.795 1829.86 543.258 1829.86 550.455C1829.86 557.746 1830.95 564.304 1833.13 570.128C1835.31 575.952 1838.53 580.568 1842.79 583.977C1847.1 587.339 1852.4 589.02 1858.7 589.02ZM1974.12 607.415C1967.2 607.415 1960.95 606.136 1955.37 603.58C1949.78 600.975 1945.35 597.211 1942.09 592.287C1938.87 587.363 1937.26 581.326 1937.26 574.176C1937.26 568.021 1938.44 562.955 1940.81 558.977C1943.17 555 1946.37 551.851 1950.39 549.531C1954.42 547.211 1958.92 545.459 1963.89 544.276C1968.86 543.092 1973.93 542.192 1979.09 541.577C1985.62 540.819 1990.93 540.204 1995 539.73C1999.07 539.209 2002.03 538.381 2003.88 537.244C2005.72 536.108 2006.64 534.261 2006.64 531.705V531.207C2006.64 525.005 2004.89 520.199 2001.39 516.79C1997.93 513.381 1992.77 511.676 1985.91 511.676C1978.76 511.676 1973.12 513.262 1969 516.435C1964.93 519.56 1962.11 523.04 1960.55 526.875L1940.59 522.33C1942.96 515.701 1946.42 510.35 1950.96 506.278C1955.56 502.159 1960.84 499.176 1966.8 497.33C1972.77 495.436 1979.04 494.489 1985.62 494.489C1989.98 494.489 1994.59 495.009 1999.47 496.051C2004.4 497.045 2008.99 498.892 2013.25 501.591C2017.56 504.29 2021.09 508.149 2023.83 513.168C2026.58 518.139 2027.95 524.602 2027.95 532.557V605H2007.21V590.085H2006.36C2004.99 592.831 2002.93 595.53 2000.18 598.182C1997.44 600.833 1993.91 603.035 1989.6 604.787C1985.29 606.539 1980.13 607.415 1974.12 607.415ZM1978.73 590.369C1984.6 590.369 1989.62 589.209 1993.79 586.889C1998 584.569 2001.2 581.539 2003.38 577.798C2005.6 574.01 2006.72 569.962 2006.72 565.653V551.591C2005.96 552.348 2004.49 553.059 2002.31 553.722C2000.18 554.337 1997.74 554.882 1995 555.355C1992.25 555.781 1989.58 556.184 1986.97 556.562C1984.37 556.894 1982.19 557.178 1980.44 557.415C1976.32 557.936 1972.55 558.812 1969.14 560.043C1965.78 561.274 1963.08 563.049 1961.05 565.369C1959.06 567.642 1958.07 570.672 1958.07 574.46C1958.07 579.716 1960.01 583.693 1963.89 586.392C1967.77 589.044 1972.72 590.369 1978.73 590.369ZM2069.75 645.909C2066.58 645.909 2063.69 645.649 2061.09 645.128C2058.48 644.654 2056.54 644.134 2055.26 643.565L2060.38 626.165C2064.26 627.206 2067.72 627.656 2070.75 627.514C2073.78 627.372 2076.45 626.236 2078.77 624.105C2081.14 621.974 2083.22 618.494 2085.02 613.665L2087.65 606.42L2047.74 495.909H2070.46L2098.09 580.568H2099.23L2126.86 495.909H2149.65L2104.7 619.56C2102.61 625.241 2099.96 630.047 2096.74 633.977C2093.52 637.955 2089.69 640.938 2085.24 642.926C2080.79 644.915 2075.62 645.909 2069.75 645.909Z" fill="#4B587C"/>
<path d="M645.378 853V722.091H697.026C706.955 722.091 715.413 723.987 722.402 727.78C729.391 731.53 734.717 736.75 738.382 743.44C742.089 750.088 743.943 757.759 743.943 766.452C743.943 775.145 742.068 782.815 738.318 789.463C734.568 796.111 729.135 801.288 722.018 804.996C714.945 808.703 706.379 810.557 696.322 810.557H663.403V788.376H691.848C697.175 788.376 701.564 787.46 705.016 785.628C708.51 783.753 711.109 781.175 712.814 777.893C714.561 774.57 715.435 770.756 715.435 766.452C715.435 762.105 714.561 758.312 712.814 755.074C711.109 751.793 708.51 749.257 705.016 747.467C701.521 745.635 697.089 744.719 691.72 744.719H673.055V853H645.378ZM765.009 853V754.818H791.409V771.949H792.431C794.221 765.855 797.225 761.253 801.444 758.142C805.663 754.989 810.521 753.412 816.018 753.412C817.382 753.412 818.852 753.497 820.428 753.668C822.005 753.838 823.39 754.072 824.583 754.371V778.533C823.305 778.149 821.536 777.808 819.278 777.51C817.019 777.212 814.953 777.062 813.078 777.062C809.072 777.062 805.492 777.936 802.339 779.683C799.228 781.388 796.757 783.774 794.924 786.842C793.134 789.911 792.24 793.447 792.24 797.453V853H765.009ZM882.052 854.918C872.123 854.918 863.537 852.808 856.292 848.589C849.091 844.328 843.53 838.405 839.609 830.82C835.689 823.192 833.728 814.349 833.728 804.293C833.728 794.151 835.689 785.287 839.609 777.702C843.53 770.074 849.091 764.151 856.292 759.932C863.537 755.67 872.123 753.54 882.052 753.54C891.981 753.54 900.547 755.67 907.748 759.932C914.993 764.151 920.575 770.074 924.495 777.702C928.416 785.287 930.376 794.151 930.376 804.293C930.376 814.349 928.416 823.192 924.495 830.82C920.575 838.405 914.993 844.328 907.748 848.589C900.547 852.808 891.981 854.918 882.052 854.918ZM882.18 833.824C886.697 833.824 890.468 832.545 893.494 829.989C896.52 827.389 898.799 823.852 900.334 819.378C901.91 814.903 902.699 809.811 902.699 804.101C902.699 798.391 901.91 793.298 900.334 788.824C898.799 784.349 896.52 780.812 893.494 778.213C890.468 775.614 886.697 774.314 882.18 774.314C877.62 774.314 873.785 775.614 870.674 778.213C867.606 780.812 865.284 784.349 863.707 788.824C862.173 793.298 861.406 798.391 861.406 804.101C861.406 809.811 862.173 814.903 863.707 819.378C865.284 823.852 867.606 827.389 870.674 829.989C873.785 832.545 877.62 833.824 882.18 833.824ZM987.861 854.598C980.404 854.598 973.649 852.68 967.598 848.845C961.59 844.967 956.817 839.278 953.28 831.778C949.786 824.236 948.039 814.989 948.039 804.037C948.039 792.787 949.85 783.433 953.472 775.976C957.094 768.476 961.909 762.872 967.918 759.165C973.969 755.415 980.595 753.54 987.797 753.54C993.294 753.54 997.875 754.477 1001.54 756.352C1005.25 758.185 1008.23 760.486 1010.49 763.256C1012.79 765.983 1014.54 768.668 1015.73 771.31H1016.56V722.091H1043.73V853H1016.88V837.276H1015.73C1014.45 840.003 1012.64 842.709 1010.3 845.393C1008 848.036 1004.99 850.23 1001.28 851.977C997.62 853.724 993.145 854.598 987.861 854.598ZM996.49 832.929C1000.88 832.929 1004.59 831.736 1007.61 829.349C1010.68 826.92 1013.02 823.533 1014.64 819.186C1016.31 814.839 1017.14 809.747 1017.14 803.909C1017.14 798.071 1016.33 793 1014.71 788.696C1013.09 784.392 1010.74 781.068 1007.68 778.724C1004.61 776.381 1000.88 775.209 996.49 775.209C992.016 775.209 988.245 776.423 985.176 778.852C982.108 781.281 979.786 784.648 978.209 788.952C976.632 793.256 975.844 798.241 975.844 803.909C975.844 809.619 976.632 814.669 978.209 819.058C979.828 823.405 982.151 826.814 985.176 829.286C988.245 831.714 992.016 832.929 996.49 832.929ZM1132.68 811.196V754.818H1159.91V853H1133.76V835.166H1132.74C1130.53 840.919 1126.84 845.543 1121.68 849.037C1116.57 852.531 1110.33 854.278 1102.95 854.278C1096.39 854.278 1090.62 852.787 1085.63 849.804C1080.65 846.821 1076.75 842.581 1073.93 837.084C1071.16 831.587 1069.76 825.003 1069.72 817.332V754.818H1096.95V812.474C1096.99 818.27 1098.54 822.851 1101.61 826.217C1104.68 829.584 1108.79 831.267 1113.95 831.267C1117.23 831.267 1120.3 830.521 1123.15 829.03C1126.01 827.496 1128.31 825.237 1130.06 822.254C1131.85 819.271 1132.72 815.585 1132.68 811.196ZM1229.65 854.918C1219.59 854.918 1210.94 852.787 1203.7 848.526C1196.5 844.222 1190.96 838.256 1187.08 830.628C1183.24 823 1181.33 814.222 1181.33 804.293C1181.33 794.236 1183.26 785.415 1187.14 777.83C1191.06 770.202 1196.62 764.257 1203.83 759.996C1211.03 755.692 1219.59 753.54 1229.52 753.54C1238.09 753.54 1245.59 755.095 1252.02 758.206C1258.46 761.317 1263.55 765.685 1267.3 771.31C1271.05 776.935 1273.12 783.54 1273.5 791.125H1247.8C1247.08 786.224 1245.16 782.283 1242.05 779.3C1238.98 776.274 1234.95 774.761 1229.97 774.761C1225.75 774.761 1222.06 775.912 1218.91 778.213C1215.8 780.472 1213.37 783.774 1211.62 788.121C1209.88 792.467 1209 797.73 1209 803.909C1209 810.173 1209.86 815.5 1211.56 819.889C1213.31 824.278 1215.76 827.624 1218.91 829.925C1222.06 832.226 1225.75 833.376 1229.97 833.376C1233.08 833.376 1235.87 832.737 1238.34 831.459C1240.86 830.18 1242.92 828.327 1244.54 825.898C1246.2 823.426 1247.29 820.464 1247.8 817.013H1273.5C1273.07 824.513 1271.03 831.118 1267.36 836.828C1263.74 842.496 1258.73 846.928 1252.34 850.124C1245.95 853.32 1238.38 854.918 1229.65 854.918ZM1346.76 754.818V775.273H1287.63V754.818H1346.76ZM1301.05 731.295H1328.28V822.83C1328.28 825.344 1328.67 827.304 1329.43 828.71C1330.2 830.074 1331.27 831.033 1332.63 831.587C1334.04 832.141 1335.66 832.418 1337.49 832.418C1338.77 832.418 1340.04 832.311 1341.32 832.098C1342.6 831.842 1343.58 831.651 1344.26 831.523L1348.55 851.786C1347.18 852.212 1345.26 852.702 1342.79 853.256C1340.32 853.852 1337.32 854.214 1333.78 854.342C1327.22 854.598 1321.46 853.724 1316.52 851.722C1311.62 849.719 1307.81 846.608 1305.08 842.389C1302.35 838.17 1301.01 832.844 1301.05 826.409V731.295ZM1413.87 853V722.091H1441.54V776.104H1497.73V722.091H1525.34V853H1497.73V798.923H1441.54V853H1413.87ZM1614.21 811.196V754.818H1641.44V853H1615.3V835.166H1614.28C1612.06 840.919 1608.37 845.543 1603.22 849.037C1598.1 852.531 1591.86 854.278 1584.49 854.278C1577.93 854.278 1572.15 852.787 1567.17 849.804C1562.18 846.821 1558.28 842.581 1555.47 837.084C1552.7 831.587 1551.29 825.003 1551.25 817.332V754.818H1578.48V812.474C1578.52 818.27 1580.08 822.851 1583.15 826.217C1586.22 829.584 1590.33 831.267 1595.48 831.267C1598.77 831.267 1601.83 830.521 1604.69 829.03C1607.54 827.496 1609.84 825.237 1611.59 822.254C1613.38 819.271 1614.26 815.585 1614.21 811.196ZM1694.05 796.239V853H1666.82V754.818H1692.78V772.141H1693.93C1696.1 766.43 1699.74 761.913 1704.86 758.589C1709.97 755.223 1716.17 753.54 1723.46 753.54C1730.28 753.54 1736.22 755.031 1741.29 758.014C1746.36 760.997 1750.3 765.259 1753.12 770.798C1755.93 776.295 1757.33 782.858 1757.33 790.486V853H1730.1V795.344C1730.15 789.335 1728.61 784.648 1725.5 781.281C1722.39 777.872 1718.11 776.168 1712.65 776.168C1708.99 776.168 1705.75 776.956 1702.94 778.533C1700.17 780.109 1698 782.411 1696.42 785.436C1694.88 788.419 1694.1 792.02 1694.05 796.239ZM1834.62 754.818V775.273H1775.49V754.818H1834.62ZM1788.92 731.295H1816.15V822.83C1816.15 825.344 1816.53 827.304 1817.3 828.71C1818.06 830.074 1819.13 831.033 1820.49 831.587C1821.9 832.141 1823.52 832.418 1825.35 832.418C1826.63 832.418 1827.91 832.311 1829.19 832.098C1830.46 831.842 1831.44 831.651 1832.13 831.523L1836.41 851.786C1835.05 852.212 1833.13 852.702 1830.66 853.256C1828.18 853.852 1825.18 854.214 1821.64 854.342C1815.08 854.598 1809.33 853.724 1804.38 851.722C1799.48 849.719 1795.67 846.608 1792.94 842.389C1790.22 838.17 1788.87 832.844 1788.92 826.409V731.295Z" fill="#4B587C"/>
<path d="M194.44 309.091C193.409 310.122 192.379 310.122 192.379 311.152V313.213C194.44 314.243 197.534 317.337 201.659 319.398C203.719 320.428 206.814 321.459 209.908 322.492C213.003 323.523 216.093 323.523 219.188 323.523C233.623 324.553 247.023 318.368 253.213 317.337C254.243 317.337 254.243 316.307 255.273 315.277V313.216C254.243 311.156 251.149 308.061 247.024 306.001C242.899 302.906 236.714 300.846 229.499 299.815C216.091 298.782 199.595 306.001 194.44 309.092L194.44 309.091Z" fill="#4B587C"/>
<path d="M187.696 306.699C190.777 300.092 199.494 284.851 201.337 268.819C201.777 260.98 201.597 254.459 199.834 249.615C198.071 244.771 196.66 240.895 194.987 239.311C194.635 238.343 193.666 238.696 192.698 239.048C191.73 239.4 190.762 239.753 190.143 241.075C185.389 246.098 175.44 263.98 174.213 278.691C173.335 282.304 173.773 286.53 174.831 289.438C174.921 292.698 175.978 295.603 178.005 298.158C179.768 303.002 183.115 306.174 183.82 308.11C184.172 309.078 185.14 308.725 186.109 308.373C186.109 308.373 187.08 308.02 187.696 306.699Z" fill="#4B587C"/>
<path d="M161.705 360.602C160.675 361.632 159.645 362.662 159.645 363.696C159.645 364.726 159.645 365.757 160.675 365.757C165.83 368.851 178.2 374.006 194.7 371.942C202.949 370.912 211.195 367.817 217.38 364.726C223.565 361.632 228.72 358.541 231.815 356.477C232.845 356.477 232.845 355.447 232.845 354.416C232.845 353.386 232.845 352.356 231.815 352.356C227.69 349.261 216.35 339.985 199.855 342.046C195.73 342.046 191.605 343.076 187.484 345.14C183.36 346.17 179.235 348.234 176.144 350.295C169.952 354.416 164.796 358.541 161.705 360.602Z" fill="#4B587C"/>
<path d="M145.009 285.32C143.16 289.286 140.431 296.862 138.054 305.405C135.678 313.949 133.656 323.464 134.893 332.889C137.365 351.74 147.408 361.248 151.727 364.066C152.079 365.034 153.048 364.682 154.016 364.33C154.984 363.977 155.6 362.657 155.6 362.657C156.478 359.044 159.206 351.469 160.614 343.278C161.14 338.697 162.022 335.087 162.548 330.506C163.074 325.925 163.603 321.343 163.161 317.119C162.011 298.887 153.551 287.702 149.851 283.562C149.499 282.594 148.531 282.946 147.563 283.299C146.244 282.679 145.628 283.999 145.009 285.321L145.009 285.32Z" fill="#4B587C"/>
<path d="M119.155 428.65C118.125 429.681 118.125 430.711 118.125 431.745C118.125 432.775 119.155 433.805 119.155 433.805C122.25 434.836 127.405 435.866 134.62 435.866C137.715 435.866 141.836 435.866 145.96 434.836C150.085 433.805 154.21 432.775 158.331 431.741C167.611 428.647 175.856 423.492 182.045 419.371C189.261 415.246 194.416 410.091 197.51 408.031C198.541 407.001 198.541 405.97 198.541 405.97C198.541 404.94 198.541 403.91 197.51 403.91C192.355 400.815 177.921 394.63 158.331 399.785C149.051 402.879 140.805 408.034 133.586 414.22C131.525 415.25 130.491 417.314 128.431 418.344C127.401 419.375 125.336 421.439 124.306 422.469C122.246 424.526 120.185 426.591 119.155 428.651L119.155 428.65Z" fill="#4B587C"/>
<path d="M103.096 333.968C100.765 338.567 97.1199 347.583 94.673 357.437C92.2224 367.292 91.1476 378.997 92.0988 390.344C92.9939 395.421 93.8891 400.498 95.62 404.381C97.3509 408.264 99.0818 412.147 101.651 414.832C105.773 420.386 110.548 423.733 112.938 425.403C114.132 426.239 115.146 426.06 115.986 424.866C117 424.687 117.836 423.494 117.657 422.479L117.478 421.464C118.135 419.256 118.612 416.03 120.108 412.624C120.765 410.416 120.406 408.383 121.063 406.175C121.72 403.967 122.376 401.755 122.018 399.726C123.454 390.049 124.708 379.359 123.932 369.027C122.381 348.362 112.768 335.4 108.826 330.861C108.647 329.846 107.632 330.025 105.599 330.383C104.77 331.576 103.932 332.773 103.096 333.967L103.096 333.968Z" fill="#4B587C"/>
<path d="M94.9759 517.316C93.9455 518.347 93.9455 520.411 94.9759 521.441C94.9759 522.471 96.0062 523.502 97.0365 523.502C100.131 523.502 107.346 523.502 114.562 521.441C118.686 520.411 122.811 519.38 126.932 517.316C131.057 515.256 135.181 513.192 140.337 510.101C144.461 507.006 148.586 503.915 152.707 500.821L157.862 495.666C158.892 494.636 159.923 493.605 159.923 492.571C160.953 491.541 161.983 490.511 161.983 490.511C168.169 484.326 172.293 478.141 175.388 474.016V472.985C175.388 471.955 176.418 470.925 175.388 469.891C175.388 468.861 174.358 467.83 173.327 467.83C166.112 465.77 149.613 461.645 130.027 472.985C111.471 484.326 98.0706 507.006 94.9759 517.316Z" fill="#4B587C"/>
<path d="M63.017 415.244C60.9564 420.399 57.862 430.709 54.7677 442.049C54.7677 443.079 53.7373 445.143 53.7373 446.174C53.7373 447.204 53.7373 449.268 52.707 450.298V460.605C52.707 466.79 52.707 472.975 53.7373 479.165C54.7677 485.35 56.8317 490.505 58.8923 494.63C60.953 498.754 64.0473 502.879 66.108 505.97C71.263 512.155 76.418 515.25 79.5127 517.31H82.6071C83.6374 516.28 83.6374 515.249 84.6677 514.216V513.185C85.698 502.875 90.853 477.1 87.7621 453.386C84.6677 429.671 73.3272 415.24 68.1722 410.085C67.1419 409.055 66.1116 409.055 65.0778 410.085C64.0475 412.149 63.017 413.18 63.017 415.244Z" fill="#4B587C"/>
<path d="M94.4805 615.26C94.4805 616.29 94.4805 618.354 95.5108 619.384C96.5411 620.415 97.5714 621.445 98.6052 620.415C102.73 619.384 108.915 617.32 117.165 614.229C121.29 612.169 125.414 610.105 129.535 607.014C131.596 605.983 133.66 603.919 135.72 601.859C137.781 599.798 139.845 597.734 141.906 595.673C146.03 591.549 149.121 587.424 152.216 582.269C153.246 580.208 155.31 578.144 156.34 575.053C157.371 572.993 159.435 570.928 160.465 568.868C165.62 560.618 168.715 552.373 169.745 548.248V547.218V544.123C169.745 543.093 168.715 542.062 167.684 542.062C163.56 542.062 156.344 542.063 148.095 544.123C139.845 546.184 130.569 550.308 121.289 558.558C102.73 575.053 95.5106 603.92 94.4805 615.26Z" fill="#4B587C"/>
<path d="M33.6505 513.191C32.6202 519.377 31.5898 531.751 31.5898 545.152C31.5898 548.246 31.5898 552.367 32.6202 555.462C33.6505 558.556 33.6505 562.677 34.6808 565.772C35.7111 572.987 38.8055 579.176 40.8661 585.361C41.8964 588.456 43.9605 591.547 44.9908 593.611C47.0514 596.705 49.1155 598.766 50.1458 600.826C54.2705 604.951 57.3614 608.042 61.4859 611.136C68.7015 616.291 75.9208 618.352 79.0112 619.386C80.0415 619.386 81.0718 619.386 82.1056 618.356C83.1359 617.325 83.1359 616.295 83.1359 615.261V614.231C82.1056 602.891 80.0415 572.991 70.7656 549.276C66.6409 536.906 59.4255 527.626 53.2403 520.406C48.0853 514.221 41.9002 510.096 38.8055 508.036C37.7752 507.006 36.7448 508.036 35.7111 509.066C34.6808 510.097 33.6505 511.127 33.6505 513.191Z" fill="#4B587C"/>
<path d="M104.79 724.547C104.79 726.608 105.82 727.641 106.85 728.672C107.881 729.702 108.911 729.702 109.945 729.702C114.069 727.641 120.255 723.517 127.47 717.332C134.685 711.146 141.905 701.867 148.09 691.557C151.184 686.402 153.245 680.217 155.305 674.031C156.336 670.937 157.366 668.876 157.366 665.782C158.396 662.688 159.427 660.627 159.427 657.533C161.487 647.223 163.551 637.943 163.551 632.788V631.757C163.551 630.727 163.551 629.697 162.521 628.663C161.491 627.633 160.46 627.633 159.427 627.633C151.177 629.693 129.527 634.848 115.092 657.533C107.876 668.873 104.782 682.278 102.722 694.648C101.691 700.833 101.691 707.018 101.691 712.173C103.759 717.328 104.79 721.453 104.79 724.547Z" fill="#4B587C"/>
<path d="M12.0002 632.79C13.0305 640.005 14.0608 653.41 19.2158 667.844C20.2461 670.939 21.2764 675.06 23.3405 679.185C24.3708 683.309 26.4349 686.4 28.4955 689.495C31.5899 696.71 35.7111 702.899 40.8658 709.084C51.1758 720.425 61.4858 726.61 70.7656 729.704C80.0455 732.799 87.2608 733.829 92.4158 733.829C93.4461 733.829 94.4764 732.799 94.4764 731.768V727.644V726.613C89.3247 715.27 79.0148 684.34 62.5197 660.625C46.0245 636.91 24.3744 627.635 16.1247 625.57C15.0944 625.57 14.0641 625.57 13.0303 627.631C12 628.665 12.0002 630.726 12.0002 632.79Z" fill="#4B587C"/>
<path d="M149.124 832.804C150.154 834.865 151.185 835.899 152.219 835.899C153.249 836.929 155.313 835.899 155.313 835.899C158.407 832.804 164.593 826.619 169.748 817.339C174.903 808.059 180.058 796.719 183.152 783.314C186.247 769.909 186.247 756.509 185.213 745.169C185.213 733.829 183.152 724.549 183.152 718.364V717.333C183.152 716.303 182.122 715.273 181.092 715.273C180.062 714.242 179.031 714.242 177.997 715.273C169.748 719.397 148.098 731.768 139.852 759.607C137.792 766.823 136.758 774.042 136.758 781.258C136.758 788.473 137.788 795.692 138.818 802.908C139.849 809.093 141.913 816.312 143.973 821.467C146.031 825.585 148.091 829.71 149.125 832.804H149.124Z" fill="#4B587C"/>
<path d="M24.3715 764.759C27.4658 773.008 33.6513 786.409 42.9312 799.814C52.211 813.218 64.5813 827.649 79.0162 836.929C93.451 846.209 106.851 849.299 117.161 849.299C127.471 849.299 135.721 847.239 140.876 846.205C141.907 846.205 142.937 845.174 142.937 843.11C142.937 842.08 142.937 841.05 141.907 838.986V837.955C139.846 834.861 136.752 831.77 133.657 826.615C129.532 822.491 126.442 817.335 121.287 811.15C116.132 805.995 112.007 799.81 105.822 794.655C100.667 789.5 94.4817 783.315 88.2966 778.16C63.5517 758.57 38.8068 754.445 29.5313 754.445C28.501 754.445 27.4707 755.476 27.4707 756.506C23.3426 760.637 23.3426 762.698 24.3729 764.759L24.3715 764.759Z" fill="#4B587C"/>
<path d="M231.603 930.745C232.634 931.775 234.698 932.805 235.728 932.805C236.758 932.805 238.822 932.805 238.822 931.775C240.883 927.65 245.008 918.37 247.072 908.06C249.132 896.72 251.197 883.315 249.132 868.881C248.102 854.446 242.947 840.011 238.822 828.671C237.792 825.576 236.762 823.516 235.728 820.421C234.698 817.327 233.667 815.266 232.634 813.206C230.573 809.081 228.509 804.956 227.479 802.896V801.865C226.448 800.835 226.448 799.805 224.384 799.805C223.354 799.805 222.324 799.805 221.29 800.835C214.074 808.051 195.515 827.64 196.545 858.57C196.545 862.695 197.575 866.82 197.575 869.91C198.606 874.035 199.636 877.126 200.67 881.25C202.73 888.466 206.855 895.685 209.95 902.901C213.044 909.086 217.165 915.271 221.29 920.426C225.414 923.524 229.539 927.648 231.603 930.743L231.603 930.745Z" fill="#4B587C"/>
<path d="M80.0456 899.814C83.14 903.939 87.2612 908.064 92.4159 913.219L100.665 921.468C103.76 924.563 106.851 927.654 110.975 929.718C125.41 941.058 142.935 951.368 160.465 956.523C177.99 960.647 193.455 959.617 204.8 956.523C216.14 953.428 223.359 948.273 227.48 945.183C228.51 944.152 228.51 943.122 228.51 942.088C228.51 941.058 227.48 940.028 226.45 938.994L225.419 937.964C222.325 935.903 218.204 932.809 213.049 929.714C207.894 926.62 201.709 922.499 194.489 918.374C188.304 914.249 180.055 910.125 172.839 906.004C168.715 903.943 164.59 901.879 161.499 900.849C157.374 898.788 153.25 897.754 149.129 895.694C145.004 894.663 140.879 892.599 136.759 891.569C132.634 890.539 129.543 889.508 125.418 888.475C118.203 887.444 110.984 886.414 105.829 886.414C93.4582 886.414 85.2085 888.475 80.0535 889.508C79.0232 889.508 77.9929 891.569 77.9929 892.603C77.9862 895.69 77.9862 897.751 80.0468 899.815L80.0456 899.814Z" fill="#4B587C"/>
<path d="M343.983 997.759C346.043 998.789 347.077 998.79 349.138 998.79C351.198 998.79 351.198 997.759 352.232 995.695C353.262 990.54 353.262 980.23 352.232 967.86C351.202 955.49 347.077 942.085 340.892 927.65C337.797 920.434 333.676 914.245 329.552 908.06C327.491 904.966 325.427 901.875 323.366 898.78C321.306 895.686 319.242 893.625 317.181 890.531C308.932 880.221 301.716 871.971 297.591 867.851H296.561C295.531 866.82 294.5 866.82 293.467 866.82C292.436 866.82 291.406 867.851 290.372 868.881C287.278 874.036 283.157 882.286 281.092 893.626C279.032 904.966 277.998 919.401 284.187 935.896C287.281 943.112 291.402 951.361 296.557 958.576C298.618 961.671 301.712 965.792 304.806 968.886C307.901 971.981 310.992 975.072 313.056 977.136C325.426 987.449 337.797 994.664 343.983 997.759Z" fill="#4B587C"/>
<path d="M345.011 1011.16C343.981 1010.13 342.951 1009.1 341.917 1008.07H340.887C332.637 1006.01 319.237 1001.88 302.742 998.789C298.617 997.759 294.492 996.729 290.371 996.729C285.213 994.668 280.058 994.668 275.933 993.638C266.653 992.607 257.373 990.543 248.098 990.543C229.538 989.513 213.043 992.604 200.673 996.729C188.302 1000.85 179.022 1006.01 174.898 1009.1C173.867 1010.13 173.867 1011.16 173.867 1013.22C174.898 1015.28 175.928 1016.32 177.992 1018.38C186.241 1023.53 201.707 1032.81 220.262 1040.03C225.417 1042.09 229.542 1043.12 234.697 1045.18C239.852 1046.21 245.007 1047.24 250.162 1048.28C260.472 1050.34 270.782 1051.37 281.092 1050.34C300.682 1049.31 316.147 1042.09 326.457 1034.87C336.767 1027.66 342.952 1019.41 346.047 1015.28C346.043 1013.23 346.043 1012.19 345.013 1011.16L345.011 1011.16Z" fill="#4B587C"/>
<path d="M480.073 1024.57C482.134 1024.57 484.198 1024.57 485.228 1023.54C486.258 1022.51 487.289 1021.48 487.289 1020.45C486.258 1014.26 483.164 1003.95 476.979 992.611C470.793 981.271 462.544 967.866 451.204 956.526C445.018 950.341 438.833 945.186 432.644 940.031C426.459 934.876 420.274 930.751 414.084 927.66C407.899 923.536 402.744 920.445 398.619 918.381C394.495 915.286 390.37 913.226 387.279 912.195H386.249H383.154C382.124 912.195 381.094 914.256 381.094 915.29C380.063 921.475 379.033 931.785 380.063 944.159C381.094 950.345 382.124 957.564 385.218 964.779C388.313 971.995 392.434 979.214 397.589 986.43C400.683 989.524 403.774 992.615 406.869 995.709C408.929 996.74 409.963 998.804 412.024 999.834C414.084 1000.86 416.148 1002.93 417.179 1003.96C421.303 1006.02 424.394 1009.11 428.519 1011.17C432.643 1013.23 436.768 1015.3 440.889 1016.33C456.357 1020.45 471.822 1023.54 480.071 1024.57L480.073 1024.57Z" fill="#4B587C"/>
<path d="M481.106 1034.88H480.075C471.826 1035.91 456.361 1036.94 437.805 1040.03C433.68 1041.06 428.525 1041.06 423.37 1042.09C418.215 1043.12 414.09 1043.12 408.935 1044.15C403.78 1045.18 398.625 1046.21 394.501 1047.25C389.346 1048.28 384.191 1049.31 380.066 1051.37C370.786 1054.46 361.506 1057.56 354.291 1061.68C347.075 1065.81 339.856 1069.93 334.701 1074.05C323.361 1082.3 316.141 1090.55 312.021 1094.67C310.99 1095.7 310.99 1097.77 313.051 1098.8C314.081 1100.86 316.145 1101.89 319.236 1101.89C324.391 1102.92 331.606 1104.98 340.886 1106.01C350.166 1107.04 359.446 1109.11 370.786 1109.11H387.281C392.436 1109.11 398.621 1108.08 403.776 1107.05C415.117 1106.02 425.427 1101.89 435.737 1097.77C455.326 1089.52 467.697 1077.15 475.946 1065.81C484.196 1054.47 487.287 1044.16 488.317 1039C488.317 1037.97 488.317 1035.91 486.256 1034.88C484.199 1035.91 482.135 1034.88 481.104 1034.88L481.106 1034.88Z" fill="#4B587C"/>
<path d="M247.689 210.949C244.529 213.6 239.129 216.787 233.471 222.879C230.311 225.53 227.814 228.971 225.319 232.409C222.822 235.849 219.535 239.952 217.702 244.185C215.867 248.415 213.245 253.31 212.202 256.875C211.286 258.988 210.367 261.104 210.242 262.559C209.326 264.672 209.86 266.918 208.944 269.032C207.52 276.957 207.673 283.557 207.292 287.917C207.165 289.368 207.827 290.158 208.492 290.95C209.943 291.077 210.733 290.414 211.524 289.75C214.684 287.098 218.76 282.333 223.753 275.449C225.332 274.125 226.25 272.009 227.04 271.347C228.618 270.022 229.537 267.906 231.116 266.581C233.613 263.141 236.111 259.7 237.941 255.47C239.776 251.24 241.609 247.008 243.441 242.781C245.276 238.551 246.317 234.983 247.363 231.415C249.45 224.28 250.747 217.807 251.131 213.45C251.258 211.998 251.385 210.547 249.932 210.417C250.059 208.961 249.267 209.624 247.689 210.949Z" fill="#4B587C"/>
<path d="M2284.45 312.608C2285.47 313.634 2286.5 313.634 2286.5 314.659V316.71C2284.45 317.735 2281.37 320.814 2277.26 322.865C2275.21 323.89 2272.13 324.915 2269.05 325.944C2265.97 326.969 2262.9 326.969 2259.82 326.969C2245.45 327.995 2232.12 321.839 2225.96 320.814C2224.93 320.814 2224.93 319.789 2223.91 318.764V316.713C2224.93 314.662 2228.01 311.583 2232.12 309.532C2236.22 306.453 2242.38 304.403 2249.56 303.377C2262.9 302.349 2279.32 309.532 2284.45 312.609L2284.45 312.608Z" fill="#4B587C"/>
<path d="M2291.16 310.221C2288.09 303.646 2279.42 288.479 2277.58 272.525C2277.15 264.724 2277.33 258.235 2279.08 253.415C2280.84 248.594 2282.24 244.737 2283.9 243.161C2284.25 242.198 2285.22 242.548 2286.18 242.899C2287.14 243.25 2288.11 243.6 2288.72 244.916C2293.46 249.914 2303.36 267.709 2304.58 282.349C2305.45 285.944 2305.01 290.15 2303.96 293.044C2303.87 296.288 2302.82 299.178 2300.8 301.722C2299.05 306.542 2295.72 309.698 2295.02 311.625C2294.67 312.588 2293.7 312.237 2292.74 311.887C2292.74 311.887 2291.77 311.535 2291.16 310.221Z" fill="#4B587C"/>
<path d="M2317.02 363.865C2318.05 364.891 2319.08 365.916 2319.08 366.945C2319.08 367.97 2319.08 368.995 2318.05 368.995C2312.92 372.075 2300.61 377.204 2284.19 375.15C2275.98 374.125 2267.78 371.046 2261.62 367.97C2255.47 364.891 2250.34 361.815 2247.26 359.761C2246.23 359.761 2246.23 358.735 2246.23 357.71C2246.23 356.685 2246.23 355.659 2247.26 355.659C2251.36 352.58 2262.65 343.349 2279.06 345.4C2283.17 345.4 2287.27 346.425 2291.37 348.479C2295.48 349.504 2299.58 351.558 2302.66 353.609C2308.82 357.71 2313.95 361.815 2317.02 363.865Z" fill="#4B587C"/>
<path d="M2333.64 288.945C2335.48 292.891 2338.19 300.43 2340.56 308.932C2342.92 317.434 2344.94 326.903 2343.7 336.282C2341.24 355.041 2331.25 364.504 2326.95 367.308C2326.6 368.271 2325.64 367.92 2324.67 367.57C2323.71 367.219 2323.1 365.905 2323.1 365.905C2322.22 362.31 2319.51 354.771 2318.11 346.62C2317.59 342.062 2316.71 338.469 2316.18 333.911C2315.66 329.352 2315.13 324.793 2315.57 320.588C2316.72 302.446 2325.14 291.314 2328.82 287.195C2329.17 286.232 2330.13 286.582 2331.1 286.933C2332.41 286.316 2333.02 287.63 2333.64 288.945L2333.64 288.945Z" fill="#4B587C"/>
<path d="M2359.37 431.582C2360.39 432.608 2360.39 433.633 2360.39 434.662C2360.39 435.687 2359.37 436.712 2359.37 436.712C2356.29 437.738 2351.16 438.763 2343.98 438.763C2340.9 438.763 2336.8 438.763 2332.69 437.738C2328.59 436.712 2324.48 435.687 2320.38 434.658C2311.15 431.579 2302.94 426.449 2296.78 422.348C2289.6 418.244 2284.47 413.113 2281.39 411.063C2280.37 410.038 2280.37 409.013 2280.37 409.013C2280.37 407.987 2280.37 406.962 2281.39 406.962C2286.52 403.883 2300.89 397.727 2320.38 402.857C2329.62 405.937 2337.82 411.067 2345.01 417.222C2347.06 418.247 2348.09 420.301 2350.14 421.327C2351.16 422.352 2353.22 424.406 2354.24 425.431C2356.29 427.479 2358.34 429.533 2359.37 431.583L2359.37 431.582Z" fill="#4B587C"/>
<path d="M2375.35 337.361C2377.67 341.938 2381.3 350.91 2383.73 360.716C2386.17 370.523 2387.24 382.171 2386.29 393.463C2385.4 398.515 2384.51 403.567 2382.79 407.432C2381.07 411.296 2379.34 415.16 2376.79 417.832C2372.69 423.359 2367.93 426.689 2365.56 428.352C2364.37 429.184 2363.36 429.005 2362.52 427.817C2361.51 427.639 2360.68 426.451 2360.86 425.442L2361.04 424.432C2360.38 422.234 2359.91 419.024 2358.42 415.635C2357.77 413.437 2358.12 411.414 2357.47 409.217C2356.82 407.019 2356.16 404.818 2356.52 402.799C2355.09 393.17 2353.84 382.532 2354.62 372.25C2356.16 351.686 2365.72 338.786 2369.65 334.269C2369.83 333.259 2370.84 333.437 2372.86 333.794C2373.68 334.98 2374.52 336.172 2375.35 337.36L2375.35 337.361Z" fill="#4B587C"/>
<path d="M2383.43 519.821C2384.45 520.847 2384.45 522.901 2383.43 523.926C2383.43 524.951 2382.4 525.977 2381.38 525.977C2378.3 525.977 2371.12 525.977 2363.94 523.926C2359.83 522.901 2355.73 521.876 2351.63 519.821C2347.52 517.771 2343.42 515.717 2338.29 512.641C2334.18 509.562 2330.08 506.486 2325.98 503.406L2320.85 498.276C2319.82 497.251 2318.8 496.226 2318.8 495.197C2317.77 494.172 2316.75 493.146 2316.75 493.146C2310.59 486.991 2306.49 480.836 2303.41 476.731V475.706C2303.41 474.681 2302.38 473.656 2303.41 472.627C2303.41 471.602 2304.43 470.576 2305.46 470.576C2312.64 468.526 2329.06 464.421 2348.55 475.706C2367.01 486.991 2380.35 509.562 2383.43 519.821Z" fill="#4B587C"/>
<path d="M2415.23 418.246C2417.28 423.376 2420.36 433.636 2423.44 444.921C2423.44 445.946 2424.46 448 2424.46 449.026C2424.46 450.051 2424.46 452.105 2425.49 453.13V463.387C2425.49 469.542 2425.49 475.697 2424.46 481.856C2423.44 488.011 2421.39 493.141 2419.33 497.246C2417.28 501.35 2414.2 505.455 2412.15 508.531C2407.02 514.686 2401.89 517.766 2398.81 519.816H2395.74C2394.71 518.791 2394.71 517.765 2393.68 516.737V515.711C2392.66 505.451 2387.53 479.802 2390.61 456.202C2393.68 432.603 2404.97 418.243 2410.1 413.113C2411.13 412.087 2412.15 412.087 2413.18 413.113C2414.2 415.167 2415.23 416.192 2415.23 418.246Z" fill="#4B587C"/>
<path d="M2383.92 617.29C2383.92 618.316 2383.92 620.37 2382.9 621.395C2381.87 622.42 2380.84 623.446 2379.82 622.42C2375.71 621.395 2369.56 619.341 2361.35 616.265C2357.24 614.214 2353.14 612.16 2349.04 609.085C2346.99 608.059 2344.93 606.005 2342.88 603.955C2340.83 601.904 2338.78 599.85 2336.73 597.799C2332.62 593.695 2329.55 589.59 2326.47 584.46C2325.44 582.409 2323.39 580.355 2322.36 577.279C2321.34 575.229 2319.28 573.175 2318.26 571.124C2313.13 562.915 2310.05 554.709 2309.02 550.604V549.579V546.5C2309.02 545.475 2310.05 544.449 2311.07 544.449C2315.18 544.449 2322.36 544.449 2330.57 546.5C2338.78 548.55 2348.01 552.655 2357.24 560.864C2375.71 577.279 2382.9 606.005 2383.92 617.29Z" fill="#4B587C"/>
<path d="M2444.46 515.715C2445.48 521.87 2446.51 534.185 2446.51 547.52C2446.51 550.599 2446.51 554.7 2445.48 557.78C2444.46 560.859 2444.46 564.96 2443.43 568.039C2442.41 575.22 2439.33 581.379 2437.28 587.534C2436.25 590.613 2434.2 593.689 2433.17 595.743C2431.12 598.823 2429.07 600.873 2428.04 602.924C2423.94 607.028 2420.86 610.104 2416.76 613.184C2409.58 618.314 2402.39 620.364 2399.32 621.393C2398.29 621.393 2397.27 621.393 2396.24 620.368C2395.21 619.342 2395.21 618.317 2395.21 617.288V616.263C2396.24 604.978 2398.29 575.224 2407.52 551.624C2411.63 539.314 2418.81 530.079 2424.96 522.895C2430.09 516.74 2436.25 512.635 2439.33 510.585C2440.35 509.56 2441.38 510.585 2442.41 511.61C2443.43 512.635 2444.46 513.661 2444.46 515.715Z" fill="#4B587C"/>
<path d="M2373.66 726.04C2373.66 728.091 2372.64 729.12 2371.61 730.145C2370.59 731.17 2369.56 731.17 2368.53 731.17C2364.43 729.12 2358.27 725.015 2351.09 718.86C2343.91 712.705 2336.73 703.47 2330.57 693.211C2327.49 688.081 2325.44 681.926 2323.39 675.771C2322.37 672.691 2321.34 670.641 2321.34 667.561C2320.32 664.482 2319.29 662.431 2319.29 659.352C2317.24 649.092 2315.19 639.858 2315.19 634.728V633.702C2315.19 632.677 2315.19 631.652 2316.21 630.623C2317.24 629.598 2318.26 629.598 2319.29 629.598C2327.5 631.648 2349.05 636.778 2363.41 659.352C2370.59 670.637 2373.67 683.977 2375.72 696.287C2376.75 702.442 2376.75 708.597 2376.75 713.727C2374.69 718.857 2373.66 722.962 2373.66 726.04Z" fill="#4B587C"/>
<path d="M2466 634.731C2464.97 641.912 2463.95 655.251 2458.82 669.615C2457.79 672.695 2456.77 676.796 2454.71 680.9C2453.69 685.005 2451.64 688.081 2449.58 691.16C2446.51 698.341 2442.4 704.5 2437.27 710.655C2427.01 721.94 2416.75 728.095 2407.52 731.174C2398.29 734.254 2391.11 735.279 2385.98 735.279C2384.95 735.279 2383.92 734.254 2383.92 733.228V729.124V728.099C2389.05 716.81 2399.31 686.031 2415.73 662.431C2432.14 638.832 2453.69 629.601 2461.9 627.547C2462.92 627.547 2463.95 627.547 2464.97 629.597C2466 630.626 2466 632.677 2466 634.731Z" fill="#4B587C"/>
<path d="M2329.54 833.772C2328.52 835.822 2327.49 836.851 2326.47 836.851C2325.44 837.876 2323.39 836.851 2323.39 836.851C2320.31 833.772 2314.15 827.616 2309.02 818.382C2303.89 809.147 2298.76 797.862 2295.68 784.522C2292.6 771.183 2292.6 757.848 2293.63 746.563C2293.63 735.278 2295.68 726.043 2295.68 719.888V718.863C2295.68 717.837 2296.71 716.812 2297.73 716.812C2298.76 715.787 2299.78 715.787 2300.81 716.812C2309.02 720.917 2330.57 733.227 2338.77 760.931C2340.82 768.112 2341.85 775.296 2341.85 782.476C2341.85 789.656 2340.83 796.84 2339.8 804.021C2338.78 810.176 2336.72 817.36 2334.67 822.49C2332.62 826.588 2330.57 830.693 2329.54 833.772H2329.54Z" fill="#4B587C"/>
<path d="M2453.69 766.06C2450.61 774.27 2444.45 787.605 2435.22 800.945C2425.98 814.284 2413.67 828.645 2399.31 837.879C2384.94 847.114 2371.61 850.189 2361.35 850.189C2351.09 850.189 2342.88 848.139 2337.75 847.11C2336.72 847.11 2335.7 846.085 2335.7 844.031C2335.7 843.005 2335.7 841.98 2336.72 839.926V838.901C2338.78 835.821 2341.85 832.746 2344.93 827.616C2349.04 823.511 2352.11 818.381 2357.24 812.226C2362.37 807.096 2366.48 800.941 2372.63 795.811C2377.76 790.681 2383.92 784.526 2390.07 779.396C2414.7 759.902 2439.32 755.797 2448.55 755.797C2449.58 755.797 2450.6 756.822 2450.6 757.847C2454.71 761.959 2454.71 764.009 2453.69 766.06L2453.69 766.06Z" fill="#4B587C"/>
<path d="M2247.46 931.233C2246.44 932.258 2244.38 933.283 2243.36 933.283C2242.33 933.283 2240.28 933.283 2240.28 932.258C2238.23 928.153 2234.12 918.918 2232.07 908.659C2230.02 897.374 2227.97 884.034 2230.02 869.669C2231.05 855.305 2236.18 840.94 2240.28 829.655C2241.31 826.576 2242.33 824.525 2243.36 821.446C2244.38 818.367 2245.41 816.316 2246.44 814.265C2248.49 810.161 2250.54 806.056 2251.57 804.006V802.98C2252.59 801.955 2252.59 800.93 2254.65 800.93C2255.67 800.93 2256.7 800.93 2257.73 801.955C2264.91 809.136 2283.38 828.63 2282.35 859.409C2282.35 863.514 2281.33 867.619 2281.33 870.694C2280.3 874.799 2279.28 877.875 2278.25 881.979C2276.2 889.16 2272.09 896.344 2269.01 903.524C2265.93 909.679 2261.83 915.834 2257.73 920.964C2253.62 924.047 2249.52 928.151 2247.46 931.231L2247.46 931.233Z" fill="#4B587C"/>
<path d="M2398.28 900.46C2395.2 904.564 2391.1 908.669 2385.97 913.799L2377.76 922.009C2374.69 925.088 2371.61 928.164 2367.5 930.218C2353.14 941.503 2335.7 951.763 2318.26 956.893C2300.82 960.997 2285.43 959.972 2274.14 956.893C2262.85 953.813 2255.67 948.683 2251.57 945.608C2250.54 944.582 2250.54 943.557 2250.54 942.528C2250.54 941.503 2251.57 940.478 2252.59 939.449L2253.62 938.424C2256.7 936.373 2260.8 933.294 2265.93 930.214C2271.06 927.135 2277.21 923.034 2284.4 918.929C2290.55 914.825 2298.76 910.72 2305.94 906.619C2310.05 904.569 2314.15 902.515 2317.23 901.489C2321.33 899.439 2325.44 898.41 2329.54 896.36C2333.64 895.334 2337.75 893.28 2341.85 892.255C2345.95 891.23 2349.03 890.204 2353.13 889.176C2360.31 888.15 2367.5 887.125 2372.63 887.125C2384.94 887.125 2393.15 889.176 2398.28 890.204C2399.3 890.204 2400.33 892.255 2400.33 893.284C2400.33 896.356 2400.33 898.407 2398.28 900.461L2398.28 900.46Z" fill="#4B587C"/>
<path d="M2135.63 997.927C2133.58 998.952 2132.55 998.952 2130.5 998.952C2128.45 998.952 2128.45 997.927 2127.42 995.873C2126.4 990.743 2126.4 980.483 2127.42 968.173C2128.45 955.863 2132.55 942.523 2138.71 928.159C2141.79 920.978 2145.89 914.819 2149.99 908.664C2152.04 905.585 2154.1 902.509 2156.15 899.429C2158.2 896.35 2160.25 894.3 2162.3 891.22C2170.51 880.96 2177.69 872.751 2181.8 868.65H2182.82C2183.85 867.625 2184.87 867.625 2185.9 867.625C2186.93 867.625 2187.95 868.65 2188.98 869.676C2192.06 874.806 2196.16 883.015 2198.22 894.3C2200.27 905.585 2201.3 919.95 2195.14 936.365C2192.06 943.545 2187.96 951.754 2182.83 958.935C2180.78 962.014 2177.7 966.115 2174.62 969.194C2171.54 972.274 2168.46 975.35 2166.41 977.404C2154.1 987.667 2141.79 994.847 2135.63 997.927Z" fill="#4B587C"/>
<path d="M2134.61 1011.27C2135.63 1010.24 2136.66 1009.22 2137.69 1008.19H2138.71C2146.92 1006.14 2160.26 1002.03 2176.67 998.955C2180.78 997.93 2184.88 996.905 2188.98 996.905C2194.12 994.854 2199.25 994.854 2203.35 993.829C2212.59 992.803 2221.82 990.749 2231.05 990.749C2249.52 989.724 2265.93 992.8 2278.24 996.905C2290.56 1001.01 2299.79 1006.14 2303.89 1009.21C2304.92 1010.24 2304.92 1011.27 2304.92 1013.32C2303.89 1015.37 2302.87 1016.4 2300.82 1018.45C2292.61 1023.58 2277.22 1032.81 2258.75 1039.99C2253.62 1042.04 2249.52 1043.07 2244.39 1045.12C2239.26 1046.15 2234.13 1047.17 2229 1048.2C2218.74 1050.25 2208.48 1051.28 2198.22 1050.25C2178.72 1049.23 2163.33 1042.04 2153.07 1034.86C2142.81 1027.68 2136.66 1019.47 2133.58 1015.37C2133.58 1013.32 2133.58 1012.29 2134.61 1011.27L2134.61 1011.27Z" fill="#4B587C"/>
<path d="M2000.21 1024.61C1998.15 1024.61 1996.1 1024.61 1995.08 1023.58C1994.05 1022.56 1993.02 1021.53 1993.02 1020.5C1994.05 1014.35 1997.13 1004.09 2003.28 992.802C2009.44 981.517 2017.65 968.177 2028.93 956.892C2035.09 950.737 2041.24 945.607 2047.4 940.477C2053.56 935.347 2059.71 931.243 2065.87 928.167C2072.03 924.063 2077.16 920.987 2081.26 918.933C2085.37 915.853 2089.47 913.803 2092.55 912.777H2093.57H2096.65C2097.68 912.777 2098.7 914.828 2098.7 915.857C2099.73 922.012 2100.75 932.272 2099.73 944.586C2098.7 950.741 2097.68 957.925 2094.6 965.106C2091.52 972.286 2087.42 979.47 2082.29 986.65C2079.21 989.73 2076.13 992.806 2073.05 995.885C2071 996.91 2069.97 998.965 2067.92 999.99C2065.87 1001.02 2063.82 1003.07 2062.79 1004.09C2058.69 1006.15 2055.61 1009.22 2051.51 1011.27C2047.4 1013.33 2043.3 1015.38 2039.2 1016.4C2023.81 1020.5 2008.42 1023.58 2000.21 1024.61L2000.21 1024.61Z" fill="#4B587C"/>
<path d="M1999.17 1034.86H2000.2C2008.41 1035.89 2023.8 1036.91 2042.26 1039.99C2046.37 1041.02 2051.5 1041.02 2056.63 1042.04C2061.76 1043.07 2065.86 1043.07 2070.99 1044.09C2076.12 1045.12 2081.25 1046.15 2085.36 1047.17C2090.49 1048.2 2095.62 1049.22 2099.72 1051.28C2108.96 1054.36 2118.19 1057.43 2125.37 1061.54C2132.55 1065.64 2139.74 1069.75 2144.87 1073.85C2156.15 1082.06 2163.34 1090.26 2167.44 1094.37C2168.46 1095.39 2168.46 1097.45 2166.41 1098.47C2165.39 1100.52 2163.33 1101.55 2160.26 1101.55C2155.13 1102.58 2147.95 1104.63 2138.71 1105.66C2129.48 1106.68 2120.24 1108.74 2108.96 1108.74H2092.54C2087.41 1108.74 2081.26 1107.71 2076.13 1106.69C2064.84 1105.66 2054.58 1101.56 2044.32 1097.45C2024.83 1089.24 2012.52 1076.93 2004.31 1065.65C1996.1 1054.36 1993.02 1044.1 1992 1038.97C1992 1037.95 1992 1035.89 1994.05 1034.87C1996.1 1035.89 1998.15 1034.86 1999.18 1034.86L1999.17 1034.86Z" fill="#4B587C"/>
<path d="M2231.46 214.94C2234.6 217.578 2239.97 220.75 2245.6 226.812C2248.75 229.45 2251.23 232.874 2253.72 236.296C2256.2 239.719 2259.47 243.802 2261.3 248.014C2263.12 252.224 2265.73 257.095 2266.77 260.642C2267.68 262.746 2268.6 264.852 2268.72 266.299C2269.63 268.402 2269.1 270.637 2270.01 272.741C2271.43 280.627 2271.28 287.195 2271.66 291.534C2271.78 292.978 2271.12 293.764 2270.46 294.552C2269.02 294.678 2268.23 294.019 2267.44 293.358C2264.3 290.719 2260.24 285.977 2255.28 279.127C2253.7 277.809 2252.79 275.703 2252 275.044C2250.43 273.726 2249.52 271.62 2247.95 270.302C2245.46 266.878 2242.98 263.454 2241.16 259.245C2239.33 255.036 2237.51 250.824 2235.68 246.617C2233.86 242.408 2232.82 238.857 2231.78 235.307C2229.7 228.206 2228.41 221.764 2228.03 217.429C2227.9 215.984 2227.78 214.54 2229.22 214.411C2229.1 212.962 2229.89 213.622 2231.46 214.94Z" fill="#4B587C"/>
</svg>
