<?xml version="1.0" encoding="UTF-8"?>
<svg version="1.1" xmlns="http://www.w3.org/2000/svg" width="1012" height="256">
<path d="M0 0 C2.76261351 2.1706249 5.14359586 4.58109586 7.625 7.0625 C8.285 7.0625 8.945 7.0625 9.625 7.0625 C10.7550308 5.89822584 11.88456165 4.73346272 13.01171875 3.56640625 C21.82366309 -4.64811814 30.87343341 -6.45837925 42.6796875 -6.18359375 C53.55797213 -5.50504728 62.05601199 -1.05649447 69.4375 6.9375 C79.81254575 19.54606254 79.77847627 34.37720389 79.72265625 49.9375 C79.72078836 51.47306268 79.71936621 53.00862596 79.71836853 54.54418945 C79.71457256 58.56200847 79.7047676 62.57979064 79.69366455 66.59759521 C79.68338726 70.70698549 79.67885744 74.81638179 79.67382812 78.92578125 C79.66314238 86.97137286 79.64556963 95.01692758 79.625 103.0625 C72.695 103.0625 65.765 103.0625 58.625 103.0625 C58.60518066 101.11553223 58.58536133 99.16856445 58.56494141 97.16259766 C58.49689744 90.69650104 58.42010278 84.23055351 58.33747292 77.76462746 C58.28773826 73.84816587 58.24140825 69.93172831 58.203125 66.01513672 C58.16598119 62.22838695 58.11954677 58.44185022 58.06693649 54.65528488 C58.04854576 53.21780548 58.03338267 51.78028069 58.02165604 50.34273148 C58.2232215 34.71201014 58.2232215 34.71201014 51.625 21.0625 C46.61765215 16.54367389 42.77403686 15.70453018 36.1953125 15.78125 C31.06112742 16.34304533 27.85430679 18.7667442 24.3125 22.5 C20.10704726 28.88605786 19.51898632 35.37496408 19.41967773 42.89404297 C19.40977814 43.54840836 19.39987854 44.20277374 19.38967896 44.87696838 C19.35833027 47.01950582 19.33341308 49.16206535 19.30859375 51.3046875 C19.28800115 52.79827418 19.2670041 54.29185534 19.24562073 55.78543091 C19.190638 59.70128888 19.1411246 63.61719737 19.09277344 67.53314209 C19.04238374 71.53516085 18.9867892 75.53710699 18.93164062 79.5390625 C18.82435049 87.38014838 18.72332329 95.22129655 18.625 103.0625 C11.695 103.0625 4.765 103.0625 -2.375 103.0625 C-2.38958252 100.92330078 -2.40416504 98.78410156 -2.41918945 96.58007812 C-2.46965472 89.49127352 -2.53627052 82.40268583 -2.61071491 75.31409454 C-2.65533421 71.01866045 -2.69460862 66.72331936 -2.72143555 62.42773438 C-2.74755317 58.27783603 -2.7880145 54.1282972 -2.83818626 49.97862244 C-2.85479803 48.39994295 -2.86634761 46.82120135 -2.87261391 45.2424469 C-2.59945489 32.32695755 -2.59945489 32.32695755 -8.09375 21.00390625 C-8.97546875 20.32134766 -8.97546875 20.32134766 -9.875 19.625 C-10.4628125 19.15191406 -11.050625 18.67882812 -11.65625 18.19140625 C-16.12902996 15.25360305 -21.23619569 15.62891339 -26.375 16.0625 C-32.01715503 17.97870359 -35.61686851 21.52869576 -38.23908997 26.79930115 C-41.09724338 34.34449753 -40.85363885 42.08630629 -40.88671875 50.03515625 C-40.90359116 51.56930454 -40.9217448 53.10343922 -40.94111633 54.63755798 C-40.98834481 58.64708197 -41.01832879 62.65655076 -41.04455566 66.66625977 C-41.07449934 70.7691538 -41.12098172 74.87185814 -41.16601562 78.97460938 C-41.25173938 87.00382809 -41.3176896 95.03302816 -41.375 103.0625 C-48.305 103.0625 -55.235 103.0625 -62.375 103.0625 C-62.42034248 93.97796068 -62.45696862 84.8934976 -62.47862434 75.80887032 C-62.48902257 71.58965953 -62.50310865 67.37053078 -62.52587891 63.15136719 C-62.54774953 59.07296833 -62.55959835 54.99464794 -62.56475449 50.91619492 C-62.56842489 49.36702109 -62.57559163 47.81785114 -62.58646011 46.26871109 C-62.69372808 30.3327793 -61.35354706 16.33528936 -49.875 4.328125 C-35.56651 -8.63894406 -16.33396705 -9.37690701 0 0 Z " fill="#FFFFFF" transform="translate(694.375,92.9375)"/>
<path d="M0 0 C12.94678183 10.34712981 18.85303261 25.46986199 20.65234375 41.4453125 C20.88923852 46.10168892 20.88770149 50.74094089 20.84765625 55.40234375 C20.84482635 56.67132004 20.84199646 57.94029633 20.83908081 59.24772644 C20.82987362 62.57345727 20.81200008 65.89889714 20.78967285 69.22454834 C20.76897893 72.63730394 20.76002949 76.05008997 20.75 79.46289062 C20.72809687 86.12378641 20.69365007 92.78450993 20.65234375 99.4453125 C13.39234375 99.4453125 6.13234375 99.4453125 -1.34765625 99.4453125 C-1.84265625 92.0203125 -1.84265625 92.0203125 -2.34765625 84.4453125 C-3.75015625 85.8271875 -5.15265625 87.2090625 -6.59765625 88.6328125 C-15.67834459 96.83514123 -26.00793933 99.80364236 -38.03515625 99.65625 C-54.48926786 98.60846459 -67.38391765 91.32930702 -78.34765625 79.4453125 C-88.68672998 66.23737868 -91.39723508 51.81485498 -90.34765625 35.4453125 C-88.19266616 20.7804223 -79.88784492 8.24540169 -68.41015625 -0.8671875 C-46.70950951 -15.98929172 -21.56043988 -14.27796185 0 0 Z M-63.83984375 24.1953125 C-69.2124666 32.21249064 -70.52396369 40.96427456 -69.34765625 50.4453125 C-66.73406895 60.12625322 -61.43742746 67.57737986 -53.34765625 73.4453125 C-43.9475372 78.64671171 -35.27324987 79.71240866 -24.91015625 76.8828125 C-15.2567986 73.67619948 -9.54530108 68.77279643 -4.5390625 59.97265625 C-0.58978766 51.59501421 0.09721976 42.57782604 -2.03515625 33.52734375 C-5.56941484 24.02902379 -11.32661783 17.11588239 -20.34765625 12.4453125 C-36.51995265 5.70685567 -52.84658214 10.69660987 -63.83984375 24.1953125 Z " fill="#FFFFFF" transform="translate(928.34765625,97.5546875)"/>
<path d="M0 0 C12.64298072 9.61808419 21.61516237 22.06767344 24 38 C24.26440245 42.96006902 24.23395535 47.91371033 24.1953125 52.87890625 C24.1915749 54.30093689 24.18873146 55.72297012 24.18673706 57.14500427 C24.17915931 60.85872713 24.15956239 64.57228954 24.1373291 68.28594971 C24.11674326 72.08709545 24.10770831 75.88826752 24.09765625 79.68945312 C24.07630993 87.12638314 24.04117683 94.5631485 24 102 C17.07 102 10.14 102 3 102 C2.67 96.72 2.34 91.44 2 86 C-0.475 88.97 -0.475 88.97 -3 92 C-13.06705656 100.07559833 -24.19748531 103.33327964 -37 102 C-54.18765389 99.1037855 -67.21951537 91.55519079 -77.87890625 77.52734375 C-86.73225378 63.88120658 -88.04017421 47.90302826 -85.33984375 32.1484375 C-81.38935371 17.81722256 -71.82785949 6.06644364 -59.375 -1.875 C-40.47823699 -12.14920405 -18.23731578 -11.46702458 0 0 Z M-57.75 24.75 C-64.23585918 32.63098679 -65.69469073 40.26361618 -65.37890625 50.37890625 C-64.24033019 61.25993726 -58.44763099 68.47554137 -50.25 75.3125 C-43.48192006 80.12623127 -35.16997093 81.77809247 -27 81 C-17.03272708 79.05199878 -8.92843283 74.1339245 -2.5078125 66.25 C2.89283756 58.19099887 4.10412101 49.51868534 3 40 C1.22950742 31.24133805 -3.21188146 24.74379261 -10 19 C-27.04096253 8.36021121 -43.91750197 10.24346076 -57.75 24.75 Z " fill="#FFFFFF" transform="translate(580,95)"/>
<path d="M0 0 C-1.57013777 5.96652354 -4.75029782 10.82909025 -8 16 C-8.556875 15.68546875 -9.11375 15.3709375 -9.6875 15.046875 C-12.11759089 13.68405376 -14.55639725 12.33843656 -17 11 C-17.66902344 10.63132812 -18.33804688 10.26265625 -19.02734375 9.8828125 C-30.9559323 3.58920136 -44.71827813 1.01248041 -57.92578125 4.30859375 C-62.18272664 5.72757555 -65.0822182 7.90458301 -67.9375 11.3125 C-69.42027428 15.06304671 -69.16843593 17.1510346 -68 21 C-61.20882359 28.92303915 -49.12350499 30.98397417 -39.50585938 33.84716797 C-8.99594138 42.95428331 -8.99594138 42.95428331 -1.3203125 53.25390625 C2.61857867 60.86137252 3.23216032 67.57124658 1.3359375 75.92578125 C-1.9170239 86.1513947 -8.58734131 93.04620549 -18 98 C-25.22378261 100.61658308 -32.22728872 101.55338716 -39.875 101.5 C-41.3604834 101.49033203 -41.3604834 101.49033203 -42.87597656 101.48046875 C-61.04368824 101.04116042 -77.86539042 95.06730479 -94 87 C-93.41347648 82.51006131 -92.2356462 78.77456816 -90.4375 74.625 C-89.98246094 73.56539063 -89.52742188 72.50578125 -89.05859375 71.4140625 C-88.70925781 70.61742187 -88.35992187 69.82078125 -88 69 C-84.18529788 69.55339006 -80.94282796 70.81414141 -77.4309082 72.37475586 C-63.21275422 78.6686281 -44.81155688 84.88606029 -29.375 79.75 C-25.51260891 77.7472787 -22.95714048 75.91428095 -21 72 C-20.59296188 67.95028325 -20.59296188 67.95028325 -21 64 C-27.94001407 55.88942952 -40.3732502 53.89905625 -50.25 51.1875 C-64.01745098 47.25542328 -78.94588439 42.81764451 -88.25 31.1875 C-92.32609865 23.76317746 -92.99387406 16.27470419 -90.875 8.0625 C-87.92981093 -0.92305369 -82.33856454 -6.69003643 -74 -11 C-49.7318728 -21.3769451 -21.21038695 -14.42306313 0 0 Z " fill="#FFFFFF" transform="translate(363,100)"/>
<path d="M0 0 C5.23539297 4.12885881 9.66348409 8.19736363 13 14 C11.42626408 17.80172161 9.02378358 20.24341988 6.125 23.125 C5.26132812 23.99382812 4.39765625 24.86265625 3.5078125 25.7578125 C1.35211626 27.68517954 -0.35514153 28.90515161 -3 30 C-3.3403125 29.41992188 -3.680625 28.83984375 -4.03125 28.2421875 C-8.57730826 20.91529573 -14.18058263 15.22713057 -22.54296875 12.47265625 C-34.34489114 10.20233414 -44.39951184 12.02775377 -54.25 18.6875 C-60.89677332 24.0317743 -65.39548401 31.6297749 -67 40 C-68.11597243 51.43871738 -65.83630272 60.5269699 -58.953125 69.73828125 C-52.60312082 77.09158609 -45.09820536 80.64377845 -35.5625 81.8125 C-25.3177359 82.47664333 -16.93604601 79.27790654 -9.1875 72.5625 C-6.8435882 69.81677475 -4.91799015 67.05457691 -3 64 C0.60686535 65.56017897 3.21200604 67.75765318 6.125 70.375 C6.99382812 71.14585937 7.86265625 71.91671875 8.7578125 72.7109375 C10.78336688 74.77883797 11.92192633 76.34721199 13 79 C4.49464492 91.54122946 -6.26346464 99.40569479 -21.125 102.875 C-35.43737224 105.48435171 -49.79716732 103.38419961 -62.41015625 95.81640625 C-75.37140147 86.72594014 -85.60686703 73.59665698 -88.68359375 57.76953125 C-90.5109678 41.77436823 -88.69038843 25.70652824 -78.82666016 12.41943359 C-59.60478978 -11.61342156 -25.63926618 -18.56930242 0 0 Z " fill="#FFFFFF" transform="translate(467,97)"/>
<path d="M0 0 C6.6 0 13.2 0 20 0 C20 35.31 20 70.62 20 107 C13.4 107 6.8 107 0 107 C0 71.69 0 36.38 0 0 Z " fill="#FFFFFF" transform="translate(976,89)"/>
<path d="M0 0 C5.55157016 1.9806129 9.47019811 5.32609651 14 9 C14.99 9.7425 15.98 10.485 17 11.25 C25.50073949 18.48267338 31.54633243 28.38821937 37 38 C37.59039062 39.01449219 38.18078125 40.02898437 38.7890625 41.07421875 C40.17329555 44.41870441 40.25049758 45.64368615 39 49 C37.44140625 51.421875 37.44140625 51.421875 35.5625 53.75 C34.94503906 54.52859375 34.32757813 55.3071875 33.69140625 56.109375 C32 58 32 58 30 59 C29.36384766 57.15148437 29.36384766 57.15148437 28.71484375 55.265625 C22.17248769 36.63782157 13.4303918 21.73098519 -2 9 C-1.34 6.03 -0.68 3.06 0 0 Z " fill="#FFFFFF" transform="translate(151,136)"/>
<path d="M0 0 C5.62876723 0.51104242 9.81947038 2.02690745 14.8125 4.625 C15.51391113 4.984729 16.21532227 5.34445801 16.93798828 5.71508789 C26.79357819 10.8698133 34.92444828 17.38359336 43 25 C44.06347656 25.96679688 44.06347656 25.96679688 45.1484375 26.953125 C45.78007812 27.54609375 46.41171875 28.1390625 47.0625 28.75 C47.61035156 29.26046875 48.15820312 29.7709375 48.72265625 30.296875 C50.45001906 32.60002541 50.82445734 34.12026444 51 37 C50.00390625 40.11328125 50.00390625 40.11328125 48.5625 43.3125 C48.08941406 44.38113281 47.61632812 45.44976562 47.12890625 46.55078125 C46.75636719 47.35902344 46.38382813 48.16726562 46 49 C45.34 49 44.68 49 44 49 C42.95825306 47.45712116 41.9937241 45.86199674 41.0625 44.25 C36.80103847 37.36063719 31.66121545 31.74374046 26 26 C25.34257812 25.3296875 24.68515625 24.659375 24.0078125 23.96875 C17.13334361 17.47783517 8.39320511 13.19660255 0 9 C0 6.03 0 3.06 0 0 Z " fill="#FFFFFF" transform="translate(152,123)"/>
<path d="M0 0 C0.66 0 1.32 0 2 0 C13.54618008 12.53339994 20.31543278 27.79540757 25 44 C25.36222656 45.01191406 25.72445312 46.02382812 26.09765625 47.06640625 C26.97957134 50.0156944 27.46397175 51.95104277 27 55 C23.55227403 59.53436334 19.44246136 63.18584621 14 65 C13.89510254 64.11030518 13.89510254 64.11030518 13.78808594 63.20263672 C11.75412307 46.30635679 8.87290678 31.75896337 0.90234375 16.59375 C0.58483154 15.9867627 0.26731934 15.37977539 -0.05981445 14.75439453 C-0.95945316 13.07566075 -1.9084114 11.42363904 -2.859375 9.7734375 C-4 7 -4 7 -3.41796875 4.8828125 C-1.70898438 2.44140625 -1.70898438 2.44140625 0 0 Z " fill="#FFFFFF" transform="translate(147,148)"/>
<path d="M0 0 C2.64 0.99 5.28 1.98 8 3 C3.01557444 18.91995317 -16.27988121 32.15744787 -30.1875 39.875 C-31.12311768 40.40371704 -31.12311768 40.40371704 -32.07763672 40.94311523 C-36.36901516 43.17366555 -36.36901516 43.17366555 -39.12890625 42.4140625 C-39.74636719 41.94742188 -40.36382812 41.48078125 -41 41 C-41.77859375 40.4534375 -42.5571875 39.906875 -43.359375 39.34375 C-44.54273438 38.43109375 -44.54273438 38.43109375 -45.75 37.5 C-46.94882812 36.58734375 -46.94882812 36.58734375 -48.171875 35.65625 C-48.77515625 35.1096875 -49.3784375 34.563125 -50 34 C-50 33.34 -50 32.68 -50 32 C-48.8140625 31.61070312 -47.628125 31.22140625 -46.40625 30.8203125 C-27.07924573 24.24672019 -13.85546792 14.93046112 0 0 Z " fill="#FFFFFF" transform="translate(85,171)"/>
<path d="M0 0 C6.15070187 -0.1577103 11.63805045 0.23756087 17.625 1.625 C18.79059448 1.89340698 18.79059448 1.89340698 19.97973633 2.16723633 C32.56463271 5.213565 48.57329752 10.57329752 58 20 C57.93561368 22.3149807 57.79849567 24.62813201 57.625 26.9375 C57.48964844 28.83822266 57.48964844 28.83822266 57.3515625 30.77734375 C57 34 57 34 56 36 C52.56242305 34.52122253 50.39517862 32.55955643 47.75 29.9375 C34.95845715 18.27296533 18.80148568 12.24239197 2 9 C1.34 6.03 0.68 3.06 0 0 Z " fill="#FFFFFF" transform="translate(150,110)"/>
<path d="M0 0 C1.95809166 1.29354379 3.87257564 2.65443173 5.75 4.0625 C6.73484375 4.79597656 7.7196875 5.52945313 8.734375 6.28515625 C9.85585937 7.13400391 9.85585937 7.13400391 11 8 C7.84415795 10.1038947 5.09216533 11.05790973 1.5 12.25 C-15.46553091 18.15590269 -28.55230802 28.40748085 -40 42 C-42.64 41.34 -45.28 40.68 -48 40 C-44.1888135 24.75525399 -26.80653715 11.86984949 -14 4 C-4.18040267 -1.74902401 -4.18040267 -1.74902401 0 0 Z " fill="#FFFFFF" transform="translate(161,39)"/>
<path d="M0 0 C4.39498242 1.36396006 8.49252799 3.11030276 12.625 5.125 C10.18671308 7.74837141 7.4930817 9.70070115 4.5625 11.75 C-10.34871025 22.54980795 -19.15562425 34.92670896 -27.375 51.125 C-30.345 51.125 -33.315 51.125 -36.375 51.125 C-33.8973468 33.78142759 -22.19708143 18.3888318 -10.375 6.125 C-9.75367187 5.46628906 -9.13234375 4.80757812 -8.4921875 4.12890625 C-5.53582558 1.25871632 -4.21979228 0.1562886 0 0 Z " fill="#FFFFFF" transform="translate(136.375,26.875)"/>
<path d="M0 0 C1.24177002 0.00161133 2.48354004 0.00322266 3.76293945 0.00488281 C13.58188129 0.13519731 22.25095315 1.36054762 31.5625 4.375 C32.53703125 4.58253906 33.5115625 4.79007812 34.515625 5.00390625 C37.30198414 5.77059312 38.64450516 6.19900077 40.5625 8.375 C41.92458818 13.38203614 42.36310523 18.20360008 42.5625 23.375 C38.73121661 22.16101776 35.16789602 20.76889742 31.5625 19 C21.32104676 14.27102296 10.50125255 11.40120218 -0.79296875 11.26953125 C-1.74494141 11.25470703 -2.69691406 11.23988281 -3.67773438 11.22460938 C-5.65414708 11.19972413 -7.6309038 11.1947462 -9.60742188 11.20898438 C-12.34200676 11.14763747 -14.7815535 11.03315594 -17.4375 10.375 C-21.4375 6.00127737 -21.4375 6.00127737 -21.4375 2.375 C-14.27932967 0.16295725 -7.46183402 -0.01000984 0 0 Z " fill="#FFFFFF" transform="translate(165.4375,95.625)"/>
<path d="M0 0 C1.15371094 0.00322266 2.30742187 0.00644531 3.49609375 0.00976562 C4.68589844 0.01814453 5.87570313 0.02652344 7.1015625 0.03515625 C8.92107422 0.04192383 8.92107422 0.04192383 10.77734375 0.04882812 C13.76046757 0.06057271 16.74348929 0.07699785 19.7265625 0.09765625 C20.54667562 1.6561738 21.35732463 3.21967341 22.1640625 4.78515625 C22.61652344 5.65527344 23.06898438 6.52539062 23.53515625 7.421875 C24.68648178 10.00763889 25.28977003 12.31122153 25.7265625 15.09765625 C24.994375 14.95328125 24.2621875 14.80890625 23.5078125 14.66015625 C7.16094837 11.85783668 -9.70137506 11.5414121 -25.71484375 16.125 C-27.47634766 16.60646484 -27.47634766 16.60646484 -29.2734375 17.09765625 C-30.47871094 17.42894531 -31.68398437 17.76023437 -32.92578125 18.1015625 C-36.2734375 18.09765625 -36.2734375 18.09765625 -37.82250977 16.82006836 C-39.2109375 15.16015625 -39.2109375 15.16015625 -41.2734375 12.09765625 C-28.36527621 5.01706239 -14.96309785 -0.07407474 0 0 Z " fill="#FFFFFF" transform="translate(176.2734375,76.90234375)"/>
<path d="M0 0 C1.8515625 1.70703125 1.8515625 1.70703125 3.625 3.8125 C4.21539062 4.49957031 4.80578125 5.18664063 5.4140625 5.89453125 C6.89910579 7.86605423 7.98239206 9.75823992 9 12 C7.80246094 12.09796875 6.60492188 12.1959375 5.37109375 12.296875 C-14.97004206 14.09928071 -31.95911455 19.6394097 -49 31 C-52.465 29.02 -52.465 29.02 -56 27 C-51.60889004 16.44265051 -36.67588466 10.02452051 -26.671875 5.4921875 C-6.27614219 -2.7350767 -6.27614219 -2.7350767 0 0 Z " fill="#FFFFFF" transform="translate(181,56)"/>
<path d="M0 0 C2.78550624 1.10259622 5.55357259 2.23435444 8.3125 3.40234375 C24.98564484 10.34360002 40.9466129 12.33779726 59 12 C60.32 14.64 61.64 17.28 63 20 C44.0840778 24.45080522 19.90133331 25.21740838 2 16 C-0.76657017 11.13465246 -0.22508476 5.51457659 0 0 Z " fill="#FFFFFF" transform="translate(0,133)"/>
<path d="M0 0 C-0.5236948 15.2918883 -4.11154301 29.31513667 -11 43 C-11.32629395 43.64904297 -11.65258789 44.29808594 -11.98876953 44.96679688 C-17.83500703 56.23915028 -17.83500703 56.23915028 -22.58984375 57.91015625 C-25.22828964 57.93792936 -27.44026466 57.61936067 -30 57 C-31.19625 56.835 -32.3925 56.67 -33.625 56.5 C-34.40875 56.335 -35.1925 56.17 -36 56 C-34.61208337 52.71366867 -32.59753672 50.20536105 -30.31860352 47.48413086 C-20.74910906 35.98876149 -14.75382187 23.48184964 -11 9 C-10.77570313 8.14792969 -10.55140625 7.29585937 -10.3203125 6.41796875 C-9.85983641 4.61706569 -9.42574772 2.80942779 -9 1 C-5.846632 0.29925156 -3.27275026 0 0 0 Z " fill="#FFFFFF" transform="translate(119,173)"/>
<path d="M0 0 C8.63872504 17.66690079 11.92443985 35.41477443 11 55 C10.95230469 56.0828125 10.90460938 57.165625 10.85546875 58.28125 C10 61 10 61 7.3828125 62.71484375 C6.30773437 63.11832031 5.23265625 63.52179688 4.125 63.9375 C2.52011719 64.56978516 2.52011719 64.56978516 0.8828125 65.21484375 C-2 66 -2 66 -5 65 C-4.7834375 64.14921875 -4.566875 63.2984375 -4.34375 62.421875 C-0.40695602 45.28953085 -1.14236137 28.96097791 -5.8203125 12.03125 C-6.43828522 9.61618419 -6.98082751 7.49242371 -7 5 C-3.4 0 -3.4 0 0 0 Z " fill="#FFFFFF" transform="translate(141,159)"/>
<path d="M0 0 C2.97 0.33 5.94 0.66 9 1 C5.74640759 14.66508814 -1.49968834 27.69321027 -11 38 C-11.49580566 38.55800293 -11.99161133 39.11600586 -12.50244141 39.69091797 C-14.16349996 41.54855734 -15.85677782 43.37085236 -17.5625 45.1875 C-18.09262695 45.77756836 -18.62275391 46.36763672 -19.16894531 46.97558594 C-20.7175321 48.56806366 -22.09156246 49.86160895 -24 51 C-28.45000565 50.99032607 -31.95104541 49.83873219 -35.9375 47.9375 C-36.70964844 47.57527344 -37.48179688 47.21304688 -38.27734375 46.83984375 C-38.84582031 46.56269531 -39.41429687 46.28554687 -40 46 C-40 45.34 -40 44.68 -40 44 C-38.41775101 42.91408387 -36.78079588 41.9075854 -35.125 40.9375 C-19.10828481 31.00672537 -8.16747808 16.76217808 0 0 Z " fill="#FFFFFF" transform="translate(97,174)"/>
<path d="M0 0 C2.80962416 1.18299965 4.28629793 2.81435396 6.375 5 C-7.23947836 18.84356814 -26.35754815 28.34428934 -45.625 31 C-48.77631366 30.81875561 -49.53055118 30.09772351 -51.765625 27.78515625 C-52.46171875 26.88667969 -53.1578125 25.98820312 -53.875 25.0625 C-54.58140625 24.16660156 -55.2878125 23.27070313 -56.015625 22.34765625 C-57.625 20 -57.625 20 -57.625 18 C-56.49964844 17.90203125 -55.37429687 17.8040625 -54.21484375 17.703125 C-36.42359256 16.02970979 -20.26344655 11.93342628 -5.32421875 1.75 C-2.625 0 -2.625 0 0 0 Z " fill="#FFFFFF" transform="translate(74.625,165)"/>
<path d="M0 0 C4.21648656 15.73653018 2.96260729 33.3545333 -1 49 C-1.2784375 50.18078125 -1.556875 51.3615625 -1.84375 52.578125 C-2.67350704 55.5967239 -3.50936048 58.24878752 -5 61 C-9.92310124 63.70287911 -15.47376014 63.22556081 -21 63 C-19.8861745 60.19678366 -18.7528093 57.40371269 -17.59765625 54.6171875 C-12.02923391 41.10750718 -8.80667667 28.78515583 -8.9375 14.0625 C-8.94201172 13.09248047 -8.94652344 12.12246094 -8.95117188 11.12304688 C-8.9628685 8.7486324 -8.97925914 6.37434979 -9 4 C-2.25 0 -2.25 0 0 0 Z " fill="#FFFFFF" transform="translate(131,167)"/>
<path d="M0 0 C-1.00413451 2.55179136 -2.03529579 5.07947557 -3.1484375 7.5859375 C-9.18546277 21.31344081 -12.1958834 34.92673716 -12.0625 49.9375 C-12.05798828 50.90751953 -12.05347656 51.87753906 -12.04882812 52.87695312 C-12.03713169 55.25132906 -12.01919941 57.62567288 -12 60 C-15.96 61.98 -15.96 61.98 -20 64 C-26.24958787 44.00131881 -23.45346916 21.2957831 -16 2 C-14.08404518 1.66259915 -12.16720278 1.33023588 -10.25 1 C-9.18265625 0.814375 -8.1153125 0.62875 -7.015625 0.4375 C-4 0 -4 0 0 0 Z " fill="#FFFFFF" transform="translate(96,22)"/>
<path d="M0 0 C-0.144375 1.05316406 -0.28875 2.10632813 -0.4375 3.19140625 C-2.71147754 20.49384868 -3.1926136 37.63484248 2.75 54.3125 C4.22319453 58.65842387 4.22319453 58.65842387 3 62 C1.0625 64.25 1.0625 64.25 -1 66 C-1.66 66 -2.32 66 -3 66 C-11.28692019 48.49504499 -19.05324486 26.85296548 -14.33203125 7.22265625 C-12.53153658 4.21831178 -10.70658183 3.51654378 -7.5 2.1875 C-6.5203125 1.76855469 -5.540625 1.34960938 -4.53125 0.91796875 C-2 0 -2 0 0 0 Z " fill="#FFFFFF" transform="translate(69,28)"/>
<path d="M0 0 C3.65510978 1.21836993 4.07449396 2.26268268 6.125 5.4375 C16.51052789 20.74248848 29.62837027 30.81418514 46 39 C46 41.97 46 44.94 46 48 C24.90820753 44.03674742 9.4344349 29.88787264 -5 15 C-1.92482916 4.44191344 -1.92482916 4.44191344 0 0 Z " fill="#FFFFFF" transform="translate(9,81)"/>
<path d="M0 0 C1.37933294 0.12587069 2.75544981 0.29327544 4.125 0.5 C5.14980469 0.62375 5.14980469 0.62375 6.1953125 0.75 C7.84367448 0.96355297 9.48547737 1.22674623 11.125 1.5 C11.125 5.46821534 9.88227827 6.04124903 7.125 8.8125 C-1.95186734 18.61722934 -8.97511917 31.67523696 -11.85546875 44.734375 C-12.01756836 45.46156738 -12.17966797 46.18875977 -12.34667969 46.93798828 C-12.65135657 48.36843669 -12.93049156 49.80462512 -13.18066406 51.24560547 C-13.58984375 53.2265625 -13.58984375 53.2265625 -14.875 56.5 C-18.11091683 58.107215 -20.27899433 58.5 -23.875 58.5 C-22.87769509 44.80566397 -17.79581574 2.29623429 0 0 Z " fill="#FFFFFF" transform="translate(110.875,21.5)"/>
<path d="M0 0 C0.66 0 1.32 0 2 0 C2.20753906 0.70382813 2.41507813 1.40765625 2.62890625 2.1328125 C8.1441009 19.80912672 18.14962877 38.43308585 34 49 C33.67 51.64 33.34 54.28 33 57 C24.57006407 57 17.26831771 48.61593993 11.4375 42.9375 C3.593221 35.08508499 -3.81013175 25.33407102 -8 15 C-7.83754612 10.76970107 -5.98070489 8.08103077 -3.5625 4.6875 C-2.94503906 3.80449219 -2.32757812 2.92148437 -1.69140625 2.01171875 C-1.13324219 1.34785156 -0.57507813 0.68398438 0 0 Z " fill="#FFFFFF" transform="translate(24,58)"/>
<path d="M0 0 C0.08636719 1.258125 0.17273437 2.51625 0.26171875 3.8125 C1.59229793 20.85395561 5.11027312 39.06360489 16.22265625 52.734375 C18 55 18 55 17.875 57.5625 C17.06345953 59.82321988 16.1659543 61.90128225 15 64 C4.23718537 59.57394365 -2.69346153 44.1781561 -7 34 C-14.20828453 14.50011117 -14.20828453 14.50011117 -13 9 C-10.6640625 6.54296875 -10.6640625 6.54296875 -7.625 4.1875 C-6.62726562 3.39730469 -5.62953125 2.60710938 -4.6015625 1.79296875 C-2 0 -2 0 0 0 Z " fill="#FFFFFF" transform="translate(46,40)"/>
<path d="M0 0 C3.23128051 1.42176343 5.35909765 3.16783467 7.875 5.625 C19.91612575 16.50149228 35.3103936 22.62760126 51.19921875 25.03125 C54 26 54 26 55.39453125 28.34375 C56 31 56 31 56 35 C36.05771568 36.55058798 16.17368362 27.96565281 0 17 C-1 16 -1 16 -1.1328125 13.671875 C-1.13023438 12.70765625 -1.12765625 11.7434375 -1.125 10.75 C-1.12757812 9.79609375 -1.13015625 8.8421875 -1.1328125 7.859375 C-1.00628725 5.13536072 -0.61005381 2.65324991 0 0 Z " fill="#FFFFFF" transform="translate(1,106)"/>
<path d="M0 0 C2.25 1.9375 2.25 1.9375 4 4 C4 4.66 4 5.32 4 6 C-16.12483659 15.76081993 -33.67139503 17.67458021 -56 17 C-56.82011312 15.44148245 -57.63076213 13.87798284 -58.4375 12.3125 C-58.88996094 11.44238281 -59.34242187 10.57226562 -59.80859375 9.67578125 C-60.95991928 7.09001736 -61.56320753 4.78643472 -62 2 C-60.77925781 2.2165625 -59.55851562 2.433125 -58.30078125 2.65625 C-41.03172911 5.6242033 -24.437371 6.2380099 -7.6875 0.25 C-3.34157613 -1.22319453 -3.34157613 -1.22319453 0 0 Z " fill="#FFFFFF" transform="translate(67,157)"/>
<path d="M0 0 C2.89396771 2.30033331 3.82767735 3.48303205 5 7 C5.40109454 11.25160217 5.26378256 13.5006973 3.25 17.3125 C0.03030303 21.15824916 0.03030303 21.15824916 -3 22 C-7.21436918 22.33447374 -9.90312958 22.43874817 -13.8125 20.875 C-17.40037194 17.79968119 -18.76150084 14.63542281 -19.4375 10 C-18.85662899 6.01688451 -17.63444029 4.03973879 -15 1 C-9.59661243 -2.32516158 -5.66052766 -2.53493195 0 0 Z " fill="#FFFFFF" transform="translate(993,55)"/>
<path d="M0 0 C2.87029869 1.79393668 4.49131638 2.98263276 6 6 C6.5811138 13.08958838 6.5811138 13.08958838 4.125 16.9375 C0.64160635 20.31844089 -2.03626432 20.40432349 -6.73828125 20.34375 C-9 20 -9 20 -12 17.875 C-14.26157198 14.62399027 -15 12.95490344 -15 9 C-12.22517051 0.67551153 -8.36947434 -1.23339622 0 0 Z " fill="#FFFFFF" transform="translate(812,176)"/>
</svg>
