<?xml version="1.0" encoding="utf-8"?>
<!-- Generator: Adobe Illustrator 26.5.1, SVG Export Plug-In . SVG Version: 6.00 Build 0)  -->
<svg version="1.1" id="Layer_1" xmlns="http://www.w3.org/2000/svg" xmlns:xlink="http://www.w3.org/1999/xlink" x="0px" y="0px"
	 viewBox="0 0 1000 1000" style="enable-background:new 0 0 1000 1000;" xml:space="preserve">
<style type="text/css">
	.st0{fill:#005CEF;}
	.st1{fill:#0F1A29;}
	.st2{fill:#FFFFFF;}
</style>
<g>
	<g>
		<path class="st0" d="M125.5,410.5V151.1c0-38.5,30.3-69.7,67.7-69.7h613.7c37.4,0,67.7,31.2,67.7,69.7v253.1v240.4
			c0,35.9-19.9,68.7-51.2,84.5L566.5,858.5c-40.2,20.3-87.3,20.6-127.7,0.8L177.7,731.9c-31.9-15.6-52.2-48.6-52.2-85V410.5z"/>
		<path class="st1" d="M806.9,71.9H193.1c-42.5,0-77.2,35.5-77.2,79.2v495.8c0,39.8,22.6,76.5,57.5,93.5l261.1,127.4
			c21.4,10.4,44.3,15.7,67.2,15.7c23.6,0,47.1-5.5,69-16.5l256.8-129.4c17-8.5,31.2-21.8,41.2-38.2c10-16.4,15.2-35.4,15.2-54.7
			V151.1C884,107.5,849.4,71.9,806.9,71.9z M819.1,720.6L562.2,850.1c-37.8,19-81.3,19.3-119.3,0.8L181.9,723.4
			c-28.5-13.9-46.9-43.9-46.9-76.4V288.6h730v356C865,676.7,847,706.6,819.1,720.6z"/>
	</g>
	<g>
		<path class="st2" d="M289.2,142.8l-9.7-2.9c-1.9-0.6-3.4-1.4-4.3-2.4c-0.9-1-1.4-2.3-1.4-3.6c0-1.2,0.3-2.3,1-3.2
			c0.7-0.9,1.6-1.6,2.9-2.1c1.2-0.5,2.7-0.8,4.3-0.8c2.7,0,5.2,0.7,7.2,2c2.1,1.4,3.6,3.3,4.7,5.8l8-3.3c-0.9-2.5-2.4-4.6-4.3-6.5
			c-1.9-1.8-4.2-3.3-6.9-4.3c-2.7-1-5.6-1.6-8.7-1.6c-3.5,0-6.5,0.6-9.2,1.8c-2.7,1.2-4.8,2.9-6.2,5.1c-1.5,2.2-2.2,4.7-2.2,7.5
			c0,3.2,1,6.1,3.1,8.4c2.1,2.4,5.2,4.2,9.3,5.4l10.2,3.1c1.8,0.5,3.2,1.3,4.2,2.2c0.9,1,1.4,2.2,1.4,3.6c0,1.2-0.3,2.3-1,3.2
			c-0.7,0.9-1.7,1.6-2.9,2.1c-1.3,0.5-2.7,0.8-4.4,0.8c-3,0-5.8-0.8-8.2-2.4c-2.4-1.6-4.3-3.8-5.5-6.7l-8,3.3
			c0.9,2.8,2.4,5.2,4.5,7.2c2.1,2.1,4.5,3.7,7.4,4.8c2.9,1.2,6,1.7,9.3,1.7c3.6,0,6.8-0.6,9.6-1.9c2.7-1.2,4.9-2.9,6.5-5.1
			c1.6-2.2,2.3-4.7,2.3-7.5c0-3.3-1.1-6.1-3.2-8.4C296.5,145.8,293.4,144.1,289.2,142.8z"/>
		<polygon class="st2" points="349.9,162.2 324.4,162.2 324.4,149.3 348.4,149.3 348.4,141.3 324.4,141.3 324.4,128.6 349.9,128.6 
			349.9,120.6 314.7,120.6 314.7,170.2 349.9,170.2 		"/>
		<path class="st2" d="M403.9,164.4c2.1-2,3.6-4.1,4.5-6.5l-8.7-3.8c-1,2.5-2.7,4.5-5,6.2c-2.4,1.6-5.2,2.4-8.6,2.4
			c-3.3,0-6.2-0.7-8.8-2.2c-2.5-1.5-4.5-3.5-5.9-6.1c-1.4-2.6-2.1-5.6-2.1-9.1c0-3.5,0.7-6.5,2.1-9c1.4-2.6,3.4-4.6,5.9-6.1
			c2.5-1.5,5.5-2.2,8.8-2.2c3.4,0,6.2,0.8,8.6,2.4c2.4,1.6,4,3.7,5,6.2l8.7-3.8c-0.9-2.4-2.4-4.5-4.5-6.5c-2.1-2-4.6-3.6-7.6-4.8
			c-3-1.2-6.4-1.8-10.2-1.8c-3.8,0-7.3,0.6-10.5,1.9c-3.2,1.3-6,3-8.4,5.3c-2.4,2.3-4.2,5-5.5,8.1c-1.3,3.1-2,6.5-2,10.2
			c0,3.7,0.7,7.1,2,10.2c1.3,3.1,3.2,5.8,5.6,8.1c2.4,2.3,5.2,4.1,8.4,5.4c3.2,1.3,6.7,1.9,10.5,1.9c3.8,0,7.2-0.6,10.2-1.8
			C399.3,168,401.8,166.4,403.9,164.4z"/>
		<path class="st2" d="M450.9,168.6c3.1-1.6,5.6-3.8,7.4-6.6c1.8-2.8,2.7-6,2.7-9.5v-31.9h-9.7V152c0,2-0.5,3.9-1.5,5.5
			c-1,1.6-2.3,2.9-4,3.8c-1.7,0.9-3.6,1.4-5.9,1.4c-2.2,0-4.1-0.5-5.8-1.4c-1.7-0.9-3-2.2-4-3.8c-1-1.6-1.5-3.5-1.5-5.5v-31.4h-9.7
			v31.9c0,3.5,0.9,6.7,2.7,9.5c1.8,2.8,4.3,5,7.4,6.6c3.1,1.6,6.8,2.4,10.8,2.4C444.2,171,447.8,170.2,450.9,168.6z"/>
		<path class="st2" d="M503.4,150.3c2.9-1.2,5.3-2.9,7-5.3c1.7-2.4,2.6-5.3,2.6-8.7c0-3.3-0.8-6.2-2.3-8.5c-1.6-2.3-3.7-4.1-6.5-5.3
			c-2.8-1.2-6-1.8-9.5-1.8H475v49.6h9.7v-18.3h9.1l10.9,18.3h10.9L503.4,150.3z M502.3,140.2c-0.7,1.2-1.7,2.1-3,2.7
			c-1.3,0.6-2.8,1-4.5,1h-10.2v-15.3h10.2c1.8,0,3.3,0.3,4.5,1c1.3,0.6,2.3,1.5,3,2.7s1.1,2.5,1.1,4
			C503.4,137.8,503,139.1,502.3,140.2z"/>
		<polygon class="st2" points="526.2,170.2 561.3,170.2 561.3,162.2 535.8,162.2 535.8,149.3 559.9,149.3 559.9,141.3 535.8,141.3 
			535.8,128.6 561.3,128.6 561.3,120.6 526.2,120.6 		"/>
		<path class="st2" d="M614.1,158.2c2.3-3.7,3.4-8,3.4-12.9c0-4.9-1.1-9.2-3.4-12.9c-2.3-3.7-5.5-6.6-9.6-8.7
			c-4.1-2.1-9-3.2-14.6-3.2h-17.3v49.6h17.3c5.6,0,10.4-1.1,14.6-3.2C608.7,164.9,611.9,162,614.1,158.2z M605.6,154.3
			c-1.5,2.5-3.5,4.5-6.1,5.9c-2.6,1.4-5.7,2.1-9.3,2.1h-7.8v-33.6h7.8c3.6,0,6.7,0.7,9.3,2.1c2.6,1.4,4.7,3.3,6.1,5.8
			c1.5,2.5,2.2,5.5,2.2,8.9C607.8,148.8,607.1,151.7,605.6,154.3z"/>
		<path class="st2" d="M683.4,145.1c-0.7-0.6-1.4-1.1-2.3-1.6c0.9-0.8,1.7-1.6,2.3-2.5c1.3-2,2-4.1,2-6.4c0-2.9-0.7-5.4-2-7.5
			c-1.3-2.1-3.3-3.7-5.8-4.8c-2.5-1.1-5.5-1.7-9-1.7h-22.3v49.6h22.3c5.9,0,10.5-1.3,13.9-4c3.3-2.7,5-6.4,5-11.1
			c0-1.9-0.3-3.6-0.9-5.3C686,148,684.9,146.5,683.4,145.1z M656,128.3h13.1c2,0,3.6,0.5,4.8,1.5c1.2,1,1.8,2.4,1.8,4.1
			s-0.6,3.1-1.8,4.2c-1.2,1.1-2.8,1.6-4.8,1.6H656V128.3z M675.7,160.2c-1.5,1.3-3.5,2-6,2H656v-14.4h13.6c2.5,0,4.5,0.7,6,2
			c1.5,1.3,2.2,3.1,2.2,5.3C677.9,157.2,677.2,158.9,675.7,160.2z"/>
		<polygon class="st2" points="726.8,120.6 715.2,139.1 703.5,120.6 692.5,120.6 710.3,148.2 710.3,170.2 720.1,170.2 720.1,148.2 
			737.8,120.6 		"/>
		<path class="st2" d="M363.5,219.2l-9.7-2.9c-1.9-0.6-3.4-1.4-4.3-2.4c-0.9-1-1.4-2.3-1.4-3.6c0-1.2,0.3-2.3,1-3.2
			c0.7-0.9,1.6-1.6,2.9-2.1c1.2-0.5,2.7-0.8,4.3-0.8c2.7,0,5.2,0.7,7.2,2c2.1,1.4,3.6,3.3,4.7,5.8l8-3.3c-0.9-2.5-2.4-4.6-4.3-6.5
			c-1.9-1.8-4.2-3.3-6.9-4.3c-2.7-1-5.6-1.6-8.7-1.6c-3.5,0-6.5,0.6-9.2,1.8c-2.7,1.2-4.8,2.9-6.2,5.1c-1.5,2.2-2.2,4.7-2.2,7.5
			c0,3.2,1,6.1,3.1,8.4c2.1,2.4,5.2,4.2,9.3,5.4l10.2,3.1c1.8,0.5,3.2,1.3,4.2,2.2c0.9,1,1.4,2.2,1.4,3.6c0,1.2-0.3,2.3-1,3.2
			c-0.7,0.9-1.7,1.6-2.9,2.1c-1.3,0.5-2.7,0.8-4.4,0.8c-3,0-5.8-0.8-8.2-2.4c-2.4-1.6-4.3-3.8-5.5-6.7l-8,3.3
			c0.9,2.8,2.4,5.2,4.5,7.2s4.5,3.7,7.4,4.8c2.9,1.2,6,1.7,9.3,1.7c3.6,0,6.8-0.6,9.6-1.9c2.7-1.2,4.9-2.9,6.5-5.1
			c1.6-2.2,2.3-4.7,2.3-7.5c0-3.3-1.1-6.1-3.2-8.4C370.8,222.3,367.7,220.5,363.5,219.2z"/>
		<path class="st2" d="M418.3,198.9c-2.8-1.2-6-1.8-9.6-1.8H389v49.6h9.7v-18.3h10.1c3.6,0,6.8-0.6,9.5-1.9c2.7-1.2,4.9-3,6.5-5.4
			c1.6-2.3,2.4-5.1,2.4-8.4c0-3.3-0.8-6.2-2.3-8.5S421.1,200.1,418.3,198.9z M416.4,216.7c-0.7,1.2-1.7,2.1-3,2.7
			c-1.3,0.6-2.8,1-4.5,1h-10.2v-15.3h10.2c1.8,0,3.3,0.3,4.5,1c1.3,0.6,2.3,1.5,3,2.7s1.1,2.5,1.1,4
			C417.5,214.2,417.1,215.6,416.4,216.7z"/>
		<path class="st2" d="M474.8,221.4c1.7-2.4,2.6-5.3,2.6-8.7c0-3.3-0.8-6.2-2.3-8.5s-3.7-4.1-6.5-5.3c-2.8-1.2-6-1.8-9.5-1.8h-19.7
			v49.6h9.7v-18.3h9.1l10.9,18.3h10.9l-12.1-19.9C470.7,225.6,473,223.8,474.8,221.4z M466.6,216.7c-0.7,1.2-1.7,2.1-3,2.7
			c-1.3,0.6-2.8,1-4.5,1H449v-15.3h10.2c1.8,0,3.3,0.3,4.5,1c1.3,0.6,2.3,1.5,3,2.7s1.1,2.5,1.1,4
			C467.7,214.2,467.3,215.6,466.6,216.7z"/>
		<rect x="490.5" y="197.1" class="st2" width="9.7" height="49.6"/>
		<polygon class="st2" points="547.3,228.9 522.1,197.1 514.6,197.1 514.6,246.6 524.2,246.6 524.2,214.2 549.3,246.6 556.9,246.6 
			556.9,197.1 547.3,197.1 		"/>
		<polygon class="st2" points="567.1,205.1 580.8,205.1 580.8,246.6 590.5,246.6 590.5,205.1 604,205.1 604,197.1 567.1,197.1 		"/>
		<path class="st2" d="M653.9,203.6c-2.3-2.3-4.9-4.1-8-5.4c-3.1-1.3-6.4-1.9-9.9-1.9c-3.6,0-6.9,0.6-9.9,1.9c-3.1,1.3-5.7,3-8,5.4
			c-2.3,2.3-4,5-5.3,8.1c-1.2,3.1-1.9,6.5-1.9,10.2c0,3.6,0.6,7,1.9,10.1c1.3,3.1,3,5.8,5.3,8.1c2.3,2.3,4.9,4.1,8,5.4
			c3.1,1.3,6.3,1.9,9.9,1.9c3.6,0,6.9-0.6,9.9-1.9c3-1.3,5.7-3.1,8-5.4c2.3-2.3,4.1-5,5.4-8.1c1.3-3.1,1.9-6.5,1.9-10.1
			c0-3.7-0.6-7.1-1.9-10.2C658,208.5,656.2,205.9,653.9,203.6z M651.1,228.7c-0.8,2.1-1.9,4-3.4,5.5c-1.5,1.6-3.2,2.8-5.2,3.6
			c-2,0.9-4.2,1.3-6.5,1.3c-2.3,0-4.5-0.4-6.5-1.3c-2-0.9-3.7-2.1-5.2-3.6c-1.5-1.6-2.6-3.4-3.5-5.5c-0.8-2.1-1.2-4.4-1.2-6.9
			c0-2.5,0.4-4.8,1.2-6.9c0.8-2.1,2-3.9,3.5-5.5c1.5-1.6,3.2-2.8,5.2-3.6c2-0.8,4.1-1.3,6.5-1.3c2.4,0,4.5,0.4,6.5,1.3
			c2,0.8,3.7,2.1,5.2,3.6c1.5,1.6,2.6,3.4,3.4,5.5c0.8,2.1,1.2,4.4,1.2,6.9C652.3,224.3,651.9,226.6,651.1,228.7z"/>
	</g>
	<g>
		<g>
			<circle class="st2" cx="501" cy="768.8" r="143.6"/>
		</g>
		<g>
			<g>
				<circle class="st1" cx="501" cy="768.8" r="114.2"/>
			</g>
		</g>
		<g id="Layer_2_00000157310249671640922850000016884059863812284822_">
			<g id="brandmark_white_copy_00000004539527327849656470000007919670368079418241_">
				<g>
					<g>
						<path class="st2" d="M555.7,795.9c-2.1,8.5-7.9,15.5-15.7,19.2c-3.5,1.7-7.4,2.5-11.3,2.5h-79.9v-19.5h80
							c2.6,0,5.1-1.2,6.8-3.2c2-2.3,2.8-5.4,2.2-8.4c-0.4-2.9-2.2-5.3-4.8-6.7c-3.3-1.3-6.9-1.7-10.5-1.4h-3.7
							c-3.6,0-7.3,0.2-11,0.2h-26.3c-4.4,0.1-8.7-0.3-13-1c-9-1.7-16.7-7.8-20.4-16.3c-1.7-3.8-2.6-7.9-2.6-12.1
							c-0.1-5.1,1.3-10.2,3.8-14.7c2.4-4.4,5.9-8,10.2-10.7c4.3-2.6,9.2-4,14.2-4h78.5v19.5h-78.5c-2.5-0.1-4.9,0.9-6.6,2.7
							c-1.8,1.8-2.8,4.3-2.7,6.9c0,2.7,1.1,5.2,3,7c1.8,1.4,3.9,2.2,6.1,2.5c2.5,0.2,5.2,0.4,8.2,0.4h1.7c7.3,0.1,14.7,0.1,22.1,0
							h2.2c3.6,0,7.2,0,10.8-0.2h3.8c3.1-0.1,6.2,0.1,9.3,0.4c3.4,0.4,6.7,1.4,9.8,2.9c8,4.1,13.5,11.7,15,20.6
							C556.9,787.1,556.8,791.6,555.7,795.9z"/>
					</g>
				</g>
			</g>
		</g>
		<g>
			<path class="st1" d="M500,923c-85,0-154.1-69.1-154.1-154.1S415,614.7,500,614.7s154.1,69.1,154.1,154.1S585,923,500,923z
				 M500,633.7c-74.5,0-135.1,60.6-135.1,135.1S425.5,904,500,904s135.1-60.6,135.1-135.1S574.5,633.7,500,633.7z"/>
		</g>
	</g>
	<g>
		<g>
			<g>
				<path class="st2" d="M304.6,504.3c-5.6-2-10.3-4.5-13.9-7.6l1.2-25.5h1.6c4.1,5.3,8.5,9.4,13.2,12.5c4.7,3.1,9.9,4.6,15.7,4.6
					c4.3,0,7.9-1.2,10.6-3.6c2.7-2.4,4-5.8,4-10c0-3.1-0.7-5.7-2.2-7.8c-1.5-2.1-3.4-3.9-6-5.4c-2.5-1.5-6.2-3.4-11.1-5.7
					c-8.7-4-15.2-8.5-19.6-13.5c-4.4-5-6.6-11-6.6-18.2c0-6,1.5-11.3,4.5-15.8c3-4.6,7-8,12-10.4c5-2.4,10.3-3.6,16.1-3.6
					c11.9,0,20.9,2.7,27,8.2l0.8,23.1h-2c-8.2-8.9-16.6-13.4-25.3-13.4c-4.1,0-7.4,0.9-9.8,2.7c-2.4,1.8-3.6,4.5-3.6,8.2
					c0,3.3,1.6,6.2,4.7,8.5c3.2,2.4,8.9,5.5,17.3,9.5c8.5,3.9,14.9,8.4,19.3,13.4c4.3,5,6.5,11.6,6.5,19.6c0,6.4-1.5,12.1-4.4,17.2
					c-2.9,5-7.1,8.9-12.5,11.7c-5.4,2.8-11.6,4.2-18.6,4.2C316.5,507.2,310.2,506.3,304.6,504.3z"/>
			</g>
			<g>
				<path class="st2" d="M398.8,499.9c-8.8-4.9-15.8-11.7-21-20.3c-5.1-8.6-7.7-18.2-7.7-28.9c0-10.7,2.6-20.3,7.7-28.9
					c5.1-8.6,12.1-15.3,21-20.3c8.8-4.9,18.6-7.4,29.3-7.4c10.7,0,20.4,2.5,29.3,7.4c8.9,4.9,15.9,11.7,21,20.3
					c5.1,8.6,7.7,18.2,7.7,28.9c0,10.7-2.6,20.3-7.7,28.9c-5.1,8.6-12.1,15.3-21,20.3c-8.9,4.9-18.7,7.4-29.3,7.4
					C417.4,507.2,407.6,504.8,398.8,499.9z M446.5,483.3c5.5-3,9.8-7.3,13-12.9c3.2-5.6,4.8-12.2,4.8-19.7c0-7.6-1.6-14.1-4.8-19.7
					c-3.2-5.6-7.6-9.9-13-12.9c-5.5-3-11.6-4.5-18.5-4.5c-6.7,0-12.9,1.5-18.4,4.5c-5.5,3-9.9,7.3-13.1,12.9
					c-3.2,5.6-4.8,12.2-4.8,19.7c0,7.6,1.6,14.1,4.8,19.7c3.2,5.6,7.6,9.9,13.1,12.9c5.5,3,11.7,4.5,18.4,4.5
					C434.9,487.8,441,486.3,446.5,483.3z"/>
			</g>
			<g>
				<path class="st2" d="M525.1,499.9c-8.8-4.9-15.7-11.6-20.8-20.2c-5.1-8.6-7.6-18.3-7.6-29c0-10.8,2.5-20.4,7.6-29
					c5.1-8.6,12-15.3,20.8-20.2c8.8-4.9,18.6-7.3,29.5-7.3c6.6,0,12.2,0.6,16.8,1.9c4.6,1.3,9.4,3.4,14.4,6.3l1.7,22.5h-2.9
					c-4.9-3.6-9.7-6.3-14.4-8.2c-4.7-1.8-9.6-2.7-14.7-2.7c-7.7,0-14.3,1.6-19.8,4.7c-5.5,3.2-9.8,7.5-12.7,13
					c-2.9,5.5-4.3,11.8-4.3,18.9c0,7,1.4,13.3,4.3,18.9c2.9,5.5,7.1,9.9,12.7,13c5.5,3.2,12.1,4.7,19.8,4.7c5.1,0,10-0.9,14.7-2.7
					c4.7-1.8,9.5-4.5,14.4-8.2h2.9l-1.7,22.5c-5,2.9-9.8,5-14.4,6.3c-4.6,1.3-10.2,1.9-16.8,1.9
					C543.7,507.2,533.9,504.8,525.1,499.9z"/>
			</g>
			<g>
				<path class="st2" d="M634.1,502l42.2-52.9c2.9-3.7,5-7.2,6.4-10.4c1.4-3.2,2.1-6.6,2.1-10.1c0-4.7-1.5-8.4-4.4-11.3
					c-2.9-2.9-6.9-4.3-11.9-4.3c-5.4,0-10.4,1.6-15,4.7c-4.6,3.2-8.5,7.2-11.7,12.2h-2.3l1.2-23.6c3.7-3.7,8.3-6.6,13.7-8.8
					c5.4-2.1,10.9-3.2,16.5-3.2c11.2,0,19.8,2.8,25.9,8.5c6.1,5.7,9.2,13.4,9.2,23.1c0,6-1.2,11.7-3.5,17.2
					c-2.3,5.5-6.1,11.4-11.3,17.7l-21.3,25.6h39.4v18.6h-75.3V502z"/>
			</g>
		</g>
		<g>
			<g>
				<g>
					<path class="st2" d="M227.1,450.3l-9.3-5c-3-1.6-5.5-4.1-7.1-7.1l-5.2-9.7c-0.4-0.7-1.4-0.7-1.8,0l-5.2,9.7
						c-1.6,3-4.1,5.5-7.1,7.1l-9.3,5c-0.9,0.5-0.9,1.8,0,2.3l9.3,5c3,1.6,5.5,4.1,7.1,7.1l5.2,9.7c0.4,0.7,1.4,0.7,1.8,0l5.2-9.7
						c1.6-3,4.1-5.5,7.1-7.1l9.3-5C228,452,228,450.7,227.1,450.3z"/>
				</g>
			</g>
			<g>
				<g>
					<path class="st2" d="M818,450.8l-9.3-5c-3-1.6-5.5-4.1-7.1-7.1l-5.2-9.7c-0.4-0.7-1.4-0.7-1.8,0l-5.2,9.7
						c-1.6,3-4.1,5.5-7.1,7.1l-9.3,5c-0.9,0.5-0.9,1.8,0,2.3l9.3,5c3,1.6,5.5,4.1,7.1,7.1l5.2,9.7c0.4,0.7,1.4,0.7,1.8,0l5.2-9.7
						c1.6-3,4.1-5.5,7.1-7.1l9.3-5C818.9,452.5,818.9,451.2,818,450.8z"/>
				</g>
			</g>
		</g>
	</g>
</g>
</svg>
