<svg width="1468" height="1052" viewBox="0 0 1468 1052" fill="none" xmlns="http://www.w3.org/2000/svg">
<g filter="url(#filter0_d_2300_2632)">
<g clip-path="url(#clip0_2300_2632)">
<rect x="14" y="10" width="1440" height="1024" fill="black"/>
<g opacity="0.4" filter="url(#filter1_f_2300_2632)">
<ellipse cx="420.574" cy="358.073" rx="420.574" ry="358.073" transform="matrix(-1 8.74228e-08 8.74228e-08 1 1154.57 -291.003)" fill="url(#paint0_linear_2300_2632)"/>
</g>
<g opacity="0.6" filter="url(#filter2_f_2300_2632)" style="mix-blend-mode:plus-lighter">
<path d="M441.991 98.4745C624.831 378.425 705.227 766.804 722.57 926C703.246 374.904 360.234 -204.511 191.143 -425.332C198.576 -367.376 259.151 -181.476 441.991 98.4745Z" fill="url(#paint1_linear_2300_2632)"/>
</g>
<g opacity="0.6" filter="url(#filter3_f_2300_2632)" style="mix-blend-mode:plus-lighter">
<path d="M1026.01 98.4745C843.169 378.425 762.773 766.804 745.43 926C764.754 374.904 1107.77 -204.511 1276.86 -425.332C1269.42 -367.376 1208.85 -181.476 1026.01 98.4745Z" fill="url(#paint2_linear_2300_2632)"/>
</g>
<g opacity="0.3" filter="url(#filter4_f_2300_2632)">
<path d="M698.092 796.061C693.161 650.247 668.948 287.387 611.547 2.45802C647.546 101.474 715.254 398.816 698.092 796.061Z" fill="url(#paint3_linear_2300_2632)"/>
</g>
<g opacity="0.3" filter="url(#filter5_f_2300_2632)">
<path d="M769.908 796.061C774.839 650.247 799.052 287.387 856.453 2.458C820.454 101.474 752.746 398.816 769.908 796.061Z" fill="url(#paint4_linear_2300_2632)"/>
</g>
<g opacity="0.6" filter="url(#filter6_f_2300_2632)">
<path d="M679.598 598.198C638.421 400.335 498.963 -8.50862 270.543 -60.9859C393.333 -148.447 647.05 -139.056 679.598 598.198Z" fill="url(#paint5_linear_2300_2632)"/>
</g>
<g opacity="0.6" filter="url(#filter7_f_2300_2632)">
<path d="M788.402 598.198C829.579 400.335 969.037 -8.50865 1197.46 -60.986C1074.67 -148.447 820.95 -139.056 788.402 598.198Z" fill="url(#paint6_linear_2300_2632)"/>
</g>
<g filter="url(#filter8_f_2300_2632)" style="mix-blend-mode:screen">
<path d="M734 812.259C734.141 814.268 734.279 816.276 734.413 818.282C734.66 809.498 735.099 799.99 735.721 789.836C764.526 443.102 895.173 73.0325 936.53 -7.99811C944.25 -14.4346 951.946 -35.7612 959.57 -35.7612L508.43 -35.7612C516.054 -35.7612 523.75 -14.4346 531.469 -7.99807C572.827 73.0326 703.474 443.103 732.279 789.836C732.901 799.99 733.34 809.498 733.587 818.282C733.721 816.276 733.859 814.268 734 812.259Z" fill="url(#paint7_linear_2300_2632)"/>
</g>
<g filter="url(#filter9_f_2300_2632)" style="mix-blend-mode:plus-lighter">
<ellipse cx="225.57" cy="100.198" rx="225.57" ry="100.198" transform="matrix(-1 8.74228e-08 8.74228e-08 1 959.57 -142.347)" fill="#4434F0"/>
</g>
<g opacity="0.6" filter="url(#filter10_f_2300_2632)" style="mix-blend-mode:plus-lighter">
<ellipse cx="734" cy="-25.906" rx="463.457" ry="170.798" transform="rotate(-180 734 -25.906)" fill="url(#paint8_radial_2300_2632)"/>
</g>
<g filter="url(#filter11_f_2300_2632)" style="mix-blend-mode:plus-lighter">
<ellipse cx="734" cy="-25.906" rx="213.896" ry="78.8273" transform="rotate(-180 734 -25.906)" fill="url(#paint9_radial_2300_2632)"/>
</g>
</g>
<rect x="14.5" y="10.5" width="1439" height="1023" stroke="black" stroke-opacity="0.75"/>
</g>
<defs>
<filter id="filter0_d_2300_2632" x="0" y="0" width="1468" height="1052" filterUnits="userSpaceOnUse" color-interpolation-filters="sRGB">
<feFlood flood-opacity="0" result="BackgroundImageFix"/>
<feColorMatrix in="SourceAlpha" type="matrix" values="0 0 0 0 0 0 0 0 0 0 0 0 0 0 0 0 0 0 127 0" result="hardAlpha"/>
<feOffset dy="4"/>
<feGaussianBlur stdDeviation="7"/>
<feComposite in2="hardAlpha" operator="out"/>
<feColorMatrix type="matrix" values="0 0 0 0 0 0 0 0 0 0 0 0 0 0 0 0 0 0 0.25 0"/>
<feBlend mode="normal" in2="BackgroundImageFix" result="effect1_dropShadow_2300_2632"/>
<feBlend mode="normal" in="SourceGraphic" in2="effect1_dropShadow_2300_2632" result="shape"/>
</filter>
<filter id="filter1_f_2300_2632" x="-99.5737" y="-704.003" width="1667.15" height="1542.15" filterUnits="userSpaceOnUse" color-interpolation-filters="sRGB">
<feFlood flood-opacity="0" result="BackgroundImageFix"/>
<feBlend mode="normal" in="SourceGraphic" in2="BackgroundImageFix" result="shape"/>
<feGaussianBlur stdDeviation="206.5" result="effect1_foregroundBlur_2300_2632"/>
</filter>
<filter id="filter2_f_2300_2632" x="146.443" y="-470.032" width="620.827" height="1440.73" filterUnits="userSpaceOnUse" color-interpolation-filters="sRGB">
<feFlood flood-opacity="0" result="BackgroundImageFix"/>
<feBlend mode="normal" in="SourceGraphic" in2="BackgroundImageFix" result="shape"/>
<feGaussianBlur stdDeviation="22.35" result="effect1_foregroundBlur_2300_2632"/>
</filter>
<filter id="filter3_f_2300_2632" x="700.73" y="-470.032" width="620.827" height="1440.73" filterUnits="userSpaceOnUse" color-interpolation-filters="sRGB">
<feFlood flood-opacity="0" result="BackgroundImageFix"/>
<feBlend mode="normal" in="SourceGraphic" in2="BackgroundImageFix" result="shape"/>
<feGaussianBlur stdDeviation="22.35" result="effect1_foregroundBlur_2300_2632"/>
</filter>
<filter id="filter4_f_2300_2632" x="583.747" y="-25.342" width="144.883" height="849.203" filterUnits="userSpaceOnUse" color-interpolation-filters="sRGB">
<feFlood flood-opacity="0" result="BackgroundImageFix"/>
<feBlend mode="normal" in="SourceGraphic" in2="BackgroundImageFix" result="shape"/>
<feGaussianBlur stdDeviation="13.9" result="effect1_foregroundBlur_2300_2632"/>
</filter>
<filter id="filter5_f_2300_2632" x="739.37" y="-25.342" width="144.883" height="849.203" filterUnits="userSpaceOnUse" color-interpolation-filters="sRGB">
<feFlood flood-opacity="0" result="BackgroundImageFix"/>
<feBlend mode="normal" in="SourceGraphic" in2="BackgroundImageFix" result="shape"/>
<feGaussianBlur stdDeviation="13.9" result="effect1_foregroundBlur_2300_2632"/>
</filter>
<filter id="filter6_f_2300_2632" x="198.643" y="-170.463" width="552.855" height="840.56" filterUnits="userSpaceOnUse" color-interpolation-filters="sRGB">
<feFlood flood-opacity="0" result="BackgroundImageFix"/>
<feBlend mode="normal" in="SourceGraphic" in2="BackgroundImageFix" result="shape"/>
<feGaussianBlur stdDeviation="35.95" result="effect1_foregroundBlur_2300_2632"/>
</filter>
<filter id="filter7_f_2300_2632" x="716.502" y="-170.463" width="552.855" height="840.56" filterUnits="userSpaceOnUse" color-interpolation-filters="sRGB">
<feFlood flood-opacity="0" result="BackgroundImageFix"/>
<feBlend mode="normal" in="SourceGraphic" in2="BackgroundImageFix" result="shape"/>
<feGaussianBlur stdDeviation="35.95" result="effect1_foregroundBlur_2300_2632"/>
</filter>
<filter id="filter8_f_2300_2632" x="454.63" y="-89.5612" width="558.74" height="961.643" filterUnits="userSpaceOnUse" color-interpolation-filters="sRGB">
<feFlood flood-opacity="0" result="BackgroundImageFix"/>
<feBlend mode="normal" in="SourceGraphic" in2="BackgroundImageFix" result="shape"/>
<feGaussianBlur stdDeviation="26.9" result="effect1_foregroundBlur_2300_2632"/>
</filter>
<filter id="filter9_f_2300_2632" x="283.13" y="-367.647" width="901.74" height="650.996" filterUnits="userSpaceOnUse" color-interpolation-filters="sRGB">
<feFlood flood-opacity="0" result="BackgroundImageFix"/>
<feBlend mode="normal" in="SourceGraphic" in2="BackgroundImageFix" result="shape"/>
<feGaussianBlur stdDeviation="112.65" result="effect1_foregroundBlur_2300_2632"/>
</filter>
<filter id="filter10_f_2300_2632" x="70.5431" y="-396.704" width="1326.91" height="741.596" filterUnits="userSpaceOnUse" color-interpolation-filters="sRGB">
<feFlood flood-opacity="0" result="BackgroundImageFix"/>
<feBlend mode="normal" in="SourceGraphic" in2="BackgroundImageFix" result="shape"/>
<feGaussianBlur stdDeviation="100" result="effect1_foregroundBlur_2300_2632"/>
</filter>
<filter id="filter11_f_2300_2632" x="320.104" y="-304.733" width="827.793" height="557.655" filterUnits="userSpaceOnUse" color-interpolation-filters="sRGB">
<feFlood flood-opacity="0" result="BackgroundImageFix"/>
<feBlend mode="normal" in="SourceGraphic" in2="BackgroundImageFix" result="shape"/>
<feGaussianBlur stdDeviation="100" result="effect1_foregroundBlur_2300_2632"/>
</filter>
<linearGradient id="paint0_linear_2300_2632" x1="420.574" y1="105.144" x2="420.574" y2="872.299" gradientUnits="userSpaceOnUse">
<stop stop-color="#4434F0"/>
<stop offset="1" stop-color="#045BBF"/>
</linearGradient>
<linearGradient id="paint1_linear_2300_2632" x1="456.857" y1="-425.332" x2="456.857" y2="926" gradientUnits="userSpaceOnUse">
<stop stop-color="#045BBF"/>
<stop offset="1" stop-color="#4A3AFF" stop-opacity="0"/>
</linearGradient>
<linearGradient id="paint2_linear_2300_2632" x1="1011.14" y1="-425.332" x2="1011.14" y2="926" gradientUnits="userSpaceOnUse">
<stop stop-color="#045BBF"/>
<stop offset="1" stop-color="#4A3AFF" stop-opacity="0"/>
</linearGradient>
<linearGradient id="paint3_linear_2300_2632" x1="656.188" y1="2.45801" x2="656.188" y2="796.061" gradientUnits="userSpaceOnUse">
<stop stop-color="#045BBF"/>
<stop offset="1" stop-color="#4A3AFF" stop-opacity="0"/>
</linearGradient>
<linearGradient id="paint4_linear_2300_2632" x1="811.812" y1="2.458" x2="811.812" y2="796.061" gradientUnits="userSpaceOnUse">
<stop stop-color="#045BBF"/>
<stop offset="1" stop-color="#4A3AFF" stop-opacity="0"/>
</linearGradient>
<linearGradient id="paint5_linear_2300_2632" x1="475.07" y1="-98.563" x2="475.07" y2="598.198" gradientUnits="userSpaceOnUse">
<stop stop-color="#045BBF"/>
<stop offset="1" stop-color="#4A3AFF" stop-opacity="0"/>
</linearGradient>
<linearGradient id="paint6_linear_2300_2632" x1="992.93" y1="-98.563" x2="992.93" y2="598.197" gradientUnits="userSpaceOnUse">
<stop stop-color="#045BBF"/>
<stop offset="1" stop-color="#4A3AFF" stop-opacity="0"/>
</linearGradient>
<linearGradient id="paint7_linear_2300_2632" x1="734" y1="-17.8639" x2="734" y2="818.282" gradientUnits="userSpaceOnUse">
<stop stop-color="#045BBF"/>
<stop offset="1" stop-color="#4A3AFF" stop-opacity="0"/>
</linearGradient>
<radialGradient id="paint8_radial_2300_2632" cx="0" cy="0" r="1" gradientUnits="userSpaceOnUse" gradientTransform="translate(734 -25.906) rotate(-90) scale(170.798 463.457)">
<stop offset="0.11" stop-color="#045BBF"/>
<stop offset="1" stop-color="#4434F0"/>
</radialGradient>
<radialGradient id="paint9_radial_2300_2632" cx="0" cy="0" r="1" gradientUnits="userSpaceOnUse" gradientTransform="translate(734 -25.906) rotate(-90) scale(78.8273 213.896)">
<stop offset="0.11" stop-color="#045BBF"/>
<stop offset="1" stop-color="#4434F0"/>
</radialGradient>
<clipPath id="clip0_2300_2632">
<rect x="14" y="10" width="1440" height="1024" fill="white"/>
</clipPath>
</defs>
</svg>
