<svg width="336" height="336" viewBox="0 0 336 336" fill="none" xmlns="http://www.w3.org/2000/svg">
<g clip-path="url(#clip0_2133_32476)">
<rect x="24.75" y="56.75" width="250.5" height="58.5" rx="15.25" stroke="#F8F8F8" stroke-opacity="0.1" stroke-width="1.5"/>
<rect x="280.75" y="56.75" width="58.5" height="58.5" rx="15.25" stroke="#F8F8F8" stroke-opacity="0.1" stroke-width="1.5"/>
<rect x="280.75" y="120.75" width="58.5" height="122.5" rx="15.25" stroke="#F8F8F8" stroke-opacity="0.1" stroke-width="1.5"/>
<rect x="216.75" y="248.75" width="58.5" height="58.5" rx="15.25" stroke="#F8F8F8" stroke-opacity="0.1" stroke-width="1.5"/>
<rect x="280.75" y="248.75" width="58.5" height="58.5" rx="15.25" stroke="#F8F8F8" stroke-opacity="0.1" stroke-width="1.5"/>
<mask id="mask0_2133_32476" style="mask-type:alpha" maskUnits="userSpaceOnUse" x="127" y="118" width="174" height="174">
<circle cx="214" cy="205" r="87" fill="url(#paint0_radial_2133_32476)"/>
</mask>
<g mask="url(#mask0_2133_32476)">
<path fill-rule="evenodd" clip-rule="evenodd" d="M196 121.5H168C159.992 121.5 153.5 127.992 153.5 136V164C153.5 172.008 159.992 178.5 168 178.5H196C204.008 178.5 210.5 172.008 210.5 164V136C210.5 127.992 204.008 121.5 196 121.5ZM168 120C159.163 120 152 127.163 152 136V164C152 172.837 159.163 180 168 180H196C204.837 180 212 172.837 212 164V136C212 127.163 204.837 120 196 120H168ZM232 121.5H260C268.008 121.5 274.5 127.992 274.5 136V164C274.5 172.008 268.008 178.5 260 178.5H232C223.992 178.5 217.5 172.008 217.5 164V136C217.5 127.992 223.992 121.5 232 121.5ZM216 136C216 127.163 223.163 120 232 120H260C268.837 120 276 127.163 276 136V164C276 172.837 268.837 180 260 180H232C223.163 180 216 172.837 216 164V136ZM232 185.5H260C268.008 185.5 274.5 191.992 274.5 200V228C274.5 236.008 268.008 242.5 260 242.5H232C223.992 242.5 217.5 236.008 217.5 228V200C217.5 191.992 223.992 185.5 232 185.5ZM216 200C216 191.163 223.163 184 232 184H260C268.837 184 276 191.163 276 200V228C276 236.837 268.837 244 260 244H232C223.163 244 216 236.837 216 228V200ZM168 185.5H196C204.008 185.5 210.5 191.992 210.5 200V228C210.5 236.008 204.008 242.5 196 242.5H168C159.992 242.5 153.5 236.008 153.5 228V200C153.5 191.992 159.992 185.5 168 185.5ZM152 200C152 191.163 159.163 184 168 184H196C204.837 184 212 191.163 212 200V228C212 236.837 204.837 244 196 244H168C159.163 244 152 236.837 152 228V200Z" fill="#F8F8F8" fill-opacity="0.4"/>
</g>
<g filter="url(#filter0_d_2133_32476)">
<rect x="238" y="142" width="16" height="16" rx="8" fill="#F8F8F8" fill-opacity="0.05" style="mix-blend-mode:luminosity" shape-rendering="crispEdges"/>
<rect x="238.75" y="142.75" width="14.5" height="14.5" rx="7.25" stroke="url(#paint1_linear_2133_32476)" stroke-opacity="0.25" stroke-width="1.5" shape-rendering="crispEdges"/>
</g>
<g filter="url(#filter1_d_2133_32476)">
<rect x="174" y="206" width="16" height="16" rx="8" fill="#F8F8F8" fill-opacity="0.05" style="mix-blend-mode:luminosity" shape-rendering="crispEdges"/>
<rect x="174.75" y="206.75" width="14.5" height="14.5" rx="7.25" stroke="url(#paint2_linear_2133_32476)" stroke-opacity="0.25" stroke-width="1.5" shape-rendering="crispEdges"/>
</g>
<g filter="url(#filter2_d_2133_32476)">
<rect x="48" y="72" width="68" height="28" rx="8" fill="#F8F8F8" fill-opacity="0.05" style="mix-blend-mode:luminosity" shape-rendering="crispEdges"/>
<rect x="48.75" y="72.75" width="66.5" height="26.5" rx="7.25" stroke="url(#paint3_linear_2133_32476)" stroke-opacity="0.25" stroke-width="1.5" shape-rendering="crispEdges"/>
<rect x="60" y="84" width="44" height="4" rx="1" fill="#F8F8F8" fill-opacity="0.95"/>
</g>
<rect opacity="0.1" x="128" y="84" width="44" height="4" rx="1" fill="#F8F8F8" fill-opacity="0.7"/>
<rect opacity="0.1" x="196" y="84" width="44" height="4" rx="1" fill="#F8F8F8" fill-opacity="0.7"/>
<rect x="24.75" y="120.75" width="122.5" height="122.5" rx="15.25" stroke="#F8F8F8" stroke-opacity="0.1" stroke-width="1.5"/>
<rect opacity="0.5" x="64" y="168" width="44" height="4" rx="1" fill="#F8F8F8"/>
<rect opacity="0.1" x="56" y="180" width="60" height="4" rx="1" fill="#F8F8F8"/>
<rect opacity="0.1" x="60" y="192" width="52" height="4" rx="1" fill="#F8F8F8"/>
<rect x="24.75" y="248.75" width="186.5" height="58.5" rx="15.25" stroke="#F8F8F8" stroke-opacity="0.1" stroke-width="1.5"/>
</g>
<rect x="152.75" y="120.75" width="58.5" height="58.5" rx="15.25" stroke="#F8F8F8" stroke-opacity="0.4" stroke-width="1.5"/>
<g filter="url(#filter3_bdi_2133_32476)">
<rect x="158" y="126" width="48" height="48" rx="10" fill="#F8F8F8" fill-opacity="0.01" shape-rendering="crispEdges"/>
<rect x="158" y="126" width="48" height="48" rx="10" fill="#121212" fill-opacity="0.3" shape-rendering="crispEdges"/>
<rect x="158.75" y="126.75" width="46.5" height="46.5" rx="9.25" stroke="url(#paint4_linear_2133_32476)" stroke-opacity="0.25" stroke-width="1.5" shape-rendering="crispEdges"/>
</g>
<g filter="url(#filter4_d_2133_32476)">
<rect x="238" y="206" width="16" height="16" rx="8" fill="#F8F8F8" fill-opacity="0.05" style="mix-blend-mode:luminosity" shape-rendering="crispEdges"/>
<rect x="238.75" y="206.75" width="14.5" height="14.5" rx="7.25" stroke="url(#paint5_linear_2133_32476)" stroke-opacity="0.25" stroke-width="1.5" shape-rendering="crispEdges"/>
</g>
<g clip-path="url(#clip1_2133_32476)">
<path d="M182 144.75V150M182 150V155.25M182 150H176.75M182 150H187.25" stroke="#F8F8F8" stroke-width="1.5" stroke-linecap="round"/>
</g>
<defs>
<filter id="filter0_d_2133_32476" x="214" y="142" width="64" height="64" filterUnits="userSpaceOnUse" color-interpolation-filters="sRGB">
<feFlood flood-opacity="0" result="BackgroundImageFix"/>
<feColorMatrix in="SourceAlpha" type="matrix" values="0 0 0 0 0 0 0 0 0 0 0 0 0 0 0 0 0 0 127 0" result="hardAlpha"/>
<feOffset dy="24"/>
<feGaussianBlur stdDeviation="12"/>
<feComposite in2="hardAlpha" operator="out"/>
<feColorMatrix type="matrix" values="0 0 0 0 0 0 0 0 0 0 0 0 0 0 0 0 0 0 0.3 0"/>
<feBlend mode="multiply" in2="BackgroundImageFix" result="effect1_dropShadow_2133_32476"/>
<feBlend mode="normal" in="SourceGraphic" in2="effect1_dropShadow_2133_32476" result="shape"/>
</filter>
<filter id="filter1_d_2133_32476" x="150" y="206" width="64" height="64" filterUnits="userSpaceOnUse" color-interpolation-filters="sRGB">
<feFlood flood-opacity="0" result="BackgroundImageFix"/>
<feColorMatrix in="SourceAlpha" type="matrix" values="0 0 0 0 0 0 0 0 0 0 0 0 0 0 0 0 0 0 127 0" result="hardAlpha"/>
<feOffset dy="24"/>
<feGaussianBlur stdDeviation="12"/>
<feComposite in2="hardAlpha" operator="out"/>
<feColorMatrix type="matrix" values="0 0 0 0 0 0 0 0 0 0 0 0 0 0 0 0 0 0 0.3 0"/>
<feBlend mode="multiply" in2="BackgroundImageFix" result="effect1_dropShadow_2133_32476"/>
<feBlend mode="normal" in="SourceGraphic" in2="effect1_dropShadow_2133_32476" result="shape"/>
</filter>
<filter id="filter2_d_2133_32476" x="24" y="72" width="116" height="76" filterUnits="userSpaceOnUse" color-interpolation-filters="sRGB">
<feFlood flood-opacity="0" result="BackgroundImageFix"/>
<feColorMatrix in="SourceAlpha" type="matrix" values="0 0 0 0 0 0 0 0 0 0 0 0 0 0 0 0 0 0 127 0" result="hardAlpha"/>
<feOffset dy="24"/>
<feGaussianBlur stdDeviation="12"/>
<feComposite in2="hardAlpha" operator="out"/>
<feColorMatrix type="matrix" values="0 0 0 0 0 0 0 0 0 0 0 0 0 0 0 0 0 0 0.3 0"/>
<feBlend mode="multiply" in2="BackgroundImageFix" result="effect1_dropShadow_2133_32476"/>
<feBlend mode="normal" in="SourceGraphic" in2="effect1_dropShadow_2133_32476" result="shape"/>
</filter>
<filter id="filter3_bdi_2133_32476" x="146" y="114" width="72" height="100" filterUnits="userSpaceOnUse" color-interpolation-filters="sRGB">
<feFlood flood-opacity="0" result="BackgroundImageFix"/>
<feGaussianBlur in="BackgroundImageFix" stdDeviation="6"/>
<feComposite in2="SourceAlpha" operator="in" result="effect1_backgroundBlur_2133_32476"/>
<feColorMatrix in="SourceAlpha" type="matrix" values="0 0 0 0 0 0 0 0 0 0 0 0 0 0 0 0 0 0 127 0" result="hardAlpha"/>
<feMorphology radius="16" operator="erode" in="SourceAlpha" result="effect2_dropShadow_2133_32476"/>
<feOffset dy="32"/>
<feGaussianBlur stdDeviation="12"/>
<feComposite in2="hardAlpha" operator="out"/>
<feColorMatrix type="matrix" values="0 0 0 0 0 0 0 0 0 0 0 0 0 0 0 0 0 0 0.4 0"/>
<feBlend mode="multiply" in2="effect1_backgroundBlur_2133_32476" result="effect2_dropShadow_2133_32476"/>
<feBlend mode="normal" in="SourceGraphic" in2="effect2_dropShadow_2133_32476" result="shape"/>
<feColorMatrix in="SourceAlpha" type="matrix" values="0 0 0 0 0 0 0 0 0 0 0 0 0 0 0 0 0 0 127 0" result="hardAlpha"/>
<feOffset/>
<feGaussianBlur stdDeviation="4"/>
<feComposite in2="hardAlpha" operator="arithmetic" k2="-1" k3="1"/>
<feColorMatrix type="matrix" values="0 0 0 0 0.972549 0 0 0 0 0.972549 0 0 0 0 0.972549 0 0 0 0.25 0"/>
<feBlend mode="normal" in2="shape" result="effect3_innerShadow_2133_32476"/>
</filter>
<filter id="filter4_d_2133_32476" x="214" y="206" width="64" height="64" filterUnits="userSpaceOnUse" color-interpolation-filters="sRGB">
<feFlood flood-opacity="0" result="BackgroundImageFix"/>
<feColorMatrix in="SourceAlpha" type="matrix" values="0 0 0 0 0 0 0 0 0 0 0 0 0 0 0 0 0 0 127 0" result="hardAlpha"/>
<feOffset dy="24"/>
<feGaussianBlur stdDeviation="12"/>
<feComposite in2="hardAlpha" operator="out"/>
<feColorMatrix type="matrix" values="0 0 0 0 0 0 0 0 0 0 0 0 0 0 0 0 0 0 0.3 0"/>
<feBlend mode="multiply" in2="BackgroundImageFix" result="effect1_dropShadow_2133_32476"/>
<feBlend mode="normal" in="SourceGraphic" in2="effect1_dropShadow_2133_32476" result="shape"/>
</filter>
<radialGradient id="paint0_radial_2133_32476" cx="0" cy="0" r="1" gradientUnits="userSpaceOnUse" gradientTransform="translate(214 205) rotate(90) scale(87)">
<stop stop-color="#D9D9D9"/>
<stop offset="1" stop-color="#737373" stop-opacity="0"/>
</radialGradient>
<linearGradient id="paint1_linear_2133_32476" x1="246" y1="142" x2="252.96" y2="159.57" gradientUnits="userSpaceOnUse">
<stop stop-color="white" stop-opacity="0.4"/>
<stop offset="0.4" stop-color="white" stop-opacity="0.01"/>
<stop offset="0.6" stop-color="white" stop-opacity="0.01"/>
<stop offset="1" stop-color="white" stop-opacity="0.1"/>
</linearGradient>
<linearGradient id="paint2_linear_2133_32476" x1="182" y1="206" x2="188.96" y2="223.57" gradientUnits="userSpaceOnUse">
<stop stop-color="white" stop-opacity="0.4"/>
<stop offset="0.4" stop-color="white" stop-opacity="0.01"/>
<stop offset="0.6" stop-color="white" stop-opacity="0.01"/>
<stop offset="1" stop-color="white" stop-opacity="0.1"/>
</linearGradient>
<linearGradient id="paint3_linear_2133_32476" x1="82" y1="72" x2="87.6522" y2="106.651" gradientUnits="userSpaceOnUse">
<stop stop-color="white" stop-opacity="0.4"/>
<stop offset="0.4" stop-color="white" stop-opacity="0.01"/>
<stop offset="0.6" stop-color="white" stop-opacity="0.01"/>
<stop offset="1" stop-color="white" stop-opacity="0.1"/>
</linearGradient>
<linearGradient id="paint4_linear_2133_32476" x1="182" y1="126" x2="202.881" y2="178.71" gradientUnits="userSpaceOnUse">
<stop stop-color="white" stop-opacity="0.4"/>
<stop offset="0.4" stop-color="white" stop-opacity="0.01"/>
<stop offset="0.6" stop-color="white" stop-opacity="0.01"/>
<stop offset="1" stop-color="white" stop-opacity="0.1"/>
</linearGradient>
<linearGradient id="paint5_linear_2133_32476" x1="246" y1="206" x2="252.96" y2="223.57" gradientUnits="userSpaceOnUse">
<stop stop-color="white" stop-opacity="0.4"/>
<stop offset="0.4" stop-color="white" stop-opacity="0.01"/>
<stop offset="0.6" stop-color="white" stop-opacity="0.01"/>
<stop offset="1" stop-color="white" stop-opacity="0.1"/>
</linearGradient>
<clipPath id="clip0_2133_32476">
<rect width="336" height="336" rx="16" fill="white"/>
</clipPath>
<clipPath id="clip1_2133_32476">
<rect width="16" height="16" fill="white" transform="translate(174 142)"/>
</clipPath>
</defs>
</svg>
