<svg width="32" height="32" viewBox="0 0 32 32" fill="none" xmlns="http://www.w3.org/2000/svg">
<path fill-rule="evenodd" clip-rule="evenodd" d="M17.0577 13.2796V13.2796C17.0261 13.902 16.99 14.6132 16.5977 15.106V15.105C16.5667 15.141 16.5337 15.175 16.4987 15.208C16.3067 15.412 16.0617 15.559 15.7917 15.633L15.7915 15.633L15.7915 15.633C15.7746 15.637 15.7577 15.641 15.7397 15.645C15.4467 15.713 15.1407 15.692 14.8597 15.586C14.8167 15.572 14.7737 15.556 14.7327 15.538C14.1675 15.2684 13.8249 14.6478 13.5256 14.1054L13.5256 14.1054C13.4928 14.0462 13.4607 13.9878 13.4287 13.931L12.9056 12.9987L12.9056 12.9985L12.9053 12.998C11.9951 11.3763 11.0849 9.75435 10.1887 8.12399C10.0831 7.93155 9.97473 7.74129 9.86649 7.55126L9.86646 7.55121L9.86644 7.55117L9.86643 7.55116L9.86643 7.55115C9.56071 7.01443 9.256 6.47948 9.01673 5.90199C8.99436 5.84815 8.97146 5.79377 8.94835 5.7389L8.94828 5.73875C8.69452 5.1363 8.41593 4.47492 8.54973 3.82699C8.80873 2.57699 10.3337 1.92399 11.4187 1.56899C11.7517 1.46199 12.0917 1.37099 12.4367 1.28899C12.7817 1.20699 13.1287 1.14199 13.4747 1.09399C14.6047 0.937989 16.2627 0.854989 17.0397 1.86399C17.4423 2.38733 17.4807 3.10236 17.5158 3.75405L17.5158 3.75414L17.5158 3.75424C17.519 3.81477 17.5222 3.87476 17.5257 3.93399C17.5629 4.56212 17.5227 5.18087 17.4824 5.80171V5.80172V5.80174C17.4685 6.01608 17.4545 6.23067 17.4437 6.44599C17.3565 8.21878 17.2513 9.99092 17.1462 11.7629L17.146 11.7654L17.1459 11.7678C17.1197 12.2082 17.0936 12.6486 17.0677 13.089C17.0642 13.1513 17.0609 13.215 17.0577 13.2796L17.0577 13.2796ZM27.2874 12.5936C26.9104 11.8016 26.4034 11.0796 25.7874 10.4556C25.7074 10.3766 25.6224 10.3036 25.5324 10.2366C25.4494 10.1736 25.3624 10.1156 25.2724 10.0626C25.1804 10.0126 25.0854 9.96661 24.9884 9.92661C24.7964 9.85161 24.5914 9.81761 24.3864 9.82661C24.1894 9.83761 23.9984 9.89161 23.8244 9.98461C23.5614 10.1156 23.2764 10.3256 22.8964 10.6786C22.8597 10.7154 22.8159 10.7556 22.7726 10.7955C22.7546 10.812 22.7367 10.8285 22.7194 10.8446C22.4706 11.0783 22.1996 11.3557 21.891 11.6716L21.8909 11.6717C21.8114 11.7531 21.7293 11.8371 21.6444 11.9236C21.0044 12.5706 20.3744 13.2206 19.7484 13.8776L18.6284 15.0396C18.4234 15.2516 18.2364 15.4816 18.0704 15.7246C17.9284 15.9306 17.8284 16.1626 17.7754 16.4066C17.7444 16.5936 17.7494 16.7856 17.7884 16.9716L17.7884 16.9716C17.7904 16.9796 17.7924 16.9876 17.7944 16.9966C17.8824 17.3816 18.1174 17.7166 18.4474 17.9316C18.7784 18.1466 19.1794 18.2256 19.5674 18.1506C19.6284 18.1416 19.6764 18.1316 19.7054 18.1236L25.6784 16.7436L25.7727 16.7219C26.2128 16.6208 26.6546 16.5192 27.0494 16.2896C27.3334 16.1256 27.6024 15.9616 27.7874 15.6336C27.8864 15.4526 27.9464 15.2536 27.9634 15.0486C28.0554 14.2346 27.6304 13.3106 27.2884 12.5946L27.2874 12.5936ZM11.876 19.9276L13.257 19.6086L13.2656 19.6065C13.2951 19.5994 13.3395 19.5888 13.393 19.5716C13.774 19.4696 14.101 19.2226 14.304 18.8836C14.507 18.5446 14.571 18.1406 14.483 17.7556C14.481 17.7476 14.479 17.7396 14.477 17.7306C14.432 17.5466 14.352 17.3716 14.243 17.2166C14.088 17.0206 13.897 16.8556 13.679 16.7326C13.423 16.5866 13.155 16.4626 12.878 16.3616L11.363 15.8086C10.513 15.4926 9.66303 15.1846 8.80503 14.8836C8.69783 14.8454 8.59375 14.8081 8.49265 14.7719L8.49194 14.7716L8.49182 14.7716L8.49179 14.7716C8.06886 14.6201 7.69795 14.4872 7.36803 14.3856C7.34137 14.3773 7.31364 14.3689 7.2859 14.3606L7.28585 14.3606C7.23349 14.3449 7.18113 14.3292 7.13603 14.3136C6.64103 14.1616 6.29303 14.0986 5.99803 14.0966C5.80103 14.0896 5.60503 14.1256 5.42403 14.2016C5.23503 14.2836 5.06503 14.4036 4.92503 14.5556C4.85603 14.6346 4.79003 14.7166 4.73003 14.8026C4.67303 14.8896 4.62103 14.9806 4.57303 15.0736C4.52103 15.1736 4.47603 15.2766 4.43903 15.3826C4.15803 16.2136 4.01803 17.0856 4.02503 17.9626C4.03003 18.7556 4.05103 19.7736 4.48703 20.4636C4.59203 20.6406 4.73303 20.7936 4.90103 20.9126C5.21103 21.1266 5.52503 21.1556 5.85203 21.1786C6.3084 21.2113 6.75077 21.1085 7.19224 21.0058L7.28403 20.9846L11.873 19.9246H11.877L11.876 19.9276ZM16.0791 21.0332C15.9101 20.7952 15.6701 20.6172 15.3941 20.5242C15.1181 20.4312 14.8191 20.4282 14.5411 20.5152C14.4761 20.5372 14.4121 20.5632 14.3501 20.5942C14.2551 20.6422 14.1641 20.6992 14.0791 20.7632C13.8301 20.9472 13.6201 21.1872 13.4301 21.4272C13.4134 21.4485 13.397 21.4723 13.3804 21.4965C13.3493 21.5417 13.3172 21.5883 13.2801 21.6222L12.3191 22.9432C11.7741 23.6832 11.2371 24.4262 10.7051 25.1802C10.6283 25.288 10.5537 25.3921 10.4816 25.4927L10.4811 25.4935C10.2277 25.8473 10.0045 26.1588 9.82009 26.4412C9.80628 26.4624 9.79228 26.4842 9.77826 26.5061C9.74661 26.5555 9.71489 26.6049 9.68509 26.6472C9.40009 27.0872 9.23909 27.4082 9.15709 27.6952C9.09509 27.8852 9.07509 28.0872 9.09909 28.2852C9.12509 28.4922 9.19509 28.6912 9.30309 28.8692C9.36109 28.9582 9.42309 29.0452 9.48909 29.1282C9.55809 29.2082 9.63109 29.2842 9.70809 29.3562C9.79009 29.4352 9.87809 29.5072 9.97209 29.5722C10.6351 30.0332 11.3611 30.3652 12.1251 30.6212C12.7601 30.8322 13.4211 30.9582 14.0891 30.9962C14.2031 31.0022 14.3171 30.9992 14.4301 30.9892C14.5351 30.9802 14.6401 30.9652 14.7431 30.9452C14.8471 30.9212 14.9491 30.8912 15.0491 30.8562C15.2441 30.7832 15.4221 30.6702 15.5711 30.5242C15.7121 30.3832 15.8201 30.2132 15.8891 30.0262C16.0001 29.7492 16.0731 29.3982 16.1211 28.8762C16.1236 28.83 16.1288 28.7779 16.1341 28.7253L16.1341 28.7252C16.1373 28.6936 16.1405 28.6619 16.1431 28.6312C16.1725 28.296 16.1893 27.9153 16.2084 27.4835C16.214 27.3575 16.2198 27.2271 16.2261 27.0922C16.2731 26.1722 16.3101 25.2572 16.3391 24.3392L16.4011 22.7072C16.4151 22.3312 16.4041 21.9142 16.2991 21.5402C16.2531 21.3612 16.1781 21.1902 16.0791 21.0332ZM25.9912 22.8774C26.4392 23.1484 26.7242 23.3674 26.9242 23.5874L26.9222 23.5884C27.0612 23.7314 27.1672 23.9044 27.2322 24.0934C27.2992 24.2914 27.3232 24.5004 27.3032 24.7074C27.2902 24.8124 27.2722 24.9174 27.2492 25.0214C27.2222 25.1234 27.1902 25.2234 27.1532 25.3224C27.1132 25.4284 27.0662 25.5324 27.0112 25.6324C26.6162 26.3384 26.1092 26.9554 25.5342 27.5204C25.0552 27.9884 24.5162 28.3914 23.9322 28.7194C23.8322 28.7744 23.7282 28.8224 23.6222 28.8624C23.5242 28.9004 23.4232 28.9334 23.3212 28.9604C23.2172 28.9834 23.1122 29.0024 23.0072 29.0144C22.7992 29.0354 22.5902 29.0124 22.3922 28.9464C22.2042 28.8814 22.0322 28.7754 21.8892 28.6374C21.6682 28.4354 21.4502 28.1534 21.1782 27.7054C21.1542 27.6627 21.1249 27.6147 21.0955 27.5667C21.0809 27.5427 21.0662 27.5187 21.0522 27.4954C20.8724 27.1954 20.6822 26.8447 20.4653 26.4449C20.4132 26.3489 20.3596 26.25 20.3042 26.1484C19.8612 25.3424 19.4282 24.5354 19.0002 23.7224L18.2312 22.2814C18.0542 21.9494 17.8832 21.5704 17.8132 21.1874C17.7782 21.0064 17.7712 20.8214 17.7932 20.6384C17.8412 20.3504 17.9782 20.0854 18.1852 19.8804C18.3922 19.6754 18.6582 19.5414 18.9462 19.4964C19.0142 19.4874 19.0832 19.4844 19.1522 19.4844C19.2592 19.4864 19.3652 19.4974 19.4702 19.5174C19.7742 19.5734 20.0672 19.6974 20.3442 19.8294C20.3695 19.8415 20.3953 19.8562 20.4215 19.871C20.4687 19.8978 20.517 19.9252 20.5652 19.9394L22.0052 20.7024C22.8192 21.1304 23.6262 21.5624 24.4332 22.0054C24.5604 22.0747 24.6832 22.141 24.8016 22.205C25.1718 22.405 25.4986 22.5816 25.7812 22.7514C25.8046 22.7654 25.8285 22.7801 25.8524 22.7947C25.9001 22.8241 25.9479 22.8534 25.9912 22.8774Z" fill="url(#paint0_linear_2093_32485)"/>
<defs>
<linearGradient id="paint0_linear_2093_32485" x1="16.0005" y1="1" x2="16.0005" y2="30.9993" gradientUnits="userSpaceOnUse">
<stop stop-color="#F8F8F8" stop-opacity="0.9"/>
<stop offset="1" stop-color="#F8F8F8" stop-opacity="0.3"/>
</linearGradient>
</defs>
</svg>
