<svg width="8" height="8" viewBox="0 0 8 8" fill="none" xmlns="http://www.w3.org/2000/svg">
<g opacity="0.5" filter="url(#filter0_i_2074_38005)">
<path fill-rule="evenodd" clip-rule="evenodd" d="M5 1C5 0.447715 4.55228 0 4 0V0C3.44772 0 3 0.447715 3 1V1.5C3 2.32843 2.32843 3 1.5 3H1C0.447715 3 0 3.44771 0 4V4C0 4.55228 0.447715 5 1 5H1.5C2.32843 5 3 5.67157 3 6.5V7C3 7.55228 3.44772 8 4 8V8C4.55228 8 5 7.55228 5 7V6.5C5 5.67157 5.67157 5 6.5 5H7C7.55228 5 8 4.55228 8 4V4C8 3.44772 7.55228 3 7 3H6.5C5.67157 3 5 2.32843 5 1.5V1Z" fill="#F8F8F8"/>
</g>
<defs>
<filter id="filter0_i_2074_38005" x="0" y="0" width="8" height="8" filterUnits="userSpaceOnUse" color-interpolation-filters="sRGB">
<feFlood flood-opacity="0" result="BackgroundImageFix"/>
<feBlend mode="normal" in="SourceGraphic" in2="BackgroundImageFix" result="shape"/>
<feColorMatrix in="SourceAlpha" type="matrix" values="0 0 0 0 0 0 0 0 0 0 0 0 0 0 0 0 0 0 127 0" result="hardAlpha"/>
<feOffset/>
<feGaussianBlur stdDeviation="4"/>
<feComposite in2="hardAlpha" operator="arithmetic" k2="-1" k3="1"/>
<feColorMatrix type="matrix" values="0 0 0 0 0.972549 0 0 0 0 0.972549 0 0 0 0 0.972549 0 0 0 0.25 0"/>
<feBlend mode="normal" in2="shape" result="effect1_innerShadow_2074_38005"/>
</filter>
</defs>
</svg>
