<svg width="45" height="36" viewBox="0 0 45 36" fill="none" xmlns="http://www.w3.org/2000/svg">
<circle opacity="0.5" cx="43.6994" cy="16.2999" r="0.5" transform="rotate(-53.4875 43.6994 16.2999)" fill="url(#paint0_linear_2101_32929)"/>
<circle opacity="0.5" cx="0.699363" cy="2.69935" r="0.5" transform="rotate(-53.4875 0.699363 2.69935)" fill="url(#paint1_linear_2101_32929)"/>
<circle opacity="0.5" cx="31.6994" cy="35.2999" r="0.5" transform="rotate(-53.4875 31.6994 35.2999)" fill="url(#paint2_linear_2101_32929)"/>
<circle opacity="0.5" cx="41.5" cy="2.5" r="2.5" transform="rotate(-90 41.5 2.5)" fill="url(#paint3_linear_2101_32929)"/>
<circle cx="24" cy="20" r="1" transform="rotate(-90 24 20)" fill="url(#paint4_linear_2101_32929)"/>
<circle opacity="0.5" cx="11.4094" cy="18.5901" r="1" transform="rotate(-139.466 11.4094 18.5901)" fill="url(#paint5_linear_2101_32929)"/>
<circle opacity="0.5" cx="25" cy="27" r="1" transform="rotate(-90 25 27)" fill="url(#paint6_linear_2101_32929)"/>
<circle opacity="0.5" cx="27" cy="7" r="1" transform="rotate(-90 27 7)" fill="url(#paint7_linear_2101_32929)"/>
<circle cx="37" cy="26" r="2" transform="rotate(-90 37 26)" fill="url(#paint8_linear_2101_32929)"/>
<defs>
<linearGradient id="paint0_linear_2101_32929" x1="44.0327" y1="15.4666" x2="43.4494" y2="16.7166" gradientUnits="userSpaceOnUse">
<stop offset="0.173306" stop-color="white" stop-opacity="0"/>
<stop offset="1" stop-color="white" stop-opacity="0.3"/>
</linearGradient>
<linearGradient id="paint1_linear_2101_32929" x1="1.0327" y1="1.86601" x2="0.449363" y2="3.11601" gradientUnits="userSpaceOnUse">
<stop offset="0.173306" stop-color="white" stop-opacity="0"/>
<stop offset="1" stop-color="white" stop-opacity="0.3"/>
</linearGradient>
<linearGradient id="paint2_linear_2101_32929" x1="32.0327" y1="34.4666" x2="31.4494" y2="35.7166" gradientUnits="userSpaceOnUse">
<stop offset="0.173306" stop-color="white" stop-opacity="0"/>
<stop offset="1" stop-color="white" stop-opacity="0.3"/>
</linearGradient>
<linearGradient id="paint3_linear_2101_32929" x1="43.1667" y1="-1.66667" x2="40.25" y2="4.58333" gradientUnits="userSpaceOnUse">
<stop stop-color="white" stop-opacity="0.3"/>
<stop offset="0.826694" stop-color="white" stop-opacity="0"/>
</linearGradient>
<linearGradient id="paint4_linear_2101_32929" x1="24.6667" y1="18.3333" x2="23.5" y2="20.8333" gradientUnits="userSpaceOnUse">
<stop offset="0.173306" stop-color="white" stop-opacity="0"/>
<stop offset="1" stop-color="white" stop-opacity="0.3"/>
</linearGradient>
<linearGradient id="paint5_linear_2101_32929" x1="12.0761" y1="16.9234" x2="10.9094" y2="19.4234" gradientUnits="userSpaceOnUse">
<stop offset="0.173306" stop-color="white" stop-opacity="0"/>
<stop offset="1" stop-color="white" stop-opacity="0.3"/>
</linearGradient>
<linearGradient id="paint6_linear_2101_32929" x1="25.6667" y1="25.3333" x2="24.5" y2="27.8333" gradientUnits="userSpaceOnUse">
<stop offset="0.173306" stop-color="white" stop-opacity="0"/>
<stop offset="1" stop-color="white" stop-opacity="0.3"/>
</linearGradient>
<linearGradient id="paint7_linear_2101_32929" x1="27.6667" y1="5.33333" x2="26.5" y2="7.83333" gradientUnits="userSpaceOnUse">
<stop offset="0.173306" stop-color="white" stop-opacity="0"/>
<stop offset="1" stop-color="white" stop-opacity="0.3"/>
</linearGradient>
<linearGradient id="paint8_linear_2101_32929" x1="38.3333" y1="22.6667" x2="36" y2="27.6667" gradientUnits="userSpaceOnUse">
<stop stop-color="white" stop-opacity="0.3"/>
<stop offset="0.826694" stop-color="white" stop-opacity="0"/>
</linearGradient>
</defs>
</svg>
