<svg width="28" height="28" viewBox="0 0 28 28" fill="none" xmlns="http://www.w3.org/2000/svg">
<path d="M17.1589 4.207C18.0645 3.07475 18.6787 1.554 18.5169 0C17.1912 0.065625 15.5742 0.874125 14.638 2.00813C13.7971 2.9785 13.0534 4.56312 13.2467 6.0515C14.7342 6.18012 16.2209 5.30775 17.1589 4.207Z" fill="url(#paint0_linear_2139_32681)"/>
<path d="M18.5003 6.34211C16.3399 6.21348 14.5024 7.56798 13.4708 7.56798C12.4392 7.56798 10.858 6.40686 9.14915 6.43748C6.9249 6.46986 4.86078 7.72811 3.73203 9.72836C1.41065 13.7297 3.11953 19.6657 5.37703 22.9242C6.4734 24.5369 7.79465 26.3122 9.5359 26.2484C11.1809 26.1836 11.8258 25.1835 13.8252 25.1835C15.8245 25.1835 16.4038 26.2484 18.145 26.216C19.951 26.1836 21.0798 24.6025 22.1762 22.989C23.4335 21.1506 23.9489 19.3761 23.9813 19.279C23.9489 19.2466 20.4988 17.9236 20.4673 13.9555C20.4349 10.6331 23.1754 9.05286 23.3049 8.95398C21.757 6.66498 19.3385 6.40686 18.5003 6.34211Z" fill="url(#paint1_linear_2139_32681)"/>
<defs>
<linearGradient id="paint0_linear_2139_32681" x1="15.8793" y1="0" x2="15.8793" y2="6.06411" gradientUnits="userSpaceOnUse">
<stop stop-color="#F8F8F8" stop-opacity="0.9"/>
<stop offset="1" stop-color="#F8F8F8" stop-opacity="0.3"/>
</linearGradient>
<linearGradient id="paint1_linear_2139_32681" x1="13.3031" y1="6.3335" x2="13.3031" y2="26.25" gradientUnits="userSpaceOnUse">
<stop stop-color="#F8F8F8" stop-opacity="0.9"/>
<stop offset="1" stop-color="#F8F8F8" stop-opacity="0.3"/>
</linearGradient>
</defs>
</svg>
