<svg width="20" height="20" viewBox="0 0 20 20" fill="none" xmlns="http://www.w3.org/2000/svg">
<path fill-rule="evenodd" clip-rule="evenodd" d="M11.25 1.25C11.25 0.559644 10.6904 0 10 0V0C9.30964 0 8.75 0.559644 8.75 1.25V4.75C8.75 6.95914 6.95914 8.75 4.75 8.75H1.25C0.559644 8.75 0 9.30964 0 10V10C0 10.6904 0.559644 11.25 1.25 11.25H4.75C6.95914 11.25 8.75 13.0409 8.75 15.25V18.75C8.75 19.4404 9.30964 20 10 20V20C10.6904 20 11.25 19.4404 11.25 18.75V15.25C11.25 13.0409 13.0409 11.25 15.25 11.25H18.75C19.4404 11.25 20 10.6904 20 10V10C20 9.30964 19.4404 8.75 18.75 8.75H15.25C13.0409 8.75 11.25 6.95914 11.25 4.75V1.25Z" fill="#F8F8F8"/>
</svg>
