<svg width="296" height="112" viewBox="0 0 296 112" fill="none" xmlns="http://www.w3.org/2000/svg">
<rect opacity="0.4" x="9" y="54" width="2" height="4" rx="1" fill="#F8F8F8"/>
<rect opacity="0.4" x="13" y="54" width="2" height="4" rx="1" fill="#F8F8F8"/>
<rect opacity="0.4" x="17" y="54" width="2" height="4" rx="1" fill="#F8F8F8"/>
<rect opacity="0.4" x="21" y="54" width="2" height="4" rx="1" fill="#F8F8F8"/>
<rect opacity="0.4" x="25" y="54" width="2" height="4" rx="1" fill="#F8F8F8"/>
<rect opacity="0.4" x="29" y="54" width="2" height="4" rx="1" fill="#F8F8F8"/>
<rect opacity="0.4" x="33" y="54" width="2" height="4" rx="1" fill="#F8F8F8"/>
<rect opacity="0.4" x="37" y="54" width="2" height="4" rx="1" fill="#F8F8F8"/>
<rect opacity="0.4" x="41" y="54" width="2" height="4" rx="1" fill="#F8F8F8"/>
<rect opacity="0.4" x="45" y="44" width="2" height="24" rx="1" fill="#F8F8F8"/>
<rect opacity="0.4" x="49" y="54" width="2" height="4" rx="1" fill="#F8F8F8"/>
<rect opacity="0.4" x="53" y="44" width="2" height="24" rx="1" fill="#F8F8F8"/>
<rect opacity="0.4" x="57" y="52" width="2" height="8" rx="1" fill="#F8F8F8"/>
<rect opacity="0.4" x="61" y="50" width="2" height="12" rx="1" fill="#F8F8F8"/>
<rect opacity="0.4" x="65" y="50.5" width="2" height="11" rx="1" fill="#F8F8F8"/>
<rect opacity="0.4" x="69" y="52" width="2" height="8" rx="1" fill="#F8F8F8"/>
<rect opacity="0.4" x="73" y="50.5" width="2" height="11" rx="1" fill="#F8F8F8"/>
<rect opacity="0.4" x="77" y="50.5" width="2" height="11" rx="1" fill="#F8F8F8"/>
<rect opacity="0.4" x="81" y="54" width="2" height="4" rx="1" fill="#F8F8F8"/>
<rect opacity="0.4" x="85" y="38" width="2" height="36" rx="1" fill="#F8F8F8"/>
<rect opacity="0.4" x="89" y="54" width="2" height="4" rx="1" fill="#F8F8F8"/>
<rect opacity="0.4" x="93" y="38" width="2" height="36" rx="1" fill="#F8F8F8"/>
<rect opacity="0.4" x="97" y="50" width="2" height="12" rx="1" fill="#F8F8F8"/>
<rect opacity="0.4" x="101" y="38" width="2" height="36" rx="1" fill="#F8F8F8"/>
<rect opacity="0.4" x="105" y="50" width="2" height="12" rx="1" fill="#F8F8F8"/>
<rect opacity="0.4" x="109" y="38" width="2" height="36" rx="1" fill="#F8F8F8"/>
<rect opacity="0.4" x="113" y="46" width="2" height="20" rx="1" fill="#F8F8F8"/>
<rect opacity="0.4" x="117" y="44" width="2" height="24" rx="1" fill="#F8F8F8"/>
<rect opacity="0.4" x="121" y="49.5" width="2" height="13" rx="1" fill="#F8F8F8"/>
<rect opacity="0.4" x="125" y="49.5" width="2" height="13" rx="1" fill="#F8F8F8"/>
<rect opacity="0.4" x="129" y="49.5" width="2" height="13" rx="1" fill="#F8F8F8"/>
<rect opacity="0.4" x="133" y="49.5" width="2" height="13" rx="1" fill="#F8F8F8"/>
<rect opacity="0.4" x="137" y="44" width="2" height="24" rx="1" fill="#F8F8F8"/>
<rect opacity="0.4" x="141" y="52" width="2" height="8" rx="1" fill="#F8F8F8"/>
<rect opacity="0.4" x="145" y="38" width="2" height="36" rx="1" fill="#F8F8F8"/>
<rect opacity="0.4" x="149" y="47.5" width="2" height="17" rx="1" fill="#F8F8F8"/>
<rect opacity="0.4" x="153" y="50" width="2" height="12" rx="1" fill="#F8F8F8"/>
<rect opacity="0.4" x="157" y="47.5" width="2" height="17" rx="1" fill="#F8F8F8"/>
<rect opacity="0.4" x="161" y="44" width="2" height="24" rx="1" fill="#F8F8F8"/>
<rect opacity="0.4" x="165" y="52" width="2" height="8" rx="1" fill="#F8F8F8"/>
<rect opacity="0.4" x="169" y="52" width="2" height="8" rx="1" fill="#F8F8F8"/>
<rect opacity="0.4" x="173" y="52" width="2" height="8" rx="1" fill="#F8F8F8"/>
<rect opacity="0.1" x="177" y="54" width="2" height="4" rx="1" fill="#F8F8F8"/>
<rect opacity="0.1" x="181" y="54" width="2" height="4" rx="1" fill="#F8F8F8"/>
<rect opacity="0.1" x="185" y="54" width="2" height="4" rx="1" fill="#F8F8F8"/>
<rect opacity="0.1" x="189" y="52" width="2" height="8" rx="1" fill="#F8F8F8"/>
<rect opacity="0.1" x="193" y="52" width="2" height="8" rx="1" fill="#F8F8F8"/>
<rect opacity="0.1" x="197" y="44" width="2" height="24" rx="1" fill="#F8F8F8"/>
<rect opacity="0.1" x="201" y="46" width="2" height="20" rx="1" fill="#F8F8F8"/>
<rect opacity="0.1" x="205" y="46" width="2" height="20" rx="1" fill="#F8F8F8"/>
<rect opacity="0.1" x="209" y="41" width="2" height="30" rx="1" fill="#F8F8F8"/>
<rect opacity="0.1" x="213" y="38" width="2" height="36" rx="1" fill="#F8F8F8"/>
<rect opacity="0.1" x="217" y="38" width="2" height="36" rx="1" fill="#F8F8F8"/>
<rect opacity="0.1" x="221" y="38" width="2" height="36" rx="1" fill="#F8F8F8"/>
<rect opacity="0.1" x="225" y="46" width="2" height="20" rx="1" fill="#F8F8F8"/>
<rect opacity="0.1" x="229" y="46" width="2" height="20" rx="1" fill="#F8F8F8"/>
<rect opacity="0.1" x="233" y="49.5" width="2" height="13" rx="1" fill="#F8F8F8"/>
<rect opacity="0.1" x="237" y="53.5" width="2" height="5" rx="1" fill="#F8F8F8"/>
<rect opacity="0.1" x="241" y="53.5" width="2" height="5" rx="1" fill="#F8F8F8"/>
<rect opacity="0.1" x="245" y="53.5" width="2" height="5" rx="1" fill="#F8F8F8"/>
<rect opacity="0.1" x="249" y="53.5" width="2" height="5" rx="1" fill="#F8F8F8"/>
<rect opacity="0.1" x="253" y="53.5" width="2" height="5" rx="1" fill="#F8F8F8"/>
<rect opacity="0.1" x="257" y="53.5" width="2" height="5" rx="1" fill="#F8F8F8"/>
<rect opacity="0.1" x="261" y="49.5" width="2" height="13" rx="1" fill="#F8F8F8"/>
<rect opacity="0.1" x="265" y="49.5" width="2" height="13" rx="1" fill="#F8F8F8"/>
<rect opacity="0.1" x="269" y="49.5" width="2" height="13" rx="1" fill="#F8F8F8"/>
<rect opacity="0.1" x="273" y="51.5" width="2" height="9" rx="1" fill="#F8F8F8"/>
<rect opacity="0.1" x="277" y="51.5" width="2" height="9" rx="1" fill="#F8F8F8"/>
<rect opacity="0.1" x="281" y="53" width="2" height="6" rx="1" fill="#F8F8F8"/>
<rect opacity="0.1" x="285" y="53" width="2" height="6" rx="1" fill="#F8F8F8"/>
</svg>
