<svg width="368" height="536" viewBox="0 0 368 536" fill="none" xmlns="http://www.w3.org/2000/svg">
<path opacity="0.75" fill-rule="evenodd" clip-rule="evenodd" d="M149.926 137.456C150.258 137.412 150.59 137.369 150.922 137.326L151.113 138.814C150.783 138.856 150.453 138.899 150.123 138.943L149.926 137.456ZM216.078 137.326C216.41 137.369 216.742 137.412 217.073 137.456L216.876 138.943C216.547 138.899 216.217 138.856 215.887 138.814L216.078 137.326ZM86.0956 154.659C86.4042 154.531 86.713 154.403 87.0222 154.275L87.594 155.662C87.2867 155.789 86.9797 155.916 86.6729 156.044L86.0956 154.659ZM279.978 154.275C280.287 154.403 280.596 154.531 280.904 154.66L280.327 156.044C280.02 155.916 279.713 155.789 279.406 155.662L279.978 154.275ZM28.9268 187.878C29.192 187.674 29.4576 187.47 29.7236 187.266L30.6353 188.457C30.3708 188.66 30.1068 188.863 29.8431 189.066L28.9268 187.878ZM337.276 187.266C337.542 187.47 337.808 187.674 338.073 187.878L337.157 189.066C336.893 188.863 336.629 188.66 336.365 188.457L337.276 187.266ZM-17.7339 234.724C-17.5303 234.458 -17.3262 234.192 -17.1216 233.927L-15.934 234.843C-16.1375 235.107 -16.3404 235.371 -16.5427 235.635L-17.7339 234.724ZM384.121 233.927C384.326 234.192 384.53 234.458 384.734 234.724L383.543 235.635C383.34 235.371 383.137 235.107 382.934 234.843L384.121 233.927ZM-50.7247 292.022C-50.5973 291.713 -50.4692 291.404 -50.3405 291.096L-48.956 291.673C-49.084 291.98 -49.2113 292.287 -49.338 292.594L-50.7247 292.022ZM417.34 291.096C417.469 291.404 417.597 291.713 417.725 292.022L416.338 292.594C416.211 292.287 416.084 291.98 415.956 291.673L417.34 291.096ZM-67.6741 355.922C-67.6314 355.59 -67.5881 355.258 -67.5442 354.926L-66.0572 355.123C-66.1009 355.453 -66.1439 355.783 -66.1863 356.113L-67.6741 355.922ZM434.544 354.926C434.588 355.258 434.631 355.59 434.674 355.922L433.186 356.113C433.144 355.783 433.101 355.453 433.057 355.123L434.544 354.926ZM-67.5442 422.073C-67.5881 421.742 -67.6314 421.41 -67.6741 421.078L-66.1863 420.887C-66.1439 421.217 -66.1009 421.547 -66.0572 421.876L-67.5442 422.073ZM434.674 421.078C434.631 421.41 434.588 421.742 434.544 422.073L433.057 421.876C433.101 421.547 433.144 421.217 433.186 420.887L434.674 421.078ZM-50.3405 485.904C-50.4692 485.596 -50.5973 485.287 -50.7248 484.978L-49.338 484.406C-49.2113 484.713 -49.084 485.02 -48.9561 485.327L-50.3405 485.904ZM417.552 485.395C417.482 485.565 417.411 485.735 417.34 485.904L415.956 485.327C416.084 485.02 416.211 484.713 416.338 484.406L417.724 484.978C417.667 485.117 417.61 485.256 417.552 485.395ZM-17.1216 543.073C-17.3262 542.808 -17.5304 542.542 -17.7339 542.276L-16.5428 541.365C-16.3404 541.629 -16.1375 541.893 -15.9341 542.157L-17.1216 543.073ZM384.734 542.276C384.53 542.542 384.326 542.808 384.121 543.073L382.934 542.157C383.05 542.006 383.166 541.855 383.282 541.704C383.369 541.591 383.456 541.478 383.542 541.365L384.734 542.276ZM29.7236 589.734C29.4576 589.53 29.192 589.326 28.9268 589.121L29.8431 587.934C30.1067 588.137 30.3708 588.34 30.6352 588.542L29.7236 589.734ZM337.636 589.457C337.516 589.55 337.396 589.642 337.276 589.734L336.365 588.543C336.629 588.34 336.893 588.137 337.157 587.934L338.073 589.121C337.928 589.234 337.782 589.346 337.636 589.457ZM87.0222 622.724C86.713 622.597 86.4041 622.469 86.0955 622.34L86.6729 620.956C86.9796 621.084 87.2866 621.211 87.594 621.338L87.0222 622.724ZM280.904 622.34C280.596 622.469 280.287 622.597 279.978 622.725L279.406 621.338C279.713 621.211 280.02 621.084 280.327 620.956L280.904 622.34ZM150.922 639.674C150.59 639.631 150.258 639.588 149.926 639.544L150.123 638.057C150.453 638.101 150.783 638.144 151.113 638.186L150.922 639.674ZM217.073 639.544C216.742 639.588 216.41 639.631 216.078 639.674L215.887 638.186C216.217 638.144 216.547 638.101 216.876 638.057L217.073 639.544Z" fill="#F8F8F8"/>
<circle opacity="0.1" cx="183.5" cy="388.5" r="180.5" stroke="#F8F8F8" stroke-width="4" stroke-dasharray="1 24"/>
<circle opacity="0.1" cx="183.5" cy="388.5" r="326.5" stroke="#F8F8F8" stroke-width="4" stroke-dasharray="1 24"/>
<mask id="mask0_2068_17197" style="mask-type:alpha" maskUnits="userSpaceOnUse" x="14" y="21" width="337" height="326">
<rect x="14.9995" y="21" width="336" height="326" fill="url(#paint0_linear_2068_17197)"/>
</mask>
<g mask="url(#mask0_2068_17197)">
<g filter="url(#filter0_b_2068_17197)">
<circle cx="-35.1729" cy="262.25" r="24" transform="rotate(-60 -35.1729 262.25)" fill="#F8F8F8" fill-opacity="0.05" style="mix-blend-mode:luminosity" shape-rendering="crispEdges"/>
<circle cx="-35.1729" cy="262.25" r="23.25" transform="rotate(-60 -35.1729 262.25)" stroke="url(#paint1_linear_2068_17197)" stroke-opacity="0.25" stroke-width="1.5" shape-rendering="crispEdges"/>
</g>
<g filter="url(#filter1_bd_2068_17197)">
<circle cx="4.95431" cy="209.956" r="24" transform="rotate(-45 4.95431 209.956)" fill="#F8F8F8" fill-opacity="0.05" style="mix-blend-mode:luminosity" shape-rendering="crispEdges"/>
<circle cx="4.95431" cy="209.956" r="23.25" transform="rotate(-45 4.95431 209.956)" stroke="url(#paint2_linear_2068_17197)" stroke-opacity="0.25" stroke-width="1.5" shape-rendering="crispEdges"/>
</g>
<g filter="url(#filter2_bd_2068_17197)">
<circle cx="57.249" cy="169.829" r="24" transform="rotate(-30 57.249 169.829)" fill="#F8F8F8" fill-opacity="0.05" style="mix-blend-mode:luminosity" shape-rendering="crispEdges"/>
<circle cx="57.249" cy="169.829" r="23.25" transform="rotate(-30 57.249 169.829)" stroke="url(#paint3_linear_2068_17197)" stroke-opacity="0.25" stroke-width="1.5" shape-rendering="crispEdges"/>
</g>
<path d="M60.2536 174.029C59.7848 174.3 59.3197 174.493 58.8583 174.608C58.4003 174.711 57.9669 174.735 57.558 174.68C57.1525 174.612 56.7819 174.465 56.4464 174.239C56.1108 174.012 55.8287 173.701 55.6 173.305C55.3153 172.812 55.1875 172.32 55.2166 171.829C55.2538 171.333 55.4167 170.878 55.7054 170.463C55.2829 170.459 54.8963 170.359 54.5459 170.163C54.1954 169.966 53.9011 169.662 53.6631 169.25C53.3831 168.765 53.2647 168.289 53.3077 167.822C53.3542 167.343 53.538 166.886 53.859 166.453C54.1882 166.015 54.6397 165.631 55.2136 165.299C55.7794 164.973 56.3302 164.779 56.8659 164.717C57.405 164.643 57.8898 164.708 58.3202 164.912C58.7587 165.112 59.1156 165.45 59.3909 165.927C59.6289 166.339 59.7477 166.75 59.7472 167.16C59.742 167.562 59.6396 167.944 59.4397 168.307C59.9431 168.265 60.4147 168.353 60.8544 168.574C61.3023 168.789 61.6685 169.144 61.9532 169.637C62.2565 170.162 62.3868 170.696 62.3441 171.238C62.2967 171.772 62.0952 172.281 61.7396 172.767C61.3794 173.244 60.8841 173.665 60.2536 174.029ZM59.6936 173.059C60.0654 172.844 60.3635 172.586 60.5879 172.284C60.8123 171.982 60.9458 171.662 60.9882 171.325C61.0261 170.98 60.9517 170.646 60.765 170.323C60.5737 169.991 60.3237 169.764 60.0152 169.64C59.7021 169.508 59.361 169.468 58.9919 169.52C58.6182 169.563 58.2454 169.692 57.8736 169.907C57.5018 170.121 57.1996 170.382 56.9671 170.689C56.7381 170.983 56.6023 171.298 56.5598 171.635C56.5126 171.964 56.5847 172.294 56.7761 172.626C56.9627 172.949 57.215 173.181 57.5328 173.32C57.846 173.452 58.1894 173.496 58.5631 173.453C58.945 173.405 59.3218 173.274 59.6936 173.059ZM57.3206 168.949C57.6277 168.771 57.878 168.552 58.0713 168.289C58.2727 168.022 58.3942 167.747 58.4358 167.464C58.4854 167.177 58.4309 166.896 58.2722 166.621C58.1136 166.346 57.8991 166.152 57.6289 166.039C57.3667 165.921 57.0719 165.886 56.7445 165.935C56.4206 165.971 56.0969 166.083 55.7736 166.269C55.4503 166.456 55.1879 166.683 54.9865 166.95C54.7885 167.204 54.6711 167.477 54.6342 167.768C54.5973 168.059 54.6581 168.341 54.8168 168.616C54.9801 168.899 55.1969 169.097 55.4672 169.211C55.7327 169.316 56.0252 169.346 56.3445 169.302C56.6719 169.253 56.9973 169.135 57.3206 168.949Z" fill="#F8F8F8" fill-opacity="0.7"/>
<g filter="url(#filter3_bd_2068_17197)">
<circle cx="118.147" cy="144.603" r="24" transform="rotate(-15 118.147 144.603)" fill="#F8F8F8" fill-opacity="0.05" style="mix-blend-mode:luminosity" shape-rendering="crispEdges"/>
<circle cx="118.147" cy="144.603" r="23.25" transform="rotate(-15 118.147 144.603)" stroke="url(#paint4_linear_2068_17197)" stroke-opacity="0.25" stroke-width="1.5" shape-rendering="crispEdges"/>
</g>
<path d="M117.99 149.822C117.909 149.844 117.834 149.835 117.765 149.795C117.703 149.744 117.661 149.678 117.64 149.597C117.632 149.57 117.63 149.527 117.634 149.468L118.892 140.695L114.457 141.884C114.367 141.908 114.283 141.902 114.205 141.864C114.134 141.816 114.087 141.746 114.062 141.656L113.918 141.115C113.891 141.016 113.897 140.932 113.937 140.864C113.983 140.784 114.051 140.732 114.142 140.707L119.686 139.222C119.785 139.195 119.87 139.206 119.941 139.255C120.019 139.292 120.071 139.36 120.098 139.459L120.232 139.96C120.263 140.077 120.279 140.174 120.281 140.251C120.282 140.328 120.277 140.416 120.265 140.516L119.008 149.187C119 149.266 118.976 149.355 118.934 149.453C118.9 149.54 118.828 149.597 118.72 149.626L117.99 149.822Z" fill="#F8F8F8" fill-opacity="0.7"/>
<g filter="url(#filter4_bi_2068_17197)">
<g clip-path="url(#clip0_2068_17197)">
<rect x="158" y="90" width="52" height="92" rx="26" fill="url(#paint5_linear_2068_17197)" fill-opacity="0.05"/>
<g filter="url(#filter5_bd_2068_17197)">
<rect x="162" y="94" width="44" height="84" rx="22" fill="#F8F8F8" fill-opacity="0.05" style="mix-blend-mode:luminosity" shape-rendering="crispEdges"/>
<rect x="162.75" y="94.75" width="42.5" height="82.5" rx="21.25" stroke="url(#paint6_linear_2068_17197)" stroke-opacity="0.25" stroke-width="1.5" shape-rendering="crispEdges"/>
<path d="M184.002 141.16C183.383 141.16 182.812 141.085 182.29 140.936C181.778 140.776 181.335 140.552 180.962 140.264C180.599 139.965 180.316 139.608 180.114 139.192C179.911 138.776 179.81 138.307 179.81 137.784C179.81 137.133 179.964 136.573 180.274 136.104C180.594 135.635 181.015 135.277 181.538 135.032C181.122 134.787 180.796 134.467 180.562 134.072C180.327 133.677 180.21 133.208 180.21 132.664C180.21 132.024 180.364 131.485 180.674 131.048C180.994 130.6 181.436 130.253 182.002 130.008C182.578 129.763 183.244 129.64 184.002 129.64C184.748 129.64 185.404 129.763 185.97 130.008C186.546 130.243 186.988 130.584 187.298 131.032C187.618 131.48 187.778 132.019 187.778 132.648C187.778 133.192 187.66 133.667 187.426 134.072C187.191 134.467 186.871 134.787 186.466 135.032C186.988 135.277 187.404 135.635 187.714 136.104C188.034 136.573 188.194 137.133 188.194 137.784C188.194 138.477 188.018 139.08 187.666 139.592C187.314 140.093 186.823 140.483 186.194 140.76C185.564 141.027 184.834 141.16 184.002 141.16ZM184.002 139.88C184.492 139.88 184.935 139.795 185.33 139.624C185.724 139.453 186.039 139.213 186.274 138.904C186.508 138.584 186.626 138.211 186.626 137.784C186.626 137.347 186.508 136.979 186.274 136.68C186.039 136.371 185.724 136.136 185.33 135.976C184.935 135.805 184.492 135.72 184.002 135.72C183.511 135.72 183.063 135.805 182.658 135.976C182.263 136.136 181.948 136.371 181.714 136.68C181.479 136.979 181.362 137.347 181.362 137.784C181.362 138.211 181.479 138.584 181.714 138.904C181.948 139.213 182.263 139.453 182.658 139.624C183.063 139.795 183.511 139.88 184.002 139.88ZM184.002 134.456C184.407 134.456 184.78 134.381 185.122 134.232C185.474 134.083 185.751 133.88 185.954 133.624C186.167 133.368 186.274 133.059 186.274 132.696C186.274 132.333 186.172 132.019 185.97 131.752C185.778 131.485 185.506 131.283 185.154 131.144C184.812 130.995 184.428 130.92 184.002 130.92C183.575 130.92 183.186 130.995 182.834 131.144C182.492 131.283 182.22 131.485 182.018 131.752C181.815 132.019 181.714 132.333 181.714 132.696C181.714 133.069 181.815 133.389 182.018 133.656C182.22 133.912 182.492 134.109 182.834 134.248C183.186 134.387 183.575 134.456 184.002 134.456Z" fill="#F8F8F8" fill-opacity="0.95"/>
</g>
</g>
<rect x="158.75" y="90.75" width="50.5" height="90.5" rx="25.25" stroke="white" stroke-opacity="0.4" stroke-width="1.5"/>
</g>
<g filter="url(#filter6_bd_2068_17197)">
<circle cx="248.851" cy="144.603" r="24" transform="rotate(15 248.851 144.603)" fill="#F8F8F8" fill-opacity="0.05" style="mix-blend-mode:luminosity" shape-rendering="crispEdges"/>
<circle cx="248.851" cy="144.603" r="23.25" transform="rotate(15 248.851 144.603)" stroke="url(#paint7_linear_2068_17197)" stroke-opacity="0.25" stroke-width="1.5" shape-rendering="crispEdges"/>
</g>
<path d="M246.642 149.188C246.561 149.166 246.5 149.121 246.461 149.052C246.432 148.977 246.429 148.899 246.451 148.818C246.463 148.773 246.477 148.738 246.493 148.713C246.519 148.691 246.538 148.672 246.552 148.657L249.393 146.331C249.153 146.324 248.902 146.286 248.641 146.216C248.139 146.072 247.712 145.861 247.361 145.583C247.01 145.306 246.734 144.985 246.532 144.622C246.332 144.249 246.21 143.859 246.164 143.451C246.119 143.043 246.151 142.636 246.26 142.23C246.366 141.833 246.537 141.464 246.774 141.121C247.02 140.781 247.323 140.495 247.685 140.264C248.056 140.035 248.477 139.887 248.949 139.82C249.423 139.744 249.949 139.783 250.526 139.938C251.094 140.09 251.566 140.313 251.941 140.607C252.328 140.894 252.625 141.23 252.831 141.614C253.049 141.991 253.175 142.387 253.208 142.802C253.251 143.219 253.218 143.631 253.109 144.036C253.01 144.406 252.866 144.73 252.675 145.007C252.485 145.285 252.281 145.525 252.062 145.727C251.853 145.932 251.648 146.118 251.448 146.287L247.877 149.229C247.829 149.264 247.764 149.31 247.681 149.365C247.601 149.411 247.498 149.417 247.372 149.384L246.642 149.188ZM249.124 145.171C249.502 145.273 249.871 145.285 250.23 145.207C250.601 145.123 250.921 144.957 251.19 144.71C251.461 144.455 251.654 144.115 251.767 143.691C251.881 143.267 251.883 142.881 251.773 142.533C251.666 142.176 251.472 141.873 251.191 141.623C250.921 141.368 250.597 141.189 250.218 141.088C249.848 140.988 249.483 140.982 249.122 141.069C248.763 141.147 248.447 141.314 248.176 141.569C247.907 141.816 247.715 142.151 247.602 142.575C247.488 142.999 247.485 143.389 247.592 143.747C247.702 144.095 247.892 144.397 248.161 144.653C248.433 144.899 248.754 145.072 249.124 145.171Z" fill="#F8F8F8" fill-opacity="0.7"/>
<g filter="url(#filter7_bd_2068_17197)">
<circle cx="309.749" cy="169.829" r="24" transform="rotate(30 309.749 169.829)" fill="#F8F8F8" fill-opacity="0.05" style="mix-blend-mode:luminosity" shape-rendering="crispEdges"/>
<circle cx="309.749" cy="169.829" r="23.25" transform="rotate(30 309.749 169.829)" stroke="url(#paint8_linear_2068_17197)" stroke-opacity="0.25" stroke-width="1.5" shape-rendering="crispEdges"/>
</g>
<path d="M304.587 172.622C304.506 172.575 304.452 172.511 304.423 172.43C304.407 172.346 304.423 172.263 304.469 172.182L308.389 165.392L305.481 165.782C305.388 165.793 305.308 165.774 305.24 165.724C305.172 165.674 305.132 165.602 305.121 165.51L305.037 164.928C305.03 164.827 305.052 164.743 305.102 164.674C305.16 164.611 305.235 164.574 305.328 164.563L309.147 164.052C309.227 164.044 309.294 164.05 309.347 164.07C309.4 164.09 309.455 164.116 309.511 164.149L310.13 164.506C310.211 164.552 310.259 164.618 310.275 164.703C310.295 164.779 310.282 164.858 310.236 164.939L305.658 172.868C305.611 172.949 305.547 173.004 305.466 173.032C305.389 173.053 305.311 173.04 305.23 172.993L304.587 172.622ZM310.2 176.024C309.643 175.702 309.219 175.344 308.929 174.951C308.652 174.553 308.48 174.131 308.415 173.684C308.35 173.237 308.375 172.783 308.491 172.321C308.614 171.865 308.796 171.409 309.037 170.955C309.155 170.732 309.28 170.497 309.412 170.25C309.552 170.008 309.692 169.765 309.832 169.523C309.984 169.277 310.13 169.043 310.269 168.822C310.534 168.382 310.837 167.996 311.179 167.666C311.533 167.331 311.914 167.082 312.321 166.919C312.741 166.752 313.194 166.695 313.68 166.749C314.171 166.796 314.691 166.977 315.24 167.295C315.798 167.617 316.216 167.976 316.493 168.373C316.783 168.767 316.96 169.188 317.025 169.635C317.095 170.074 317.07 170.528 316.95 170.998C316.842 171.464 316.664 171.921 316.416 172.371C316.293 172.602 316.16 172.842 316.015 173.093C315.883 173.34 315.743 173.582 315.595 173.82C315.455 174.063 315.318 174.291 315.184 174.504C314.919 174.944 314.612 175.327 314.262 175.653C313.92 175.984 313.539 176.233 313.119 176.4C312.708 176.572 312.257 176.635 311.766 176.589C311.288 176.539 310.766 176.351 310.2 176.024ZM310.795 174.994C311.426 175.358 312.01 175.42 312.547 175.18C313.096 174.937 313.583 174.458 314.006 173.744C314.158 173.519 314.297 173.297 314.423 173.079C314.553 172.852 314.682 172.63 314.808 172.412C314.938 172.186 315.059 171.959 315.168 171.731C315.566 171.023 315.733 170.37 315.669 169.773C315.617 169.172 315.276 168.689 314.645 168.325C314.023 167.966 313.435 167.912 312.88 168.163C312.338 168.41 311.856 168.881 311.434 169.575C311.308 169.793 311.176 170.013 311.037 170.235C310.911 170.453 310.783 170.675 310.652 170.902C310.534 171.125 310.408 171.353 310.272 171.588C309.873 172.316 309.706 172.98 309.77 173.577C309.839 174.167 310.181 174.639 310.795 174.994Z" fill="#F8F8F8" fill-opacity="0.7"/>
<g filter="url(#filter8_bd_2068_17197)">
<circle cx="362.044" cy="209.956" r="24" transform="rotate(45 362.044 209.956)" fill="#F8F8F8" fill-opacity="0.05" style="mix-blend-mode:luminosity" shape-rendering="crispEdges"/>
<circle cx="362.044" cy="209.956" r="23.25" transform="rotate(45 362.044 209.956)" stroke="url(#paint9_linear_2068_17197)" stroke-opacity="0.25" stroke-width="1.5" shape-rendering="crispEdges"/>
</g>
<g filter="url(#filter9_b_2068_17197)">
<circle cx="402.172" cy="262.25" r="24" transform="rotate(60 402.172 262.25)" fill="#F8F8F8" fill-opacity="0.05" style="mix-blend-mode:luminosity" shape-rendering="crispEdges"/>
<circle cx="402.172" cy="262.25" r="23.25" transform="rotate(60 402.172 262.25)" stroke="url(#paint10_linear_2068_17197)" stroke-opacity="0.25" stroke-width="1.5" shape-rendering="crispEdges"/>
</g>
</g>
<g filter="url(#filter10_d_2068_17197)">
<rect x="116" y="248" width="136" height="48" rx="8" fill="#F8F8F8" fill-opacity="0.05" style="mix-blend-mode:luminosity" shape-rendering="crispEdges"/>
<rect x="116.5" y="248.5" width="135" height="47" rx="7.5" stroke="url(#paint11_linear_2068_17197)" stroke-opacity="0.25" shape-rendering="crispEdges"/>
<rect x="162" y="270" width="44" height="4" rx="1" fill="#F8F8F8" fill-opacity="0.95"/>
</g>
<path opacity="0.2" d="M159 21C157.895 21 157 21.759 157 22.6953C157 23.6316 157.895 24.3906 159 24.3906H176.323C177.396 24.3906 178.424 24.8214 179.176 25.5863L182.232 28.695C182.632 29.1017 183.368 29.1017 183.768 28.695L186.824 25.5863C187.576 24.8214 188.604 24.3906 189.677 24.3906H207C208.105 24.3906 209 23.6316 209 22.6953C209 21.759 208.105 21 207 21H159Z" fill="#F8F8F8"/>
<defs>
<filter id="filter0_b_2068_17197" x="-91.1769" y="206.246" width="112.008" height="112.008" filterUnits="userSpaceOnUse" color-interpolation-filters="sRGB">
<feFlood flood-opacity="0" result="BackgroundImageFix"/>
<feGaussianBlur in="BackgroundImageFix" stdDeviation="16"/>
<feComposite in2="SourceAlpha" operator="in" result="effect1_backgroundBlur_2068_17197"/>
<feBlend mode="normal" in="SourceGraphic" in2="effect1_backgroundBlur_2068_17197" result="shape"/>
</filter>
<filter id="filter1_bd_2068_17197" x="-51.0457" y="153.956" width="112" height="128" filterUnits="userSpaceOnUse" color-interpolation-filters="sRGB">
<feFlood flood-opacity="0" result="BackgroundImageFix"/>
<feGaussianBlur in="BackgroundImageFix" stdDeviation="16"/>
<feComposite in2="SourceAlpha" operator="in" result="effect1_backgroundBlur_2068_17197"/>
<feColorMatrix in="SourceAlpha" type="matrix" values="0 0 0 0 0 0 0 0 0 0 0 0 0 0 0 0 0 0 127 0" result="hardAlpha"/>
<feOffset dy="24"/>
<feGaussianBlur stdDeviation="12"/>
<feComposite in2="hardAlpha" operator="out"/>
<feColorMatrix type="matrix" values="0 0 0 0 0 0 0 0 0 0 0 0 0 0 0 0 0 0 0.3 0"/>
<feBlend mode="multiply" in2="effect1_backgroundBlur_2068_17197" result="effect2_dropShadow_2068_17197"/>
<feBlend mode="normal" in="SourceGraphic" in2="effect2_dropShadow_2068_17197" result="shape"/>
</filter>
<filter id="filter2_bd_2068_17197" x="-66.755" y="45.8245" width="248.008" height="248.008" filterUnits="userSpaceOnUse" color-interpolation-filters="sRGB">
<feFlood flood-opacity="0" result="BackgroundImageFix"/>
<feGaussianBlur in="BackgroundImageFix" stdDeviation="50"/>
<feComposite in2="SourceAlpha" operator="in" result="effect1_backgroundBlur_2068_17197"/>
<feColorMatrix in="SourceAlpha" type="matrix" values="0 0 0 0 0 0 0 0 0 0 0 0 0 0 0 0 0 0 127 0" result="hardAlpha"/>
<feOffset dy="24"/>
<feGaussianBlur stdDeviation="12"/>
<feComposite in2="hardAlpha" operator="out"/>
<feColorMatrix type="matrix" values="0 0 0 0 0 0 0 0 0 0 0 0 0 0 0 0 0 0 0.3 0"/>
<feBlend mode="multiply" in2="effect1_backgroundBlur_2068_17197" result="effect2_dropShadow_2068_17197"/>
<feBlend mode="normal" in="SourceGraphic" in2="effect2_dropShadow_2068_17197" result="shape"/>
</filter>
<filter id="filter3_bd_2068_17197" x="-5.85864" y="20.5974" width="248.012" height="248.012" filterUnits="userSpaceOnUse" color-interpolation-filters="sRGB">
<feFlood flood-opacity="0" result="BackgroundImageFix"/>
<feGaussianBlur in="BackgroundImageFix" stdDeviation="50"/>
<feComposite in2="SourceAlpha" operator="in" result="effect1_backgroundBlur_2068_17197"/>
<feColorMatrix in="SourceAlpha" type="matrix" values="0 0 0 0 0 0 0 0 0 0 0 0 0 0 0 0 0 0 127 0" result="hardAlpha"/>
<feOffset dy="24"/>
<feGaussianBlur stdDeviation="12"/>
<feComposite in2="hardAlpha" operator="out"/>
<feColorMatrix type="matrix" values="0 0 0 0 0 0 0 0 0 0 0 0 0 0 0 0 0 0 0.3 0"/>
<feBlend mode="multiply" in2="effect1_backgroundBlur_2068_17197" result="effect2_dropShadow_2068_17197"/>
<feBlend mode="normal" in="SourceGraphic" in2="effect2_dropShadow_2068_17197" result="shape"/>
</filter>
<filter id="filter4_bi_2068_17197" x="57.9995" y="-10" width="252" height="292" filterUnits="userSpaceOnUse" color-interpolation-filters="sRGB">
<feFlood flood-opacity="0" result="BackgroundImageFix"/>
<feGaussianBlur in="BackgroundImageFix" stdDeviation="50"/>
<feComposite in2="SourceAlpha" operator="in" result="effect1_backgroundBlur_2068_17197"/>
<feBlend mode="normal" in="SourceGraphic" in2="effect1_backgroundBlur_2068_17197" result="shape"/>
<feColorMatrix in="SourceAlpha" type="matrix" values="0 0 0 0 0 0 0 0 0 0 0 0 0 0 0 0 0 0 127 0" result="hardAlpha"/>
<feOffset dx="2" dy="4"/>
<feGaussianBlur stdDeviation="8"/>
<feComposite in2="hardAlpha" operator="arithmetic" k2="-1" k3="1"/>
<feColorMatrix type="matrix" values="0 0 0 0 0.972549 0 0 0 0 0.972549 0 0 0 0 0.972549 0 0 0 0.06 0"/>
<feBlend mode="normal" in2="shape" result="effect2_innerShadow_2068_17197"/>
</filter>
<filter id="filter5_bd_2068_17197" x="61.9995" y="-6" width="244" height="284" filterUnits="userSpaceOnUse" color-interpolation-filters="sRGB">
<feFlood flood-opacity="0" result="BackgroundImageFix"/>
<feGaussianBlur in="BackgroundImageFix" stdDeviation="50"/>
<feComposite in2="SourceAlpha" operator="in" result="effect1_backgroundBlur_2068_17197"/>
<feColorMatrix in="SourceAlpha" type="matrix" values="0 0 0 0 0 0 0 0 0 0 0 0 0 0 0 0 0 0 127 0" result="hardAlpha"/>
<feOffset dy="24"/>
<feGaussianBlur stdDeviation="12"/>
<feComposite in2="hardAlpha" operator="out"/>
<feColorMatrix type="matrix" values="0 0 0 0 0 0 0 0 0 0 0 0 0 0 0 0 0 0 0.3 0"/>
<feBlend mode="multiply" in2="effect1_backgroundBlur_2068_17197" result="effect2_dropShadow_2068_17197"/>
<feBlend mode="normal" in="SourceGraphic" in2="effect2_dropShadow_2068_17197" result="shape"/>
</filter>
<filter id="filter6_bd_2068_17197" x="124.845" y="20.5974" width="248.012" height="248.012" filterUnits="userSpaceOnUse" color-interpolation-filters="sRGB">
<feFlood flood-opacity="0" result="BackgroundImageFix"/>
<feGaussianBlur in="BackgroundImageFix" stdDeviation="50"/>
<feComposite in2="SourceAlpha" operator="in" result="effect1_backgroundBlur_2068_17197"/>
<feColorMatrix in="SourceAlpha" type="matrix" values="0 0 0 0 0 0 0 0 0 0 0 0 0 0 0 0 0 0 127 0" result="hardAlpha"/>
<feOffset dy="24"/>
<feGaussianBlur stdDeviation="12"/>
<feComposite in2="hardAlpha" operator="out"/>
<feColorMatrix type="matrix" values="0 0 0 0 0 0 0 0 0 0 0 0 0 0 0 0 0 0 0.3 0"/>
<feBlend mode="multiply" in2="effect1_backgroundBlur_2068_17197" result="effect2_dropShadow_2068_17197"/>
<feBlend mode="normal" in="SourceGraphic" in2="effect2_dropShadow_2068_17197" result="shape"/>
</filter>
<filter id="filter7_bd_2068_17197" x="185.745" y="45.8245" width="248.008" height="248.008" filterUnits="userSpaceOnUse" color-interpolation-filters="sRGB">
<feFlood flood-opacity="0" result="BackgroundImageFix"/>
<feGaussianBlur in="BackgroundImageFix" stdDeviation="50"/>
<feComposite in2="SourceAlpha" operator="in" result="effect1_backgroundBlur_2068_17197"/>
<feColorMatrix in="SourceAlpha" type="matrix" values="0 0 0 0 0 0 0 0 0 0 0 0 0 0 0 0 0 0 127 0" result="hardAlpha"/>
<feOffset dy="24"/>
<feGaussianBlur stdDeviation="12"/>
<feComposite in2="hardAlpha" operator="out"/>
<feColorMatrix type="matrix" values="0 0 0 0 0 0 0 0 0 0 0 0 0 0 0 0 0 0 0.3 0"/>
<feBlend mode="multiply" in2="effect1_backgroundBlur_2068_17197" result="effect2_dropShadow_2068_17197"/>
<feBlend mode="normal" in="SourceGraphic" in2="effect2_dropShadow_2068_17197" result="shape"/>
</filter>
<filter id="filter8_bd_2068_17197" x="306.044" y="153.956" width="112" height="128" filterUnits="userSpaceOnUse" color-interpolation-filters="sRGB">
<feFlood flood-opacity="0" result="BackgroundImageFix"/>
<feGaussianBlur in="BackgroundImageFix" stdDeviation="16"/>
<feComposite in2="SourceAlpha" operator="in" result="effect1_backgroundBlur_2068_17197"/>
<feColorMatrix in="SourceAlpha" type="matrix" values="0 0 0 0 0 0 0 0 0 0 0 0 0 0 0 0 0 0 127 0" result="hardAlpha"/>
<feOffset dy="24"/>
<feGaussianBlur stdDeviation="12"/>
<feComposite in2="hardAlpha" operator="out"/>
<feColorMatrix type="matrix" values="0 0 0 0 0 0 0 0 0 0 0 0 0 0 0 0 0 0 0.3 0"/>
<feBlend mode="multiply" in2="effect1_backgroundBlur_2068_17197" result="effect2_dropShadow_2068_17197"/>
<feBlend mode="normal" in="SourceGraphic" in2="effect2_dropShadow_2068_17197" result="shape"/>
</filter>
<filter id="filter9_b_2068_17197" x="346.168" y="206.246" width="112.008" height="112.008" filterUnits="userSpaceOnUse" color-interpolation-filters="sRGB">
<feFlood flood-opacity="0" result="BackgroundImageFix"/>
<feGaussianBlur in="BackgroundImageFix" stdDeviation="16"/>
<feComposite in2="SourceAlpha" operator="in" result="effect1_backgroundBlur_2068_17197"/>
<feBlend mode="normal" in="SourceGraphic" in2="effect1_backgroundBlur_2068_17197" result="shape"/>
</filter>
<filter id="filter10_d_2068_17197" x="92" y="248" width="184" height="96" filterUnits="userSpaceOnUse" color-interpolation-filters="sRGB">
<feFlood flood-opacity="0" result="BackgroundImageFix"/>
<feColorMatrix in="SourceAlpha" type="matrix" values="0 0 0 0 0 0 0 0 0 0 0 0 0 0 0 0 0 0 127 0" result="hardAlpha"/>
<feOffset dy="24"/>
<feGaussianBlur stdDeviation="12"/>
<feComposite in2="hardAlpha" operator="out"/>
<feColorMatrix type="matrix" values="0 0 0 0 0 0 0 0 0 0 0 0 0 0 0 0 0 0 0.3 0"/>
<feBlend mode="multiply" in2="BackgroundImageFix" result="effect1_dropShadow_2068_17197"/>
<feBlend mode="normal" in="SourceGraphic" in2="effect1_dropShadow_2068_17197" result="shape"/>
</filter>
<linearGradient id="paint0_linear_2068_17197" x1="351" y1="184" x2="14.9995" y2="184" gradientUnits="userSpaceOnUse">
<stop stop-opacity="0"/>
<stop offset="0.15"/>
<stop offset="0.85"/>
<stop offset="1" stop-opacity="0"/>
</linearGradient>
<linearGradient id="paint1_linear_2068_17197" x1="-35.1729" y1="238.25" x2="-14.292" y2="290.96" gradientUnits="userSpaceOnUse">
<stop stop-color="white" stop-opacity="0.4"/>
<stop offset="0.4" stop-color="white" stop-opacity="0.01"/>
<stop offset="0.6" stop-color="white" stop-opacity="0.01"/>
<stop offset="1" stop-color="white" stop-opacity="0.1"/>
</linearGradient>
<linearGradient id="paint2_linear_2068_17197" x1="4.95431" y1="185.956" x2="25.8353" y2="238.665" gradientUnits="userSpaceOnUse">
<stop stop-color="white" stop-opacity="0.4"/>
<stop offset="0.4" stop-color="white" stop-opacity="0.01"/>
<stop offset="0.6" stop-color="white" stop-opacity="0.01"/>
<stop offset="1" stop-color="white" stop-opacity="0.1"/>
</linearGradient>
<linearGradient id="paint3_linear_2068_17197" x1="57.249" y1="145.829" x2="78.1299" y2="198.538" gradientUnits="userSpaceOnUse">
<stop stop-color="white" stop-opacity="0.4"/>
<stop offset="0.4" stop-color="white" stop-opacity="0.01"/>
<stop offset="0.6" stop-color="white" stop-opacity="0.01"/>
<stop offset="1" stop-color="white" stop-opacity="0.1"/>
</linearGradient>
<linearGradient id="paint4_linear_2068_17197" x1="118.147" y1="120.603" x2="139.028" y2="173.313" gradientUnits="userSpaceOnUse">
<stop stop-color="white" stop-opacity="0.4"/>
<stop offset="0.4" stop-color="white" stop-opacity="0.01"/>
<stop offset="0.6" stop-color="white" stop-opacity="0.01"/>
<stop offset="1" stop-color="white" stop-opacity="0.1"/>
</linearGradient>
<linearGradient id="paint5_linear_2068_17197" x1="184" y1="90" x2="184" y2="182" gradientUnits="userSpaceOnUse">
<stop stop-color="white" stop-opacity="0"/>
<stop offset="1" stop-color="white" stop-opacity="0.05"/>
</linearGradient>
<linearGradient id="paint6_linear_2068_17197" x1="184" y1="94" x2="235.342" y2="161.888" gradientUnits="userSpaceOnUse">
<stop stop-color="white" stop-opacity="0.4"/>
<stop offset="0.4" stop-color="white" stop-opacity="0.01"/>
<stop offset="0.6" stop-color="white" stop-opacity="0.01"/>
<stop offset="1" stop-color="white" stop-opacity="0.1"/>
</linearGradient>
<linearGradient id="paint7_linear_2068_17197" x1="248.851" y1="120.603" x2="269.732" y2="173.313" gradientUnits="userSpaceOnUse">
<stop stop-color="white" stop-opacity="0.4"/>
<stop offset="0.4" stop-color="white" stop-opacity="0.01"/>
<stop offset="0.6" stop-color="white" stop-opacity="0.01"/>
<stop offset="1" stop-color="white" stop-opacity="0.1"/>
</linearGradient>
<linearGradient id="paint8_linear_2068_17197" x1="309.749" y1="145.829" x2="330.63" y2="198.538" gradientUnits="userSpaceOnUse">
<stop stop-color="white" stop-opacity="0.4"/>
<stop offset="0.4" stop-color="white" stop-opacity="0.01"/>
<stop offset="0.6" stop-color="white" stop-opacity="0.01"/>
<stop offset="1" stop-color="white" stop-opacity="0.1"/>
</linearGradient>
<linearGradient id="paint9_linear_2068_17197" x1="362.044" y1="185.956" x2="382.925" y2="238.666" gradientUnits="userSpaceOnUse">
<stop stop-color="white" stop-opacity="0.4"/>
<stop offset="0.4" stop-color="white" stop-opacity="0.01"/>
<stop offset="0.6" stop-color="white" stop-opacity="0.01"/>
<stop offset="1" stop-color="white" stop-opacity="0.1"/>
</linearGradient>
<linearGradient id="paint10_linear_2068_17197" x1="402.172" y1="238.25" x2="423.053" y2="290.96" gradientUnits="userSpaceOnUse">
<stop stop-color="white" stop-opacity="0.4"/>
<stop offset="0.4" stop-color="white" stop-opacity="0.01"/>
<stop offset="0.6" stop-color="white" stop-opacity="0.01"/>
<stop offset="1" stop-color="white" stop-opacity="0.1"/>
</linearGradient>
<linearGradient id="paint11_linear_2068_17197" x1="184" y1="248" x2="192.363" y2="307.813" gradientUnits="userSpaceOnUse">
<stop stop-color="white" stop-opacity="0.4"/>
<stop offset="0.4" stop-color="white" stop-opacity="0.01"/>
<stop offset="0.6" stop-color="white" stop-opacity="0.01"/>
<stop offset="1" stop-color="white" stop-opacity="0.1"/>
</linearGradient>
<clipPath id="clip0_2068_17197">
<rect x="158" y="90" width="52" height="92" rx="26" fill="white"/>
</clipPath>
</defs>
</svg>
