<svg width="336" height="336" viewBox="0 0 336 336" fill="none" xmlns="http://www.w3.org/2000/svg">
<g clip-path="url(#clip0_2056_60906)">
<circle opacity="0.05" cx="168" cy="168" r="167.25" stroke="#F8F8F8" stroke-width="1.5"/>
<circle opacity="0.05" cx="168.5" cy="168.5" r="102.75" stroke="#F8F8F8" stroke-width="1.5"/>
<g opacity="0.1">
<path d="M18 98.25C17.5858 98.25 17.25 98.5858 17.25 99C17.25 99.4142 17.5858 99.75 18 99.75V98.25ZM18 99.75H21.9883V98.25H18V99.75ZM36.6915 110.953L49.2268 156.494L50.673 156.096L38.1377 110.555L36.6915 110.953ZM49.2268 156.494C51.057 163.143 57.1036 167.75 64 167.75V166.25C57.7787 166.25 52.324 162.094 50.673 156.096L49.2268 156.494ZM21.9883 99.75C28.852 99.75 34.87 104.335 36.6915 110.953L38.1377 110.555C36.137 103.286 29.5271 98.25 21.9883 98.25V99.75Z" fill="#F8F8F8"/>
<path d="M18 237.75C17.5858 237.75 17.25 237.414 17.25 237C17.25 236.586 17.5858 236.25 18 236.25V237.75ZM18 236.25H21.8954V237.75H18V236.25ZM36.6279 224.939L49.3038 177.533L50.7529 177.92L38.077 225.327L36.6279 224.939ZM49.3038 177.533C51.0831 170.878 57.1118 166.25 64 166.25V167.75C57.791 167.75 52.3568 171.922 50.7529 177.92L49.3038 177.533ZM21.8954 236.25C28.8006 236.25 34.8442 231.61 36.6279 224.939L38.077 225.327C36.1178 232.654 29.4798 237.75 21.8954 237.75V236.25Z" fill="#F8F8F8"/>
<path d="M8 167H49" stroke="#F8F8F8" stroke-width="1.5" stroke-linecap="round"/>
</g>
<g opacity="0.1">
<path d="M318 98.25C318.414 98.25 318.75 98.5858 318.75 99C318.75 99.4142 318.414 99.75 318 99.75V98.25ZM318 99.75H314.012V98.25H318V99.75ZM299.309 110.953L286.773 156.494L285.327 156.096L297.862 110.555L299.309 110.953ZM286.773 156.494C284.943 163.143 278.896 167.75 272 167.75V166.25C278.221 166.25 283.676 162.094 285.327 156.096L286.773 156.494ZM314.012 99.75C307.148 99.75 301.13 104.335 299.309 110.953L297.862 110.555C299.863 103.286 306.473 98.25 314.012 98.25V99.75Z" fill="#F8F8F8"/>
<path d="M318 237.75C318.414 237.75 318.75 237.414 318.75 237C318.75 236.586 318.414 236.25 318 236.25V237.75ZM318 236.25H314.105V237.75H318V236.25ZM299.372 224.939L286.696 177.533L285.247 177.92L297.923 225.327L299.372 224.939ZM286.696 177.533C284.917 170.878 278.888 166.25 272 166.25V167.75C278.209 167.75 283.643 171.922 285.247 177.92L286.696 177.533ZM314.105 236.25C307.199 236.25 301.156 231.61 299.372 224.939L297.923 225.327C299.882 232.654 306.52 237.75 314.105 237.75V236.25Z" fill="#F8F8F8"/>
<path d="M328 167H287" stroke="#F8F8F8" stroke-width="1.5" stroke-linecap="round"/>
</g>
</g>
<defs>
<clipPath id="clip0_2056_60906">
<rect width="336" height="336" fill="white"/>
</clipPath>
</defs>
</svg>
