<svg width="108" height="69" viewBox="0 0 108 69" fill="none" xmlns="http://www.w3.org/2000/svg">
<circle opacity="0.5" cx="54.1066" cy="26.2999" r="0.5" transform="rotate(-53.4875 54.1066 26.2999)" fill="url(#paint0_linear_2135_32560)"/>
<circle opacity="0.5" cx="82.1066" cy="39.2999" r="0.5" transform="rotate(-53.4875 82.1066 39.2999)" fill="url(#paint1_linear_2135_32560)"/>
<circle opacity="0.5" cx="4.10659" cy="12.2999" r="0.5" transform="rotate(-53.4875 4.10659 12.2999)" fill="url(#paint2_linear_2135_32560)"/>
<circle opacity="0.5" cx="42.1066" cy="45.2999" r="0.5" transform="rotate(-53.4875 42.1066 45.2999)" fill="url(#paint3_linear_2135_32560)"/>
<circle opacity="0.5" cx="90.1066" cy="24.2999" r="0.5" transform="rotate(-53.4875 90.1066 24.2999)" fill="url(#paint4_linear_2135_32560)"/>
<circle opacity="0.5" cx="74" cy="4" r="3" transform="rotate(-90 74 4)" fill="url(#paint5_linear_2135_32560)"/>
<circle opacity="0.5" cx="105.5" cy="10.5" r="2.5" transform="rotate(-90 105.5 10.5)" fill="url(#paint6_linear_2135_32560)"/>
<circle cx="10.4062" cy="68" r="1" transform="rotate(-90 10.4062 68)" fill="url(#paint7_linear_2135_32560)"/>
<circle opacity="0.5" cx="21.8176" cy="12.5901" r="1" transform="rotate(-139.466 21.8176 12.5901)" fill="url(#paint8_linear_2135_32560)"/>
<circle opacity="0.5" cx="62.805" cy="21.6018" r="1" transform="rotate(-53.4875 62.805 21.6018)" fill="url(#paint9_linear_2135_32560)"/>
<circle opacity="0.5" cx="25.4062" cy="34" r="1" transform="rotate(-90 25.4062 34)" fill="url(#paint10_linear_2135_32560)"/>
<circle opacity="0.5" cx="37.4062" cy="1" r="1" transform="rotate(-90 37.4062 1)" fill="url(#paint11_linear_2135_32560)"/>
<circle cx="3.78803" cy="15.8156" r="2.72857" transform="rotate(-34.0112 3.78803 15.8156)" fill="url(#paint12_linear_2135_32560)"/>
<circle cx="47.4062" cy="20" r="2" transform="rotate(-90 47.4062 20)" fill="url(#paint13_linear_2135_32560)"/>
<defs>
<linearGradient id="paint0_linear_2135_32560" x1="54.4399" y1="25.4666" x2="53.8566" y2="26.7166" gradientUnits="userSpaceOnUse">
<stop offset="0.173306" stop-color="white" stop-opacity="0"/>
<stop offset="1" stop-color="white" stop-opacity="0.3"/>
</linearGradient>
<linearGradient id="paint1_linear_2135_32560" x1="82.4399" y1="38.4666" x2="81.8566" y2="39.7166" gradientUnits="userSpaceOnUse">
<stop offset="0.173306" stop-color="white" stop-opacity="0"/>
<stop offset="1" stop-color="white" stop-opacity="0.3"/>
</linearGradient>
<linearGradient id="paint2_linear_2135_32560" x1="4.43992" y1="11.4666" x2="3.85659" y2="12.7166" gradientUnits="userSpaceOnUse">
<stop offset="0.173306" stop-color="white" stop-opacity="0"/>
<stop offset="1" stop-color="white" stop-opacity="0.3"/>
</linearGradient>
<linearGradient id="paint3_linear_2135_32560" x1="42.4399" y1="44.4666" x2="41.8566" y2="45.7166" gradientUnits="userSpaceOnUse">
<stop offset="0.173306" stop-color="white" stop-opacity="0"/>
<stop offset="1" stop-color="white" stop-opacity="0.3"/>
</linearGradient>
<linearGradient id="paint4_linear_2135_32560" x1="90.4399" y1="23.4666" x2="89.8566" y2="24.7166" gradientUnits="userSpaceOnUse">
<stop offset="0.173306" stop-color="white" stop-opacity="0"/>
<stop offset="1" stop-color="white" stop-opacity="0.3"/>
</linearGradient>
<linearGradient id="paint5_linear_2135_32560" x1="76" y1="1" x2="71" y2="8" gradientUnits="userSpaceOnUse">
<stop stop-color="white" stop-opacity="0.3"/>
<stop offset="0.826694" stop-color="white" stop-opacity="0"/>
</linearGradient>
<linearGradient id="paint6_linear_2135_32560" x1="107.167" y1="6.33333" x2="104.25" y2="12.5833" gradientUnits="userSpaceOnUse">
<stop stop-color="white" stop-opacity="0.3"/>
<stop offset="0.826694" stop-color="white" stop-opacity="0"/>
</linearGradient>
<linearGradient id="paint7_linear_2135_32560" x1="11.0729" y1="66.3333" x2="9.90625" y2="68.8333" gradientUnits="userSpaceOnUse">
<stop offset="0.173306" stop-color="white" stop-opacity="0"/>
<stop offset="1" stop-color="white" stop-opacity="0.3"/>
</linearGradient>
<linearGradient id="paint8_linear_2135_32560" x1="22.4843" y1="10.9234" x2="21.3176" y2="13.4234" gradientUnits="userSpaceOnUse">
<stop offset="0.173306" stop-color="white" stop-opacity="0"/>
<stop offset="1" stop-color="white" stop-opacity="0.3"/>
</linearGradient>
<linearGradient id="paint9_linear_2135_32560" x1="63.4716" y1="19.9352" x2="62.305" y2="22.4352" gradientUnits="userSpaceOnUse">
<stop offset="0.173306" stop-color="white" stop-opacity="0"/>
<stop offset="1" stop-color="white" stop-opacity="0.3"/>
</linearGradient>
<linearGradient id="paint10_linear_2135_32560" x1="26.0729" y1="32.3333" x2="24.9062" y2="34.8333" gradientUnits="userSpaceOnUse">
<stop offset="0.173306" stop-color="white" stop-opacity="0"/>
<stop offset="1" stop-color="white" stop-opacity="0.3"/>
</linearGradient>
<linearGradient id="paint11_linear_2135_32560" x1="38.0729" y1="-0.666667" x2="36.9062" y2="1.83333" gradientUnits="userSpaceOnUse">
<stop offset="0.173306" stop-color="white" stop-opacity="0"/>
<stop offset="1" stop-color="white" stop-opacity="0.3"/>
</linearGradient>
<linearGradient id="paint12_linear_2135_32560" x1="5.60708" y1="11.268" x2="2.42375" y2="18.0894" gradientUnits="userSpaceOnUse">
<stop offset="0.173306" stop-color="white" stop-opacity="0"/>
<stop offset="1" stop-color="white" stop-opacity="0.14"/>
</linearGradient>
<linearGradient id="paint13_linear_2135_32560" x1="48.7396" y1="16.6667" x2="46.4062" y2="21.6667" gradientUnits="userSpaceOnUse">
<stop stop-color="white" stop-opacity="0.3"/>
<stop offset="0.826694" stop-color="white" stop-opacity="0"/>
</linearGradient>
</defs>
</svg>
