<svg width="336" height="190" viewBox="0 0 336 190" fill="none" xmlns="http://www.w3.org/2000/svg" preserveAspectRatio="none">
<mask id="mask0_2124_38775" style="mask-type:alpha" maskUnits="userSpaceOnUse" x="0" y="-72" width="336" height="336">
<circle cx="168" cy="96" r="168" fill="url(#paint0_radial_2124_38775)"/>
</mask>
<g mask="url(#mask0_2124_38775)">
<path opacity="0.1" d="M19.7647 64.1698C9.88235 64.1698 9.88235 1 0 1V190H336V103.943H316.235C306.353 103.943 306.353 38.434 296.471 38.434C286.588 38.434 286.588 101.604 276.706 101.604C266.824 101.604 266.824 113.302 256.941 113.302C247.059 113.302 247.059 96.9245 237.176 96.9245C227.294 96.9245 227.294 92.2453 217.412 92.2453C207.529 92.2453 207.529 52.4717 197.647 52.4717C187.765 52.4717 187.765 57.1509 177.882 57.1509C168 57.1509 168 61.8302 158.118 61.8302C148.235 61.8302 148.235 85.2264 138.353 85.2264C128.471 85.2264 128.471 73.5283 118.588 73.5283C108.706 73.5283 108.706 94.5849 98.8235 94.5849C88.9412 94.5849 88.9412 50.1321 79.0588 50.1321C69.1765 50.1321 69.1765 125 59.2941 125C49.4118 125 49.4118 108.623 39.5294 108.623C29.6471 108.623 29.6471 64.1698 19.7647 64.1698Z" fill="url(#paint1_linear_2124_38775)"/>
<path d="M0 1C9.88235 1 9.88235 64.1698 19.7647 64.1698C29.6471 64.1698 29.6471 108.623 39.5294 108.623C49.4118 108.623 49.4118 125 59.2941 125C69.1765 125 69.1765 50.1321 79.0588 50.1321C88.9412 50.1321 88.9412 94.5849 98.8235 94.5849C108.706 94.5849 108.706 73.5283 118.588 73.5283C128.471 73.5283 128.471 85.2264 138.353 85.2264C148.235 85.2264 148.235 61.8302 158.118 61.8302C168 61.8302 168 57.1509 177.882 57.1509C187.765 57.1509 187.765 52.4717 197.647 52.4717C207.529 52.4717 207.529 92.2453 217.412 92.2453C227.294 92.2453 227.294 96.9245 237.176 96.9245C247.059 96.9245 247.059 113.302 256.941 113.302C266.824 113.302 266.824 101.604 276.706 101.604C286.588 101.604 286.588 38.434 296.471 38.434C306.353 38.434 306.353 103.943 316.235 103.943C326.118 103.943 326.118 103.943 336 103.943" stroke="#F8F8F8" stroke-width="1.5"/>
<path d="M0 73.5283C9.88235 73.5283 9.88235 57.1509 19.7647 57.1509C29.6471 57.1509 29.6471 38.434 39.5294 38.434C49.4118 38.434 49.4118 103.943 59.2941 103.943C69.1765 103.943 69.1765 108.623 79.0588 108.623C88.9412 108.623 88.9412 113.302 98.8235 113.302C108.706 113.302 108.706 64.1698 118.588 64.1698C128.471 64.1698 128.471 50.1321 138.353 50.1321C148.235 50.1321 148.235 96.9245 158.118 96.9245C168 96.9245 168 52.4717 177.882 52.4717C187.765 52.4717 187.765 61.8302 197.647 61.8302C207.529 61.8302 207.529 125 217.412 125C227.294 125 227.294 1 237.176 1C247.059 1 247.059 103.943 256.941 103.943C266.824 103.943 266.824 85.2264 276.706 85.2264C286.588 85.2264 286.588 94.5849 296.471 94.5849C306.353 94.5849 306.353 92.2453 316.235 92.2453C326.118 92.2453 326.118 101.604 336 101.604M336 101.604V101.604Z" stroke="url(#paint2_linear_2124_38775)" stroke-opacity="0.1" stroke-width="1.5"/>
</g>
<defs>
<radialGradient id="paint0_radial_2124_38775" cx="0" cy="0" r="1" gradientUnits="userSpaceOnUse" gradientTransform="translate(168 96) rotate(90) scale(168)">
<stop stop-color="#D9D9D9"/>
<stop offset="1" stop-color="#737373" stop-opacity="0"/>
</radialGradient>
<linearGradient id="paint1_linear_2124_38775" x1="168" y1="174.133" x2="189.416" y2="-123.928" gradientUnits="userSpaceOnUse">
<stop stop-color="white" stop-opacity="0"/>
<stop offset="0.571573" stop-color="white" stop-opacity="0.9"/>
<stop offset="1" stop-color="white"/>
</linearGradient>
<linearGradient id="paint2_linear_2124_38775" x1="-1.21197e-06" y1="78" x2="335.754" y2="99.3625" gradientUnits="userSpaceOnUse">
<stop stop-color="white" stop-opacity="0.5"/>
<stop offset="1" stop-color="white" stop-opacity="0.9"/>
</linearGradient>
</defs>
</svg>
