<svg width="336" height="351" viewBox="0 0 336 351" fill="none" xmlns="http://www.w3.org/2000/svg">
<path opacity="0.1" d="M236.75 326.5C236.75 326.914 236.414 327.25 236 327.25C235.586 327.25 235.25 326.914 235.25 326.5L236.75 326.5ZM235.25 326.5L235.25 289L236.75 289L236.75 326.5L235.25 326.5ZM220 273.75L184 273.75L184 272.25L220 272.25L220 273.75ZM167.25 257L167.25 223L168.75 223L168.75 257L167.25 257ZM184 273.75C174.749 273.75 167.25 266.251 167.25 257L168.75 257C168.75 265.422 175.578 272.25 184 272.25L184 273.75ZM235.25 289C235.25 280.578 228.422 273.75 220 273.75L220 272.25C229.251 272.25 236.75 279.749 236.75 289L235.25 289Z" fill="#F8F8F8"/>
<path opacity="0.1" d="M99.25 326.5C99.25 326.914 99.5858 327.25 100 327.25C100.414 327.25 100.75 326.914 100.75 326.5L99.25 326.5ZM100.75 326.5L100.75 289L99.25 289L99.25 326.5L100.75 326.5ZM116 273.75L152 273.75L152 272.25L116 272.25L116 273.75ZM168.75 257L168.75 223L167.25 223L167.25 257L168.75 257ZM152 273.75C161.251 273.75 168.75 266.251 168.75 257L167.25 257C167.25 265.422 160.422 272.25 152 272.25L152 273.75ZM100.75 289C100.75 280.578 107.578 273.75 116 273.75L116 272.25C106.749 272.25 99.25 279.749 99.25 289L100.75 289Z" fill="#F8F8F8"/>
<path d="M168 143.5V1" stroke="url(#paint0_linear_2139_32623)" stroke-opacity="0.1" stroke-width="1.5" stroke-linecap="round"/>
<defs>
<linearGradient id="paint0_linear_2139_32623" x1="168.5" y1="1" x2="168.5" y2="143.5" gradientUnits="userSpaceOnUse">
<stop stop-color="#F8F8F8" stop-opacity="0.05"/>
<stop offset="1" stop-color="#F8F8F8"/>
</linearGradient>
</defs>
</svg>
