<svg width="40" height="28" viewBox="0 0 40 28" fill="none" xmlns="http://www.w3.org/2000/svg">
<circle opacity="0.5" cx="3" cy="3" r="3" transform="matrix(-1 0 0 1 34 3)" fill="url(#paint0_linear_2101_32895)"/>
<circle cx="1.5" cy="1.5" r="1.5" transform="matrix(-1 0 0 1 7 12)" fill="url(#paint1_linear_2101_32895)"/>
<circle opacity="0.5" cx="1" cy="1" r="1" transform="matrix(-0.649901 -0.760019 -0.760019 0.649901 15 4.52051)" fill="url(#paint2_linear_2101_32895)"/>
<circle opacity="0.5" cx="1" cy="1" r="1" transform="matrix(-1 0 0 1 40 10)" fill="url(#paint3_linear_2101_32895)"/>
<circle opacity="0.5" cx="1" cy="1" r="1" transform="matrix(-1 0 0 1 25 17)" fill="url(#paint4_linear_2101_32895)"/>
<defs>
<linearGradient id="paint0_linear_2101_32895" x1="5" y1="1.44045e-07" x2="-1.53979e-07" y2="7" gradientUnits="userSpaceOnUse">
<stop stop-color="white" stop-opacity="0.3"/>
<stop offset="0.826694" stop-color="white" stop-opacity="0"/>
</linearGradient>
<linearGradient id="paint1_linear_2101_32895" x1="2.5" y1="-1" x2="0.75" y2="2.75" gradientUnits="userSpaceOnUse">
<stop stop-color="white" stop-opacity="0.3"/>
<stop offset="0.826694" stop-color="white" stop-opacity="0"/>
</linearGradient>
<linearGradient id="paint2_linear_2101_32895" x1="1.66667" y1="-0.666667" x2="0.5" y2="1.83333" gradientUnits="userSpaceOnUse">
<stop offset="0.173306" stop-color="white" stop-opacity="0"/>
<stop offset="1" stop-color="white" stop-opacity="0.3"/>
</linearGradient>
<linearGradient id="paint3_linear_2101_32895" x1="1.66667" y1="-0.666667" x2="0.5" y2="1.83333" gradientUnits="userSpaceOnUse">
<stop offset="0.173306" stop-color="white" stop-opacity="0"/>
<stop offset="1" stop-color="white" stop-opacity="0.3"/>
</linearGradient>
<linearGradient id="paint4_linear_2101_32895" x1="1.66667" y1="-0.666667" x2="0.5" y2="1.83333" gradientUnits="userSpaceOnUse">
<stop offset="0.173306" stop-color="white" stop-opacity="0"/>
<stop offset="1" stop-color="white" stop-opacity="0.3"/>
</linearGradient>
</defs>
</svg>
