<svg width="32" height="32" viewBox="0 0 32 32" fill="none" xmlns="http://www.w3.org/2000/svg">
<path d="M16.0009 2C8.11392 2 2.00092 7.777 2.00092 15.58C2.00092 19.662 3.67392 23.188 6.39792 25.624C6.62692 25.829 6.76492 26.115 6.77392 26.422L6.84992 28.912C6.87392 29.706 7.69492 30.223 8.42192 29.902L11.2009 28.675C11.4369 28.571 11.7009 28.552 11.9489 28.62C13.2259 28.971 14.5849 29.158 16.0019 29.158C23.8889 29.158 30.0019 23.381 30.0019 15.578C30.0019 7.775 23.8879 2 16.0009 2ZM24.4079 12.449L20.2949 18.974C19.6409 20.012 18.2399 20.27 17.2579 19.534L13.9869 17.081C13.6869 16.856 13.2739 16.857 12.9749 17.084L8.55692 20.437C7.96692 20.884 7.19792 20.179 7.59192 19.553L11.7049 13.028C12.3589 11.99 13.7599 11.732 14.7419 12.468L18.0129 14.921C18.3129 15.146 18.7259 15.145 19.0249 14.918L23.4419 11.565C24.0319 11.118 24.8019 11.823 24.4079 12.449Z" fill="url(#paint0_linear_2093_32494)"/>
<defs>
<linearGradient id="paint0_linear_2093_32494" x1="16.0014" y1="2" x2="16.0014" y2="29.9986" gradientUnits="userSpaceOnUse">
<stop stop-color="#F8F8F8" stop-opacity="0.9"/>
<stop offset="1" stop-color="#F8F8F8" stop-opacity="0.3"/>
</linearGradient>
</defs>
</svg>
