<svg xmlns="http://www.w3.org/2000/svg" width="8" height="9" fill="none" viewBox="0 0 8 9"><g opacity=".5" filter="url(#A)"><path fill-rule="evenodd" d="M5 1.5a1 1 0 1 0-2 0V2a1.5 1.5 0 0 1-1.5 1.5H1a1 1 0 1 0 0 2h.5A1.5 1.5 0 0 1 3 7v.5a1 1 0 1 0 2 0V7a1.5 1.5 0 0 1 1.5-1.5H7a1 1 0 1 0 0-2h-.5A1.5 1.5 0 0 1 5 2v-.5z" fill="#f8f8f8"/></g><defs><filter id="A" x="0" y=".5" width="8" height="8" filterUnits="userSpaceOnUse" color-interpolation-filters="sRGB"><feFlood flood-opacity="0"/><feBlend in="SourceGraphic" result="B"/><feColorMatrix in="SourceAlpha" values="0 0 0 0 0 0 0 0 0 0 0 0 0 0 0 0 0 0 127 0" result="C"/><feOffset/><feGaussianBlur stdDeviation="4"/><feComposite in2="C" operator="arithmetic" k2="-1" k3="1"/><feColorMatrix values="0 0 0 0 0.972549 0 0 0 0 0.972549 0 0 0 0 0.972549 0 0 0 0.25 0"/><feBlend in2="B"/></filter></defs></svg>