<svg width="16" height="16" viewBox="0 0 16 16" fill="none" xmlns="http://www.w3.org/2000/svg">
<g opacity="0.5">
<path d="M2.5 6.51093C2.5 6.13949 2.5 5.95377 2.54673 5.78195C2.58812 5.62972 2.65621 5.48604 2.74781 5.35761C2.8512 5.21264 2.99495 5.09503 3.28243 4.85982L6.64909 2.10528C7.13038 1.7115 7.37102 1.51461 7.63885 1.43925C7.87503 1.37279 8.12497 1.37279 8.36115 1.43925C8.62898 1.51461 8.86962 1.7115 9.35091 2.10528L12.7176 4.85982C13.0051 5.09503 13.1488 5.21264 13.2522 5.35761C13.3438 5.48604 13.4119 5.62972 13.4533 5.78195C13.5 5.95377 13.5 6.13949 13.5 6.51093V11.3667C13.5 12.1134 13.5 12.4868 13.3547 12.772C13.2268 13.0229 13.0229 13.2268 12.772 13.3547C12.4868 13.5 12.1134 13.5 11.3667 13.5H4.63333C3.8866 13.5 3.51323 13.5 3.22801 13.3547C2.97713 13.2268 2.77316 13.0229 2.64532 12.772C2.5 12.4868 2.5 12.1134 2.5 11.3667V6.51093Z" stroke="#F8F8F8" stroke-opacity="0.7" stroke-width="1.5" stroke-linejoin="round"/>
</g>
</svg>
