<svg width="32" height="32" viewBox="0 0 32 32" fill="none" xmlns="http://www.w3.org/2000/svg">
<path d="M10.2011 2.098C8.71108 2.168 7.69408 2.406 6.80508 2.755C5.88508 3.114 5.10508 3.595 4.32808 4.374C3.55208 5.153 3.07408 5.934 2.71808 6.855C2.37308 7.746 2.14008 8.764 2.07408 10.255C2.00808 11.745 1.99408 12.225 2.00108 16.026C2.00808 19.827 2.02508 20.304 2.09708 21.798C2.16808 23.287 2.40508 24.304 2.75408 25.194C3.11308 26.114 3.59408 26.894 4.37308 27.671C5.15208 28.447 5.93208 28.924 6.85608 29.281C7.74608 29.625 8.76508 29.86 10.2551 29.925C11.7451 29.99 12.2251 30.005 16.0261 29.998C19.8271 29.991 20.3051 29.974 21.7991 29.903C23.2931 29.832 24.3041 29.594 25.1941 29.246C26.1141 28.886 26.8951 28.406 27.6711 27.626C28.4471 26.846 28.9251 26.065 29.2801 25.143C29.6251 24.253 29.8591 23.234 29.9241 21.745C29.9891 20.251 30.0051 19.774 29.9971 15.972C29.9891 12.17 29.9731 11.694 29.9021 10.201C29.8311 8.708 29.5941 7.694 29.2451 6.804C28.8851 5.884 28.4051 5.104 27.6261 4.327C26.8471 3.55 26.0651 3.073 25.1431 2.718C24.2521 2.373 23.2341 2.138 21.7441 2.074C20.2541 2.01 19.7741 1.993 15.9721 2C12.1701 2.007 11.6941 2.024 10.2011 2.096M10.3651 27.405C9.00008 27.346 8.25908 27.119 7.76508 26.929C7.11108 26.677 6.64508 26.372 6.15308 25.885C5.66108 25.398 5.35808 24.93 5.10308 24.277C4.91108 23.783 4.68008 23.043 4.61608 21.678C4.54708 20.203 4.53208 19.76 4.52408 16.022C4.51608 12.284 4.53008 11.842 4.59508 10.366C4.65308 9.002 4.88108 8.26 5.07108 7.766C5.32308 7.111 5.62708 6.646 6.11508 6.154C6.60308 5.662 7.07008 5.359 7.72308 5.104C8.21608 4.911 8.95708 4.682 10.3211 4.617C11.7971 4.547 12.2401 4.533 15.9771 4.525C19.7141 4.517 20.1581 4.531 21.6351 4.596C22.9991 4.655 23.7411 4.881 24.2341 5.072C24.8881 5.324 25.3541 5.627 25.8461 6.116C26.3381 6.605 26.6411 7.07 26.8971 7.725C27.0901 8.217 27.3191 8.957 27.3831 10.322C27.4531 11.798 27.4691 12.241 27.4761 15.978C27.4831 19.715 27.4701 20.159 27.4051 21.634C27.3451 22.999 27.1191 23.74 26.9291 24.235C26.6771 24.889 26.3731 25.355 25.8841 25.847C25.3951 26.339 24.9291 26.642 24.2761 26.897C23.7831 27.089 23.0421 27.319 21.6791 27.384C20.2031 27.453 19.7601 27.468 16.0221 27.476C12.2841 27.484 11.8411 27.469 10.3651 27.405ZM21.7781 8.517C21.7801 9.445 22.5331 10.196 23.4611 10.194C24.3891 10.192 25.1401 9.439 25.1381 8.511C25.1361 7.583 24.3831 6.832 23.4551 6.834C22.5271 6.836 21.7771 7.589 21.7781 8.517ZM8.81108 16.013C8.81908 19.983 12.0431 23.195 16.0131 23.187C19.9831 23.179 23.1961 19.955 23.1891 15.985C23.1811 12.015 19.9561 8.802 15.9861 8.81C12.0161 8.818 8.80308 12.043 8.81108 16.013ZM11.3341 16.008C11.3291 13.431 13.4141 11.337 15.9921 11.332C18.5691 11.327 20.6631 13.412 20.6681 15.99C20.6731 18.567 18.5881 20.661 16.0101 20.666C13.4331 20.671 11.3391 18.587 11.3341 16.01" fill="url(#paint0_linear_2093_32507)"/>
<defs>
<linearGradient id="paint0_linear_2093_32507" x1="15.9992" y1="1.99854" x2="15.9992" y2="29.9996" gradientUnits="userSpaceOnUse">
<stop stop-color="#F8F8F8" stop-opacity="0.9"/>
<stop offset="1" stop-color="#F8F8F8" stop-opacity="0.3"/>
</linearGradient>
</defs>
</svg>
