<svg width="16" height="16" viewBox="0 0 16 16" fill="none" xmlns="http://www.w3.org/2000/svg">
<g opacity="0.5" clip-path="url(#clip0_2068_2591)">
<path d="M1.86045 8.07164C0.980483 8.54672 0.496624 8.97602 0.577928 9.27946C0.773811 10.0105 4.17605 9.73405 8.17705 8.66199C12.178 7.58993 15.2627 6.12822 15.0668 5.39717C14.9855 5.09374 14.3518 4.96388 13.3522 4.99243M1.86045 8.07164C1.86783 8.573 1.93669 9.08173 2.07244 9.58836C2.95391 12.8781 6.32222 14.8338 9.59576 13.9567C12.8693 13.0795 14.8085 9.70165 13.927 6.41194C13.7912 5.90531 13.5965 5.43032 13.3522 4.99243M1.86045 8.07164C1.81989 5.31753 3.63426 2.78567 6.40366 2.04361C9.17306 1.30155 12.0103 2.58703 13.3522 4.99243" stroke="#F8F8F8" stroke-opacity="0.7" stroke-width="1.5"/>
</g>
<defs>
<clipPath id="clip0_2068_2591">
<rect width="16" height="16" fill="white"/>
</clipPath>
</defs>
</svg>
