<svg width="16" height="16" viewBox="0 0 16 16" fill="none" xmlns="http://www.w3.org/2000/svg">
<g opacity="0.5">
<path d="M3.22801 13.3547L3.56851 12.6864L3.5685 12.6864L3.22801 13.3547ZM2.64532 12.772L3.31358 12.4315L3.31358 12.4315L2.64532 12.772ZM13.3547 12.772L12.6864 12.4315L12.6864 12.4315L13.3547 12.772ZM12.772 13.3547L12.4315 12.6864L12.4315 12.6864L12.772 13.3547ZM13.3547 3.22801L12.6864 3.5685V3.56851L13.3547 3.22801ZM12.772 2.64532L12.4315 3.31358V3.31358L12.772 2.64532ZM2.64532 3.22801L1.97707 2.88752L1.97707 2.88752L2.64532 3.22801ZM3.22801 2.64532L2.88752 1.97707H2.88752L3.22801 2.64532ZM4.41667 10.8333C4.41667 11.2475 4.75245 11.5833 5.16667 11.5833C5.58088 11.5833 5.91667 11.2475 5.91667 10.8333H4.41667ZM5.91667 5.16667C5.91667 4.75245 5.58088 4.41667 5.16667 4.41667C4.75245 4.41667 4.41667 4.75245 4.41667 5.16667H5.91667ZM12.75 4.63333V11.3667H14.25V4.63333H12.75ZM11.3667 12.75H4.63333V14.25H11.3667V12.75ZM3.25 11.3667V4.63333H1.75V11.3667H3.25ZM4.63333 3.25H11.3667V1.75H4.63333V3.25ZM4.63333 12.75C4.24759 12.75 4.00339 12.7494 3.81868 12.7343C3.64272 12.7199 3.58776 12.6962 3.56851 12.6864L2.88752 14.0229C3.15348 14.1584 3.42781 14.2074 3.69653 14.2293C3.95649 14.2506 4.27234 14.25 4.63333 14.25V12.75ZM1.75 11.3667C1.75 11.7277 1.74942 12.0435 1.77066 12.3035C1.79261 12.5722 1.84156 12.8465 1.97707 13.1125L3.31358 12.4315C3.30377 12.4122 3.28005 12.3573 3.26567 12.1813C3.25058 11.9966 3.25 11.7524 3.25 11.3667H1.75ZM3.5685 12.6864C3.45874 12.6305 3.36951 12.5413 3.31358 12.4315L1.97707 13.1125C2.17681 13.5045 2.49552 13.8232 2.88752 14.0229L3.5685 12.6864ZM12.75 11.3667C12.75 11.7524 12.7494 11.9966 12.7343 12.1813C12.7199 12.3573 12.6962 12.4122 12.6864 12.4315L14.0229 13.1125C14.1584 12.8465 14.2074 12.5722 14.2293 12.3035C14.2506 12.0435 14.25 11.7277 14.25 11.3667H12.75ZM11.3667 14.25C11.7277 14.25 12.0435 14.2506 12.3035 14.2293C12.5722 14.2074 12.8465 14.1584 13.1125 14.0229L12.4315 12.6864C12.4122 12.6962 12.3573 12.7199 12.1813 12.7343C11.9966 12.7494 11.7524 12.75 11.3667 12.75V14.25ZM12.6864 12.4315C12.6305 12.5413 12.5413 12.6305 12.4315 12.6864L13.1125 14.0229C13.5045 13.8232 13.8232 13.5045 14.0229 13.1125L12.6864 12.4315ZM14.25 4.63333C14.25 4.27234 14.2506 3.95649 14.2293 3.69653C14.2074 3.42781 14.1584 3.15348 14.0229 2.88752L12.6864 3.56851C12.6962 3.58776 12.7199 3.64272 12.7343 3.81868C12.7494 4.00339 12.75 4.24759 12.75 4.63333H14.25ZM11.3667 3.25C11.7524 3.25 11.9966 3.25058 12.1813 3.26567C12.3573 3.28005 12.4122 3.30377 12.4315 3.31358L13.1125 1.97707C12.8465 1.84156 12.5722 1.79261 12.3035 1.77066C12.0435 1.74942 11.7277 1.75 11.3667 1.75V3.25ZM14.0229 2.88752C13.8232 2.49552 13.5045 2.17681 13.1125 1.97707L12.4315 3.31358C12.5413 3.36951 12.6305 3.45874 12.6864 3.5685L14.0229 2.88752ZM3.25 4.63333C3.25 4.24759 3.25058 4.00339 3.26567 3.81868C3.28005 3.64272 3.30377 3.58776 3.31358 3.56851L1.97707 2.88752C1.84156 3.15348 1.79261 3.42781 1.77066 3.69653C1.74942 3.95649 1.75 4.27234 1.75 4.63333H3.25ZM4.63333 1.75C4.27234 1.75 3.95649 1.74942 3.69653 1.77066C3.42781 1.79261 3.15348 1.84156 2.88752 1.97707L3.56851 3.31358C3.58776 3.30377 3.64272 3.28005 3.81868 3.26567C4.00339 3.25058 4.24759 3.25 4.63333 3.25V1.75ZM3.31358 3.56851C3.36951 3.45874 3.45874 3.36951 3.56851 3.31358L2.88752 1.97707C2.49552 2.17681 2.17681 2.49552 1.97707 2.88752L3.31358 3.56851ZM5.91667 10.8333V5.16667H4.41667V10.8333H5.91667Z" fill="#F8F8F8" fill-opacity="0.7"/>
</g>
</svg>
