<svg width="24" height="24" viewBox="0 0 24 24" fill="none" xmlns="http://www.w3.org/2000/svg">
<path d="M12 1.5C6.08475 1.5 1.5 5.83275 1.5 11.685C1.5 14.7465 2.75475 17.391 4.79775 19.218C4.9695 19.3718 5.073 19.5863 5.07975 19.8165L5.13675 21.684C5.15475 22.2795 5.7705 22.6673 6.31575 22.4265L8.4 21.5062C8.577 21.4282 8.775 21.414 8.961 21.465C9.91875 21.7283 10.938 21.8685 12.0007 21.8685C17.916 21.8685 22.5007 17.5358 22.5007 11.6835C22.5007 5.83125 17.9153 1.5 12 1.5ZM18.3052 9.33675L15.2205 14.2305C14.73 15.009 13.6792 15.2025 12.9427 14.6505L10.4895 12.8107C10.2645 12.642 9.95475 12.6427 9.7305 12.813L6.417 15.3278C5.9745 15.663 5.39775 15.1342 5.69325 14.6647L8.778 9.771C9.2685 8.9925 10.3193 8.799 11.0558 9.351L13.509 11.1907C13.734 11.3595 14.0438 11.3588 14.268 11.1885L17.5807 8.67375C18.0232 8.3385 18.6007 8.86725 18.3052 9.33675Z" fill="url(#paint0_linear_2139_32685)"/>
<defs>
<linearGradient id="paint0_linear_2139_32685" x1="12.0004" y1="1.5" x2="12.0004" y2="22.4989" gradientUnits="userSpaceOnUse">
<stop stop-color="#F8F8F8" stop-opacity="0.9"/>
<stop offset="1" stop-color="#F8F8F8" stop-opacity="0.3"/>
</linearGradient>
</defs>
</svg>
