<svg width="32" height="32" viewBox="0 0 32 32" fill="none" xmlns="http://www.w3.org/2000/svg">
<path d="M19.6109 4.808C20.6459 3.514 21.3479 1.776 21.1629 0C19.6479 0.075 17.7999 0.999 16.7299 2.295C15.7689 3.404 14.9189 5.215 15.1399 6.916C16.8399 7.063 18.5389 6.066 19.6109 4.808Z" fill="url(#paint0_linear_2093_32498)"/>
<path d="M21.1439 7.24788C18.6749 7.10088 16.5749 8.64888 15.3959 8.64888C14.2169 8.64888 12.4099 7.32188 10.4569 7.35688C7.91491 7.39388 5.55591 8.83188 4.26591 11.1179C1.61291 15.6909 3.56591 22.4749 6.14591 26.1989C7.39891 28.0419 8.90891 30.0709 10.8989 29.9979C12.7789 29.9239 13.5159 28.7809 15.8009 28.7809C18.0859 28.7809 18.7479 29.9979 20.7379 29.9609C22.8019 29.9239 24.0919 28.1169 25.3449 26.2729C26.7819 24.1719 27.3709 22.1439 27.4079 22.0329C27.3709 21.9959 23.4279 20.4839 23.3919 15.9489C23.3549 12.1519 26.4869 10.3459 26.6349 10.2329C24.8659 7.61688 22.1019 7.32188 21.1439 7.24788Z" fill="url(#paint1_linear_2093_32498)"/>
<defs>
<linearGradient id="paint0_linear_2093_32498" x1="18.1485" y1="0" x2="18.1485" y2="6.93041" gradientUnits="userSpaceOnUse">
<stop stop-color="#F8F8F8" stop-opacity="0.9"/>
<stop offset="1" stop-color="#F8F8F8" stop-opacity="0.3"/>
</linearGradient>
<linearGradient id="paint1_linear_2093_32498" x1="15.2043" y1="7.23804" x2="15.2043" y2="29.9998" gradientUnits="userSpaceOnUse">
<stop stop-color="#F8F8F8" stop-opacity="0.9"/>
<stop offset="1" stop-color="#F8F8F8" stop-opacity="0.3"/>
</linearGradient>
</defs>
</svg>
