<svg width="12" height="12" viewBox="0 0 12 12" fill="none" xmlns="http://www.w3.org/2000/svg">
<path fill-rule="evenodd" clip-rule="evenodd" d="M6.75 0.75C6.75 0.335786 6.41421 0 6 0V0C5.58579 0 5.25 0.335786 5.25 0.75V2.625C5.25 4.07475 4.07475 5.25 2.625 5.25H0.75C0.335786 5.25 0 5.58579 0 6V6C0 6.41421 0.335786 6.75 0.75 6.75H2.625C4.07475 6.75 5.25 7.92525 5.25 9.375V11.25C5.25 11.6642 5.58579 12 6 12V12C6.41421 12 6.75 11.6642 6.75 11.25V9.375C6.75 7.92525 7.92525 6.75 9.375 6.75H11.25C11.6642 6.75 12 6.41421 12 6V6C12 5.58579 11.6642 5.25 11.25 5.25H9.375C7.92525 5.25 6.75 4.07475 6.75 2.625V0.75Z" fill="#F8F8F8"/>
</svg>
