<svg width="336" height="219" viewBox="0 0 336 219" fill="none" xmlns="http://www.w3.org/2000/svg" preserveAspectRatio="none">
<mask id="mask0_2032_60502" style="mask-type:alpha" maskUnits="userSpaceOnUse" x="1" y="-17" width="335" height="235">
<rect x="1" y="-17" width="335" height="235" fill="url(#paint0_linear_2032_60502)"/>
</mask>
<g mask="url(#mask0_2032_60502)">
<path opacity="0.1" d="M63.4522 130.855C37.1902 130.855 37.1902 109.141 10.9283 109.141H1V218H336V204.681H326.072C299.81 204.681 299.81 91.7702 273.548 91.7702C247.286 91.7702 247.286 152.569 221.024 152.569C194.762 152.569 194.762 65.7137 168.5 65.7137C142.238 65.7137 142.238 44 115.976 44C89.7141 44 89.7141 130.855 63.4522 130.855Z" fill="url(#paint1_linear_2032_60502)"/>
<g opacity="0.75" filter="url(#filter0_di_2032_60502)">
<path d="M336 206H326.072C299.81 206 299.81 92.1622 273.548 92.1622C247.286 92.1622 247.286 153.459 221.024 153.459C194.762 153.459 194.762 65.8919 168.5 65.8919C142.238 65.8919 142.238 44 115.976 44C89.7141 44 89.7141 131.568 63.4522 131.568C37.1902 131.568 37.1902 109.676 10.9283 109.676H1" stroke="#F8F8F8" stroke-width="1.5"/>
</g>
</g>
<defs>
<filter id="filter0_di_2032_60502" x="-7" y="43.25" width="351" height="203.5" filterUnits="userSpaceOnUse" color-interpolation-filters="sRGB">
<feFlood flood-opacity="0" result="BackgroundImageFix"/>
<feColorMatrix in="SourceAlpha" type="matrix" values="0 0 0 0 0 0 0 0 0 0 0 0 0 0 0 0 0 0 127 0" result="hardAlpha"/>
<feMorphology radius="16" operator="erode" in="SourceAlpha" result="effect1_dropShadow_2032_60502"/>
<feOffset dy="32"/>
<feGaussianBlur stdDeviation="12"/>
<feComposite in2="hardAlpha" operator="out"/>
<feColorMatrix type="matrix" values="0 0 0 0 0 0 0 0 0 0 0 0 0 0 0 0 0 0 0.4 0"/>
<feBlend mode="multiply" in2="BackgroundImageFix" result="effect1_dropShadow_2032_60502"/>
<feBlend mode="normal" in="SourceGraphic" in2="effect1_dropShadow_2032_60502" result="shape"/>
<feColorMatrix in="SourceAlpha" type="matrix" values="0 0 0 0 0 0 0 0 0 0 0 0 0 0 0 0 0 0 127 0" result="hardAlpha"/>
<feOffset/>
<feGaussianBlur stdDeviation="4"/>
<feComposite in2="hardAlpha" operator="arithmetic" k2="-1" k3="1"/>
<feColorMatrix type="matrix" values="0 0 0 0 0.972549 0 0 0 0 0.972549 0 0 0 0 0.972549 0 0 0 0.25 0"/>
<feBlend mode="normal" in2="shape" result="effect2_innerShadow_2032_60502"/>
</filter>
<linearGradient id="paint0_linear_2032_60502" x1="336" y1="100.5" x2="1" y2="100.5" gradientUnits="userSpaceOnUse">
<stop offset="0.0450512" stop-color="#585858" stop-opacity="0"/>
<stop offset="0.500663" stop-color="#5F5F5F"/>
<stop offset="0.946652" stop-color="#666666" stop-opacity="0"/>
</linearGradient>
<linearGradient id="paint1_linear_2032_60502" x1="168.5" y1="203.393" x2="186.719" y2="-71.2209" gradientUnits="userSpaceOnUse">
<stop stop-color="white" stop-opacity="0"/>
<stop offset="0.571573" stop-color="white" stop-opacity="0.9"/>
<stop offset="1" stop-color="white"/>
</linearGradient>
</defs>
</svg>
