<svg width="32" height="32" viewBox="0 0 32 32" fill="none" xmlns="http://www.w3.org/2000/svg">
<path d="M8.31553 12.243C8.31407 12.2444 8.26171 12.2488 8.20062 12.2546C8.09589 12.2633 8.03625 12.272 8.03625 12.2764C8.03625 12.2779 8.01298 12.2808 7.98534 12.2837C7.91989 12.291 7.88934 12.2968 7.7308 12.3331C7.56207 12.3739 7.56207 12.3739 7.51989 12.3899C7.49953 12.3971 7.48062 12.4044 7.47625 12.4044C7.45589 12.4073 7.29444 12.4626 7.23625 12.4873C7.11989 12.5353 6.97007 12.6066 6.88862 12.6502C6.84062 12.6764 6.78825 12.7026 6.77516 12.7069C6.76062 12.7128 6.74898 12.7215 6.74898 12.7288C6.74898 12.736 6.74171 12.7419 6.73298 12.7419C6.72425 12.7419 6.66462 12.7782 6.60062 12.8219C6.53662 12.8655 6.47989 12.9019 6.47262 12.9019C6.46534 12.9019 6.45807 12.9062 6.45516 12.9135C6.45371 12.9193 6.42171 12.947 6.38534 12.9746C6.29225 13.0473 6.28934 13.0488 6.22098 13.1099C6.02898 13.2844 5.82534 13.4997 5.79771 13.5579C5.79044 13.5724 5.7788 13.5855 5.77298 13.5855C5.76716 13.5855 5.74244 13.6131 5.71916 13.6466C5.69589 13.6815 5.64644 13.7528 5.61007 13.808C5.57225 13.8619 5.54171 13.9113 5.54171 13.9186C5.54171 13.9259 5.53589 13.9346 5.52862 13.9375C5.48644 13.952 5.22171 14.5382 5.16934 14.7273C5.1228 14.896 5.09225 15.0211 5.08498 15.0619C5.08062 15.0851 5.06753 15.1637 5.05444 15.2364C5.02825 15.392 5.01662 15.5957 5.01225 16.08C5.00934 16.2793 5.00353 16.4626 4.99771 16.4873C4.93953 16.7593 4.88134 16.9004 4.74753 17.0939C4.61807 17.28 4.42316 17.4488 4.22534 17.5448C4.17734 17.568 4.12207 17.5957 4.10171 17.6073C4.08134 17.6175 3.99407 17.6437 3.90534 17.6655C3.72498 17.7106 3.48789 17.7193 3.31625 17.6873C3.26389 17.6771 3.21444 17.6684 3.20425 17.6669C3.19407 17.6655 3.18098 17.6597 3.17662 17.6539C3.1708 17.648 3.1548 17.6437 3.14025 17.6437C3.09371 17.6437 2.87698 17.5404 2.7548 17.4619C2.63553 17.3833 2.43044 17.1739 2.34753 17.0459C2.27916 16.9397 2.17734 16.7113 2.16134 16.6313C2.15698 16.608 2.1468 16.5586 2.13953 16.5193C2.1308 16.4815 2.12062 16.3899 2.11625 16.3157C2.10607 16.1513 2.10607 16.1513 2.07116 16.08C2.02316 15.9797 1.91407 15.8851 1.81371 15.859C1.79625 15.8531 1.46171 15.8488 1.06898 15.8488L0.356253 15.8473L0.286435 15.8808C0.202072 15.923 0.116253 16.0059 0.0784352 16.0815C0.0551624 16.1295 0.0507988 16.1688 0.0522534 16.3491C0.0522534 16.531 0.0595261 16.64 0.0798897 16.7637C0.0958897 16.8611 0.113344 16.9615 0.122072 16.9964C0.124981 17.0124 0.135162 17.0546 0.14389 17.091C0.202072 17.3484 0.376617 17.7833 0.501708 17.9855C0.522072 18.0175 0.54389 18.0568 0.551163 18.0728C0.578799 18.1339 0.795526 18.4335 0.887163 18.5382C0.977344 18.64 1.12716 18.7986 1.14898 18.816C1.16062 18.8262 1.19407 18.8553 1.22171 18.88C1.36716 19.0124 1.63771 19.2117 1.79625 19.3033C1.90534 19.3659 2.1308 19.4764 2.14971 19.4764C2.15844 19.4764 2.16716 19.4822 2.16716 19.4895C2.16716 19.4968 2.18171 19.5055 2.19916 19.5099C2.21807 19.5142 2.29516 19.5419 2.3708 19.571C2.44644 19.6 2.51916 19.6262 2.5308 19.6291C2.58316 19.6422 2.84789 19.7077 2.88716 19.7164C2.91189 19.7222 2.95116 19.7295 2.97444 19.7324C2.99916 19.7339 3.03844 19.7397 3.06171 19.744C3.17371 19.7659 3.31625 19.7746 3.5708 19.7746C3.84862 19.7731 4.01298 19.7615 4.15989 19.7309C4.18025 19.7266 4.21807 19.7193 4.24571 19.715C4.33007 19.7004 4.55698 19.6437 4.59625 19.6262C4.60789 19.6219 4.63116 19.6146 4.64716 19.6117C4.66316 19.6102 4.68934 19.6015 4.70534 19.5942C4.72134 19.5869 4.79407 19.5579 4.86534 19.5302C4.93807 19.5026 5.02825 19.4619 5.06753 19.4415C5.1068 19.4211 5.14316 19.4037 5.15044 19.4037C5.16789 19.4037 5.40644 19.2626 5.52716 19.1826C5.74825 19.0328 6.0348 18.7811 6.2268 18.5659C6.29662 18.4873 6.4988 18.2124 6.55407 18.1208C6.58316 18.0699 6.61807 18.0175 6.62971 18.0029C6.64134 17.9899 6.64716 17.9782 6.64134 17.9782C6.63698 17.9782 6.64716 17.9535 6.66607 17.9229C6.7388 17.8051 6.89298 17.44 6.9308 17.2946C6.93371 17.2829 6.94971 17.2262 6.96425 17.1709C7.00207 17.0357 7.03844 16.864 7.04716 16.7855C7.05153 16.7491 7.05734 16.704 7.06171 16.6837C7.07625 16.6124 7.08644 16.3651 7.08934 15.9709C7.09225 15.7469 7.10244 15.536 7.11116 15.491C7.14171 15.344 7.21153 15.1535 7.26098 15.0793C7.27698 15.0575 7.28571 15.04 7.28134 15.04C7.26244 15.04 7.4268 14.8233 7.50389 14.7477C7.65371 14.5979 7.78607 14.5106 8.03625 14.3986C8.12207 14.3593 8.40571 14.3084 8.5308 14.3099C8.67625 14.3099 8.8988 14.3491 9.02244 14.3942C9.11262 14.4277 9.27262 14.5062 9.27698 14.5193C9.27989 14.5251 9.29153 14.531 9.30171 14.531C9.31334 14.531 9.3308 14.5397 9.34098 14.5484C9.35116 14.5586 9.38607 14.5862 9.41807 14.611C9.45007 14.6342 9.51844 14.6968 9.5708 14.7491L9.66534 14.8437H10.8028L11.9403 14.8451L11.9315 14.8073C11.9272 14.787 11.9199 14.7637 11.9141 14.7564C11.9097 14.7477 11.9039 14.7302 11.9024 14.7157C11.8923 14.6502 11.7846 14.3884 11.6901 14.1979C11.5577 13.9331 11.5592 13.9346 11.5461 13.9346C11.5388 13.9346 11.5344 13.9288 11.5344 13.9215C11.5344 13.904 11.4166 13.7251 11.4006 13.7193C11.3948 13.7164 11.389 13.7077 11.389 13.7004C11.389 13.6888 11.3599 13.6495 11.3206 13.6073C11.3104 13.5957 11.3017 13.5811 11.3017 13.5739C11.3017 13.5651 11.2973 13.5564 11.2915 13.5535C11.2843 13.5506 11.2537 13.52 11.2232 13.4837C11.0413 13.2742 10.7533 13.0037 10.653 12.9484C10.6341 12.9382 10.6181 12.9237 10.6181 12.9164C10.6181 12.9077 10.6093 12.9019 10.5992 12.9019C10.5875 12.9019 10.5672 12.8888 10.5526 12.8728C10.5381 12.8568 10.5177 12.8437 10.5075 12.8437C10.4973 12.8437 10.4872 12.8379 10.4843 12.832C10.4741 12.8044 10.1323 12.6153 9.94898 12.5339C9.85298 12.4902 9.67407 12.4233 9.64062 12.416C9.62171 12.4131 9.59116 12.4029 9.5708 12.3942C9.53734 12.3797 9.38753 12.3404 9.31625 12.3259C9.30025 12.323 9.27262 12.3171 9.25516 12.3128C9.17807 12.2953 9.1548 12.291 9.09807 12.2822C8.92062 12.2546 8.76644 12.2429 8.53371 12.2415C8.41444 12.24 8.31698 12.2415 8.31553 12.243ZM18.3097 12.24C18.3068 12.243 18.253 12.2488 18.189 12.2531C18.029 12.2662 17.9388 12.2793 17.7744 12.3128C17.7541 12.3171 17.7221 12.323 17.7017 12.3273C17.6261 12.3419 17.3264 12.4349 17.2261 12.4771C17.1679 12.5004 17.1199 12.5179 17.1199 12.5164C17.1199 12.5135 17.0326 12.5557 16.9279 12.6095C16.7272 12.7113 16.5773 12.7971 16.5701 12.8175C16.5672 12.8233 16.5584 12.8291 16.5512 12.8291C16.5424 12.8291 16.5075 12.851 16.4726 12.8757C16.4392 12.9019 16.3926 12.9368 16.3693 12.9528C16.3475 12.9688 16.3228 12.9877 16.3141 12.9964C16.3053 13.0037 16.2588 13.043 16.2108 13.0837C16.0115 13.2495 15.7323 13.5564 15.6101 13.744C15.581 13.7891 15.5533 13.8284 15.549 13.8328C15.5315 13.8473 15.4472 13.9942 15.4472 14.0073C15.4472 14.016 15.4428 14.0219 15.437 14.0219C15.4297 14.0219 15.4064 14.064 15.3817 14.1164C15.3584 14.1673 15.3337 14.211 15.3279 14.211C15.3206 14.211 15.3163 14.2226 15.3163 14.2371C15.3163 14.2517 15.3075 14.275 15.2959 14.291C15.2581 14.3477 15.0893 14.8073 15.1068 14.8073C15.1112 14.8073 15.1068 14.8204 15.0981 14.835C15.0908 14.851 15.0792 14.8888 15.0748 14.9193C15.0704 14.9499 15.0632 14.9789 15.0588 14.9848C15.0515 14.9979 15.0443 15.0342 15.0326 15.1128C15.0283 15.1419 15.021 15.1811 15.0181 15.2C15.0108 15.2364 15.0021 15.3033 14.9875 15.411C14.9846 15.443 14.9773 15.6786 14.9744 15.9346C14.9715 16.1906 14.9657 16.419 14.9613 16.4437C14.9555 16.4669 14.9483 16.5106 14.9439 16.5382C14.9395 16.5659 14.9192 16.6415 14.8988 16.7055C14.7839 17.0735 14.5017 17.3935 14.1395 17.5695C14.0537 17.6102 13.8937 17.6655 13.8181 17.6786C13.7977 17.683 13.7817 17.6859 13.7817 17.6873C13.7817 17.6946 13.6464 17.7033 13.5272 17.7048C13.3497 17.7062 13.2493 17.6917 13.0908 17.6422C12.8624 17.5695 12.6617 17.4459 12.493 17.2757L12.3912 17.1724L11.2683 17.1709C10.6501 17.1709 10.141 17.1724 10.1366 17.1739C10.1221 17.1797 10.1686 17.3586 10.1875 17.3702C10.1963 17.376 10.1992 17.3819 10.1933 17.3819C10.1846 17.3819 10.2792 17.6393 10.3112 17.6975C10.3184 17.712 10.349 17.7731 10.3781 17.8328C10.4493 17.9797 10.6108 18.2502 10.6472 18.2837C10.6515 18.288 10.6719 18.3171 10.6937 18.3491C10.7155 18.3811 10.749 18.4248 10.7664 18.4451C10.7853 18.4669 10.8275 18.5164 10.861 18.5557C11.1155 18.8553 11.4893 19.1608 11.8253 19.3426C11.8995 19.3833 12.0363 19.4531 12.0435 19.4546C12.0479 19.4546 12.077 19.4677 12.109 19.4822C12.2137 19.5302 12.2835 19.5579 12.3344 19.571C12.3388 19.5724 12.3621 19.5811 12.3853 19.5913C12.4828 19.632 12.8101 19.7149 12.9381 19.7324C12.9788 19.7368 13.0137 19.7426 13.0195 19.7455C13.0617 19.7717 13.7075 19.7848 13.8835 19.7629C13.9315 19.7571 13.9999 19.7484 14.0363 19.744C14.0726 19.7397 14.1628 19.7237 14.2384 19.7077C14.3126 19.6902 14.3853 19.6757 14.3984 19.6728C14.4115 19.6699 14.4653 19.6539 14.5206 19.6364C14.5744 19.6189 14.6268 19.6029 14.637 19.6015C14.6457 19.5986 14.6675 19.5913 14.6835 19.5855C14.6995 19.5797 14.7592 19.5564 14.8144 19.5346C15.3919 19.3077 15.9315 18.9033 16.3024 18.4146C16.3606 18.339 16.4203 18.2604 16.4363 18.24C16.4523 18.2197 16.4653 18.1964 16.4653 18.1862C16.4653 18.1775 16.4712 18.1673 16.477 18.1644C16.4915 18.1586 16.5919 17.9869 16.6704 17.8357C16.7723 17.6364 16.8828 17.3382 16.9395 17.1128C16.9453 17.088 16.9512 17.0662 16.9526 17.0619C16.9584 17.0386 16.9744 16.9615 16.9817 16.9237C16.9861 16.899 16.9919 16.864 16.9963 16.8437C16.9992 16.8233 17.0064 16.7739 17.0123 16.7346C17.0166 16.6939 17.0239 16.6386 17.0268 16.6109C17.0312 16.5833 17.037 16.3695 17.0399 16.1382C17.0486 15.5811 17.0515 15.5346 17.1039 15.36C17.1475 15.2073 17.2435 14.9964 17.2683 14.9964C17.2741 14.9964 17.2799 14.9891 17.2799 14.9804C17.2799 14.963 17.3643 14.851 17.4312 14.7782C17.8006 14.384 18.3373 14.2255 18.8508 14.3564C18.9555 14.3826 19.165 14.4655 19.1853 14.4873C19.1897 14.4917 19.2173 14.5077 19.2479 14.5222C19.277 14.5382 19.3017 14.5557 19.3017 14.563C19.3017 14.5688 19.309 14.5746 19.3177 14.5746C19.3453 14.5746 19.4806 14.6924 19.5926 14.816C19.7075 14.9426 19.8297 15.1637 19.8806 15.3382C19.9359 15.5273 19.9403 15.5724 19.949 15.9273C19.9577 16.3186 19.9679 16.5804 19.9781 16.6473C20.0072 16.8451 20.0333 16.9935 20.0523 17.0691C20.0828 17.1957 20.1599 17.4415 20.1832 17.4866C20.1948 17.5069 20.2035 17.5331 20.2035 17.5433C20.2035 17.5753 20.4028 17.971 20.4828 18.099C20.5526 18.2124 20.7024 18.419 20.7941 18.531C20.8421 18.5891 21.1315 18.88 21.2086 18.9455C21.2872 19.0139 21.5679 19.2175 21.5795 19.2146C21.5853 19.2131 21.5941 19.219 21.5984 19.2262C21.6115 19.248 21.7468 19.3251 21.9344 19.4182C22.1904 19.5477 22.5264 19.6626 22.7941 19.715C22.8057 19.7179 22.8377 19.7237 22.8653 19.7295C22.9177 19.7397 22.9424 19.7426 23.1199 19.7629C23.2479 19.7775 23.7163 19.7775 23.8326 19.7644C24.0333 19.7397 24.1177 19.7266 24.2224 19.7019C24.2675 19.6917 24.3053 19.6873 24.3053 19.6917C24.3053 19.696 24.3126 19.6931 24.3228 19.6829C24.333 19.6728 24.3519 19.6655 24.3664 19.6655C24.3941 19.6655 24.7112 19.5637 24.7955 19.5273C24.9468 19.4619 25.1984 19.3339 25.3061 19.2669C25.373 19.2262 25.4443 19.184 25.4632 19.1739C25.4821 19.1637 25.4981 19.1491 25.4981 19.1404C25.4981 19.1331 25.5083 19.1273 25.5199 19.1273C25.5315 19.1273 25.5417 19.1229 25.5417 19.1157C25.5417 19.1099 25.5723 19.0851 25.6072 19.0619C25.6435 19.0371 25.6726 19.0139 25.6726 19.0066C25.6726 19.0008 25.6784 18.9964 25.6857 18.9964C25.7163 18.9964 26.0319 18.6924 26.1686 18.531C26.2733 18.4073 26.3824 18.2604 26.4028 18.2168C26.4115 18.1979 26.4232 18.1819 26.429 18.1819C26.4348 18.1819 26.4479 18.1615 26.4581 18.1382C26.4683 18.1135 26.4813 18.0946 26.4886 18.0946C26.4959 18.0946 26.5017 18.0815 26.5017 18.0655C26.5017 18.0495 26.5061 18.0364 26.5133 18.0364C26.5192 18.0364 26.5308 18.0219 26.5395 18.0029C26.5497 17.9855 26.5803 17.9244 26.6108 17.8691C26.7184 17.6626 26.8944 17.2029 26.8726 17.1797C26.8683 17.1768 26.3577 17.1724 25.7381 17.1724L24.6123 17.1709L24.5148 17.2699C24.4624 17.3237 24.3723 17.4022 24.3141 17.4415C24.2123 17.5128 24.0043 17.6219 23.9388 17.6364C23.9199 17.6393 23.869 17.6524 23.8253 17.6655C23.5941 17.7266 23.2872 17.7208 23.069 17.648C23.0326 17.6364 22.9933 17.6248 22.9803 17.6219C22.9672 17.6189 22.9439 17.6102 22.9293 17.6029C22.9133 17.5942 22.8697 17.5724 22.829 17.555C22.7897 17.536 22.7504 17.5157 22.7417 17.5084C22.7344 17.5026 22.6981 17.4779 22.6617 17.4546C22.6253 17.4313 22.573 17.3906 22.5424 17.3644C22.5133 17.3382 22.4784 17.3048 22.4624 17.2917C22.3839 17.2204 22.2937 17.1026 22.2224 16.9804C22.1672 16.8859 22.0595 16.6124 22.0726 16.5993C22.0755 16.5949 22.0726 16.5833 22.0639 16.5717C22.0552 16.5615 22.0508 16.5528 22.0552 16.5528C22.0595 16.5528 22.0566 16.5309 22.0493 16.5048C22.0421 16.48 22.0319 16.3273 22.029 16.1673C22.0188 15.7484 22.0072 15.4299 21.9999 15.3906C21.997 15.3717 21.9897 15.3193 21.9839 15.2742C21.9723 15.1666 21.9417 15.0197 21.8966 14.851C21.8763 14.7753 21.8573 14.7055 21.8559 14.6982C21.853 14.6895 21.8443 14.6648 21.8355 14.643C21.8253 14.6197 21.8181 14.595 21.8181 14.5877C21.8181 14.579 21.8021 14.5368 21.7817 14.4931C21.7613 14.4495 21.7453 14.4117 21.7453 14.4073C21.7453 14.4044 21.7381 14.384 21.7279 14.3608C21.7192 14.3389 21.7104 14.3171 21.709 14.3128C21.709 14.3084 21.6988 14.2895 21.6872 14.2691C21.6755 14.2488 21.6653 14.2299 21.6653 14.2255C21.6639 14.2153 21.597 14.0888 21.549 14.0073C21.5286 13.971 21.5039 13.9273 21.4952 13.9084C21.4864 13.891 21.4733 13.8764 21.4661 13.8764C21.4603 13.8764 21.4544 13.8691 21.4544 13.8604C21.4544 13.8415 21.3424 13.683 21.2217 13.5346C20.8741 13.1026 20.3432 12.707 19.8472 12.5091C19.7832 12.4844 19.7177 12.4568 19.7017 12.451C19.6173 12.4146 19.2653 12.3186 19.149 12.2997C19.1257 12.2968 19.1053 12.2924 19.1053 12.291C19.1053 12.288 19.0893 12.2851 19.069 12.2837C19.0486 12.2822 19.0064 12.2764 18.9744 12.272C18.8552 12.2531 18.7504 12.2459 18.5352 12.2415C18.413 12.2386 18.3112 12.2386 18.3097 12.24ZM28.2573 12.2415C28.2559 12.2429 28.2021 12.2488 28.1381 12.2546C28.0741 12.259 28.0057 12.2662 27.9853 12.2691C27.965 12.272 27.9257 12.2793 27.8981 12.2822C27.7832 12.2997 27.7555 12.3055 27.6435 12.3331C27.2755 12.4233 27.0021 12.5339 26.6835 12.7171C26.5832 12.7753 26.4144 12.8844 26.3999 12.9004C26.3955 12.9062 26.3679 12.9251 26.3388 12.9455C26.3083 12.9659 26.2835 12.9862 26.2835 12.992C26.2835 12.9993 26.2777 13.0037 26.269 13.0037C26.2617 13.0037 26.2428 13.0153 26.2268 13.0284C26.2123 13.043 26.1555 13.0939 26.1017 13.1419C25.9563 13.2699 25.805 13.4328 25.6799 13.5913C25.6566 13.6219 25.6275 13.6568 25.6188 13.6669C25.6086 13.6771 25.5999 13.6917 25.5999 13.6989C25.5999 13.7077 25.5955 13.7164 25.5897 13.7193C25.5723 13.7266 25.4835 13.8575 25.4835 13.8735C25.4835 13.8822 25.4777 13.891 25.4719 13.8939C25.453 13.9011 25.245 14.2866 25.2435 14.3157C25.2435 14.3215 25.2348 14.3346 25.2261 14.3433C25.2159 14.3535 25.2072 14.3724 25.2072 14.3855C25.2072 14.3986 25.2028 14.4146 25.197 14.4204C25.1897 14.4262 25.1853 14.4364 25.1839 14.4408C25.1839 14.4466 25.1766 14.467 25.1679 14.4873C25.1344 14.5659 25.0617 14.7957 25.0617 14.8204C25.0617 14.8451 25.1184 14.8466 26.1904 14.8466H27.3192L27.4181 14.7506C27.5737 14.5993 27.6479 14.544 27.8035 14.4669C27.9868 14.3768 28.157 14.3288 28.3272 14.32C28.3839 14.3171 28.4319 14.3128 28.4363 14.3113C28.4523 14.3084 28.5337 14.3113 28.6108 14.32C29.3148 14.3971 29.8632 14.9804 29.8981 15.6873C29.9083 15.8866 29.9446 15.9811 30.0406 16.0655C30.1366 16.1499 30.2384 16.1819 30.3999 16.176C30.4435 16.1746 30.4901 16.1731 30.5017 16.1731C30.5773 16.176 30.861 16.176 30.8726 16.1746C30.8813 16.1731 30.8901 16.1717 30.8944 16.1746C30.9192 16.1833 31.1126 16.1804 31.1126 16.1702C31.1126 16.1629 31.1199 16.1629 31.1286 16.1688C31.1432 16.1775 31.3003 16.1819 31.3381 16.1746C31.3468 16.1717 31.357 16.1731 31.3643 16.1746C31.389 16.1804 31.5606 16.176 31.6217 16.1673C31.7832 16.1455 31.9228 16.019 31.9679 15.8546C31.9752 15.827 31.9723 15.5477 31.9635 15.4619C31.9548 15.3746 31.9417 15.2611 31.933 15.2073C31.9286 15.1826 31.9228 15.1477 31.9199 15.1273C31.9126 15.0706 31.8399 14.7739 31.8253 14.7419C31.8181 14.7259 31.8021 14.6764 31.789 14.6328C31.7643 14.5513 31.7323 14.4699 31.709 14.4262C31.7003 14.4117 31.6944 14.3942 31.6944 14.3855C31.6944 14.339 31.4704 13.9288 31.3715 13.7935C31.341 13.7513 31.3163 13.7135 31.3163 13.7091C31.3163 13.7033 31.3075 13.6917 31.2988 13.6815C31.2886 13.6713 31.2639 13.6408 31.2435 13.6146C31.0006 13.2917 30.6312 12.9615 30.2617 12.7389C30.0828 12.6313 29.7497 12.4786 29.549 12.4131C29.5228 12.4044 29.2726 12.3331 29.2508 12.3288C29.1446 12.304 28.9264 12.2691 28.7853 12.2531C28.7068 12.2444 28.2646 12.2342 28.2573 12.2415Z" fill="#F8F8F8"/>
</svg>
